<?xml version="1.0" encoding="UTF-8" standalone="no"?>
<!DOCTYPE svg PUBLIC "-//W3C//DTD SVG 1.1//EN"
 "http://www.w3.org/Graphics/SVG/1.1/DTD/svg11.dtd">
<!-- Generated by graphviz version 2.40.1 (20161225.0304)
 -->
<!-- Title: credentials Pages: 1 -->
<svg width="492pt" height="472pt"
 viewBox="0.00 0.00 492.00 472.00" xmlns="http://www.w3.org/2000/svg" xmlns:xlink="http://www.w3.org/1999/xlink">
<g id="graph0" class="graph" transform="scale(1 1) rotate(0) translate(4 468)">
<title>credentials</title>
<polygon fill="#ffffff" stroke="transparent" points="-4,4 -4,-468 488,-468 488,4 -4,4"/>
<!-- credentials -->
<g id="node1" class="node">
<title>credentials</title>
<polygon fill="#efefef" stroke="transparent" points="240,-382.5 240,-417.5 438,-417.5 438,-382.5 240,-382.5"/>
<polygon fill="none" stroke="#000000" points="240,-382.5 240,-417.5 438,-417.5 438,-382.5 240,-382.5"/>
<text text-anchor="start" x="246.8662" y="-395.3" font-family="Arial Bold" font-size="18.00" fill="#000000">credentials</text>
<text text-anchor="start" x="333.88" y="-395.3" font-family="Arial" font-size="14.00" fill="#000000"> </text>
<text text-anchor="start" x="337.7706" y="-395.3" font-family="Arial" font-size="14.00" fill="#666666">[BASE TABLE]</text>
<polygon fill="none" stroke="#000000" points="240,-352.5 240,-382.5 438,-382.5 438,-352.5 240,-352.5"/>
<text text-anchor="start" x="247" y="-363.9" font-family="Arial" font-size="14.00" fill="#000000">user_id </text>
<text text-anchor="start" x="296.7882" y="-363.9" font-family="Arial" font-size="14.00" fill="#666666">[char(36)]</text>
<polygon fill="none" stroke="#000000" points="240,-322.5 240,-352.5 438,-352.5 438,-322.5 240,-322.5"/>
<text text-anchor="start" x="247" y="-333.9" font-family="Arial" font-size="14.00" fill="#000000">mail_address </text>
<text text-anchor="start" x="334.1206" y="-333.9" font-family="Arial" font-size="14.00" fill="#666666">[varchar(254)]</text>
<polygon fill="none" stroke="#000000" points="240,-292.5 240,-322.5 438,-322.5 438,-292.5 240,-292.5"/>
<text text-anchor="start" x="247" y="-303.9" font-family="Arial" font-size="14.00" fill="#000000">hashed_pass </text>
<text text-anchor="start" x="334.1514" y="-303.9" font-family="Arial" font-size="14.00" fill="#666666">[varchar(32)]</text>
<polygon fill="none" stroke="#000000" stroke-width="3" points="238.5,-291.5 238.5,-419.5 439.5,-419.5 439.5,-291.5 238.5,-291.5"/>
</g>
<!-- users -->
<g id="node2" class="node">
<title>users</title>
<polygon fill="#efefef" stroke="transparent" points="261,-132.5 261,-167.5 416,-167.5 416,-132.5 261,-132.5"/>
<polygon fill="none" stroke="#000000" points="261,-132.5 261,-167.5 416,-167.5 416,-132.5 261,-132.5"/>
<text text-anchor="start" x="267.8708" y="-145.3" font-family="Arial Bold" font-size="18.00" fill="#000000">users</text>
<text text-anchor="start" x="311.8754" y="-145.3" font-family="Arial" font-size="14.00" fill="#000000"> </text>
<text text-anchor="start" x="315.766" y="-145.3" font-family="Arial" font-size="14.00" fill="#666666">[BASE TABLE]</text>
<polygon fill="none" stroke="#000000" points="261,-102.5 261,-132.5 416,-132.5 416,-102.5 261,-102.5"/>
<text text-anchor="start" x="268" y="-113.9" font-family="Arial" font-size="14.00" fill="#000000">id </text>
<text text-anchor="start" x="282.7798" y="-113.9" font-family="Arial" font-size="14.00" fill="#666666">[char(36)]</text>
<polygon fill="none" stroke="#000000" points="261,-72.5 261,-102.5 416,-102.5 416,-72.5 261,-72.5"/>
<text text-anchor="start" x="268" y="-83.9" font-family="Arial" font-size="14.00" fill="#000000">name </text>
<text text-anchor="start" x="306.899" y="-83.9" font-family="Arial" font-size="14.00" fill="#666666">[varchar(32)]</text>
<polygon fill="none" stroke="#000000" points="261,-42.5 261,-72.5 416,-72.5 416,-42.5 261,-42.5"/>
<text text-anchor="start" x="268" y="-53.9" font-family="Arial" font-size="14.00" fill="#000000">icon_file_id </text>
<text text-anchor="start" x="341.9032" y="-53.9" font-family="Arial" font-size="14.00" fill="#666666">[char(36)]</text>
</g>
<!-- credentials&#45;&gt;users -->
<g id="edge1" class="edge">
<title>credentials:user_id&#45;&gt;users:id</title>
<path fill="none" stroke="#000000" d="M230.0249,-366.4296C189.203,-356.8733 208.4517,-285.6545 240,-247 290.4839,-185.1446 365.5161,-272.8554 416,-211 442.2755,-178.8059 457.5556,-117.5 416,-117.5"/>
<polygon fill="#000000" stroke="#000000" points="230.0571,-366.433 239.5198,-371.9743 235.0285,-366.9665 240,-367.5 240,-367.5 240,-367.5 235.0285,-366.9665 240.4802,-363.0257 230.0571,-366.433 230.0571,-366.433"/>
<text text-anchor="start" x="6.945" y="-377.5" font-family="Arial" font-size="10.00" fill="#000000">FOREIGN KEY (user_id) REFERENCES users (id)</text>
</g>
</g>
</svg>
