<?xml version="1.0" encoding="UTF-8" standalone="no"?>
<!DOCTYPE svg PUBLIC "-//W3C//DTD SVG 1.1//EN"
 "http://www.w3.org/Graphics/SVG/1.1/DTD/svg11.dtd">
<!-- Generated by graphviz version 2.40.1 (20161225.0304)
 -->
<!-- Title: favorites Pages: 1 -->
<svg width="671pt" height="562pt"
 viewBox="0.00 0.00 671.00 562.00" xmlns="http://www.w3.org/2000/svg" xmlns:xlink="http://www.w3.org/1999/xlink">
<g id="graph0" class="graph" transform="scale(1 1) rotate(0) translate(4 558)">
<title>favorites</title>
<polygon fill="#ffffff" stroke="transparent" points="-4,4 -4,-558 667,-558 667,4 -4,4"/>
<!-- favorites -->
<g id="node1" class="node">
<title>favorites</title>
<polygon fill="#efefef" stroke="transparent" points="240,-472.5 240,-507.5 419,-507.5 419,-472.5 240,-472.5"/>
<polygon fill="none" stroke="#000000" points="240,-472.5 240,-507.5 419,-507.5 419,-472.5 240,-472.5"/>
<text text-anchor="start" x="246.8684" y="-485.3" font-family="Arial Bold" font-size="18.00" fill="#000000">favorites</text>
<text text-anchor="start" x="314.8778" y="-485.3" font-family="Arial" font-size="14.00" fill="#000000"> </text>
<text text-anchor="start" x="318.7684" y="-485.3" font-family="Arial" font-size="14.00" fill="#666666">[BASE TABLE]</text>
<polygon fill="none" stroke="#000000" points="240,-442.5 240,-472.5 419,-472.5 419,-442.5 240,-442.5"/>
<text text-anchor="start" x="247" y="-453.9" font-family="Arial" font-size="14.00" fill="#000000">user_id </text>
<text text-anchor="start" x="296.7882" y="-453.9" font-family="Arial" font-size="14.00" fill="#666666">[char(36)]</text>
<polygon fill="none" stroke="#000000" points="240,-412.5 240,-442.5 419,-442.5 419,-412.5 240,-412.5"/>
<text text-anchor="start" x="247" y="-423.9" font-family="Arial" font-size="14.00" fill="#000000">heya_id </text>
<text text-anchor="start" x="299.9102" y="-423.9" font-family="Arial" font-size="14.00" fill="#666666">[char(36)]</text>
<polygon fill="none" stroke="#000000" stroke-width="3" points="238,-411.5 238,-509.5 420,-509.5 420,-411.5 238,-411.5"/>
</g>
<!-- users -->
<g id="node2" class="node">
<title>users</title>
<polygon fill="#efefef" stroke="transparent" points="121,-192.5 121,-227.5 276,-227.5 276,-192.5 121,-192.5"/>
<polygon fill="none" stroke="#000000" points="121,-192.5 121,-227.5 276,-227.5 276,-192.5 121,-192.5"/>
<text text-anchor="start" x="127.8708" y="-205.3" font-family="Arial Bold" font-size="18.00" fill="#000000">users</text>
<text text-anchor="start" x="171.8754" y="-205.3" font-family="Arial" font-size="14.00" fill="#000000"> </text>
<text text-anchor="start" x="175.766" y="-205.3" font-family="Arial" font-size="14.00" fill="#666666">[BASE TABLE]</text>
<polygon fill="none" stroke="#000000" points="121,-162.5 121,-192.5 276,-192.5 276,-162.5 121,-162.5"/>
<text text-anchor="start" x="128" y="-173.9" font-family="Arial" font-size="14.00" fill="#000000">id </text>
<text text-anchor="start" x="142.7798" y="-173.9" font-family="Arial" font-size="14.00" fill="#666666">[char(36)]</text>
<polygon fill="none" stroke="#000000" points="121,-132.5 121,-162.5 276,-162.5 276,-132.5 121,-132.5"/>
<text text-anchor="start" x="128" y="-143.9" font-family="Arial" font-size="14.00" fill="#000000">name </text>
<text text-anchor="start" x="166.899" y="-143.9" font-family="Arial" font-size="14.00" fill="#666666">[varchar(32)]</text>
<polygon fill="none" stroke="#000000" points="121,-102.5 121,-132.5 276,-132.5 276,-102.5 121,-102.5"/>
<text text-anchor="start" x="128" y="-113.9" font-family="Arial" font-size="14.00" fill="#000000">icon_file_id </text>
<text text-anchor="start" x="201.9032" y="-113.9" font-family="Arial" font-size="14.00" fill="#666666">[char(36)]</text>
</g>
<!-- favorites&#45;&gt;users -->
<g id="edge1" class="edge">
<title>favorites:user_id&#45;&gt;users:id</title>
<path fill="none" stroke="#000000" d="M230.0136,-456.7931C130.99,-441.3341 397.793,-177.5 276,-177.5"/>
<polygon fill="#000000" stroke="#000000" points="230.025,-456.7938 239.6822,-461.9888 235.0125,-457.1469 240,-457.5 240,-457.5 240,-457.5 235.0125,-457.1469 240.3178,-453.0112 230.025,-456.7938 230.025,-456.7938"/>
<text text-anchor="start" x="6.945" y="-467.5" font-family="Arial" font-size="10.00" fill="#000000">FOREIGN KEY (user_id) REFERENCES users (id)</text>
</g>
<!-- heyas -->
<g id="node3" class="node">
<title>heyas</title>
<polygon fill="#efefef" stroke="transparent" points="380,-252.5 380,-287.5 541,-287.5 541,-252.5 380,-252.5"/>
<polygon fill="none" stroke="#000000" points="380,-252.5 380,-287.5 541,-287.5 541,-252.5 380,-252.5"/>
<text text-anchor="start" x="387.8638" y="-265.3" font-family="Arial Bold" font-size="18.00" fill="#000000">heyas</text>
<text text-anchor="start" x="435.8824" y="-265.3" font-family="Arial" font-size="14.00" fill="#000000"> </text>
<text text-anchor="start" x="439.773" y="-265.3" font-family="Arial" font-size="14.00" fill="#666666">[BASE TABLE]</text>
<polygon fill="none" stroke="#000000" points="380,-222.5 380,-252.5 541,-252.5 541,-222.5 380,-222.5"/>
<text text-anchor="start" x="387" y="-233.9" font-family="Arial" font-size="14.00" fill="#000000">id </text>
<text text-anchor="start" x="401.7798" y="-233.9" font-family="Arial" font-size="14.00" fill="#666666">[char(36)]</text>
<polygon fill="none" stroke="#000000" points="380,-192.5 380,-222.5 541,-222.5 541,-192.5 380,-192.5"/>
<text text-anchor="start" x="387" y="-203.9" font-family="Arial" font-size="14.00" fill="#000000">title </text>
<text text-anchor="start" x="412.6676" y="-203.9" font-family="Arial" font-size="14.00" fill="#666666">[char(50)]</text>
<polygon fill="none" stroke="#000000" points="380,-162.5 380,-192.5 541,-192.5 541,-162.5 380,-162.5"/>
<text text-anchor="start" x="387" y="-173.9" font-family="Arial" font-size="14.00" fill="#000000">description </text>
<text text-anchor="start" x="458.568" y="-173.9" font-family="Arial" font-size="14.00" fill="#666666">[text]</text>
<polygon fill="none" stroke="#000000" points="380,-132.5 380,-162.5 541,-162.5 541,-132.5 380,-132.5"/>
<text text-anchor="start" x="387" y="-143.9" font-family="Arial" font-size="14.00" fill="#000000">creator_id </text>
<text text-anchor="start" x="453.122" y="-143.9" font-family="Arial" font-size="14.00" fill="#666666">[char(36)]</text>
<polygon fill="none" stroke="#000000" points="380,-102.5 380,-132.5 541,-132.5 541,-102.5 380,-102.5"/>
<text text-anchor="start" x="386.9881" y="-113.9" font-family="Arial" font-size="14.00" fill="#000000">last_editor_id </text>
<text text-anchor="start" x="474.1185" y="-113.9" font-family="Arial" font-size="14.00" fill="#666666">[char(36)]</text>
<polygon fill="none" stroke="#000000" points="380,-72.5 380,-102.5 541,-102.5 541,-72.5 380,-72.5"/>
<text text-anchor="start" x="387" y="-83.9" font-family="Arial" font-size="14.00" fill="#000000">created_at </text>
<text text-anchor="start" x="457.028" y="-83.9" font-family="Arial" font-size="14.00" fill="#666666">[datetime]</text>
<polygon fill="none" stroke="#000000" points="380,-42.5 380,-72.5 541,-72.5 541,-42.5 380,-42.5"/>
<text text-anchor="start" x="387" y="-53.9" font-family="Arial" font-size="14.00" fill="#000000">updated_at </text>
<text text-anchor="start" x="460.9326" y="-53.9" font-family="Arial" font-size="14.00" fill="#666666">[datetime]</text>
</g>
<!-- favorites&#45;&gt;heyas -->
<g id="edge2" class="edge">
<title>favorites:heya_id&#45;&gt;heyas:id</title>
<path fill="none" stroke="#000000" d="M428.976,-424.8117C440.7478,-416.0331 428.0151,-387.5904 419,-367 409.539,-345.3913 389.461,-352.6087 380,-331 363.3332,-292.9332 338.4444,-237.5 380,-237.5"/>
<polygon fill="#000000" stroke="#000000" points="428.6556,-424.8979 417.8291,-423.155 423.8278,-426.199 419,-427.5 419,-427.5 419,-427.5 423.8278,-426.199 420.1709,-431.845 428.6556,-424.8979 428.6556,-424.8979"/>
<text text-anchor="start" x="425.715" y="-437.5" font-family="Arial" font-size="10.00" fill="#000000">FOREIGN KEY (heya_id) REFERENCES heyas (id)</text>
</g>
</g>
</svg>
