<?xml version="1.0" encoding="UTF-8" standalone="no"?>
<!DOCTYPE svg PUBLIC "-//W3C//DTD SVG 1.1//EN"
 "http://www.w3.org/Graphics/SVG/1.1/DTD/svg11.dtd">
<!-- Generated by graphviz version 2.40.1 (20161225.0304)
 -->
<!-- Title: heyas Pages: 1 -->
<svg width="466pt" height="592pt"
 viewBox="0.00 0.00 465.50 592.00" xmlns="http://www.w3.org/2000/svg" xmlns:xlink="http://www.w3.org/1999/xlink">
<g id="graph0" class="graph" transform="scale(1 1) rotate(0) translate(4 588)">
<title>heyas</title>
<polygon fill="#ffffff" stroke="transparent" points="-4,4 -4,-588 461.5,-588 461.5,4 -4,4"/>
<!-- heyas -->
<g id="node1" class="node">
<title>heyas</title>
<polygon fill="#efefef" stroke="transparent" points="251,-502.5 251,-537.5 412,-537.5 412,-502.5 251,-502.5"/>
<polygon fill="none" stroke="#000000" points="251,-502.5 251,-537.5 412,-537.5 412,-502.5 251,-502.5"/>
<text text-anchor="start" x="258.8638" y="-515.3" font-family="Arial Bold" font-size="18.00" fill="#000000">heyas</text>
<text text-anchor="start" x="306.8824" y="-515.3" font-family="Arial" font-size="14.00" fill="#000000"> </text>
<text text-anchor="start" x="310.773" y="-515.3" font-family="Arial" font-size="14.00" fill="#666666">[BASE TABLE]</text>
<polygon fill="none" stroke="#000000" points="251,-472.5 251,-502.5 412,-502.5 412,-472.5 251,-472.5"/>
<text text-anchor="start" x="258" y="-483.9" font-family="Arial" font-size="14.00" fill="#000000">id </text>
<text text-anchor="start" x="272.7798" y="-483.9" font-family="Arial" font-size="14.00" fill="#666666">[char(36)]</text>
<polygon fill="none" stroke="#000000" points="251,-442.5 251,-472.5 412,-472.5 412,-442.5 251,-442.5"/>
<text text-anchor="start" x="258" y="-453.9" font-family="Arial" font-size="14.00" fill="#000000">title </text>
<text text-anchor="start" x="283.6676" y="-453.9" font-family="Arial" font-size="14.00" fill="#666666">[char(50)]</text>
<polygon fill="none" stroke="#000000" points="251,-412.5 251,-442.5 412,-442.5 412,-412.5 251,-412.5"/>
<text text-anchor="start" x="258" y="-423.9" font-family="Arial" font-size="14.00" fill="#000000">description </text>
<text text-anchor="start" x="329.568" y="-423.9" font-family="Arial" font-size="14.00" fill="#666666">[text]</text>
<polygon fill="none" stroke="#000000" points="251,-382.5 251,-412.5 412,-412.5 412,-382.5 251,-382.5"/>
<text text-anchor="start" x="258" y="-393.9" font-family="Arial" font-size="14.00" fill="#000000">creator_id </text>
<text text-anchor="start" x="324.122" y="-393.9" font-family="Arial" font-size="14.00" fill="#666666">[char(36)]</text>
<polygon fill="none" stroke="#000000" points="251,-352.5 251,-382.5 412,-382.5 412,-352.5 251,-352.5"/>
<text text-anchor="start" x="257.9881" y="-363.9" font-family="Arial" font-size="14.00" fill="#000000">last_editor_id </text>
<text text-anchor="start" x="345.1185" y="-363.9" font-family="Arial" font-size="14.00" fill="#666666">[char(36)]</text>
<polygon fill="none" stroke="#000000" points="251,-322.5 251,-352.5 412,-352.5 412,-322.5 251,-322.5"/>
<text text-anchor="start" x="258" y="-333.9" font-family="Arial" font-size="14.00" fill="#000000">created_at </text>
<text text-anchor="start" x="328.028" y="-333.9" font-family="Arial" font-size="14.00" fill="#666666">[datetime]</text>
<polygon fill="none" stroke="#000000" points="251,-292.5 251,-322.5 412,-322.5 412,-292.5 251,-292.5"/>
<text text-anchor="start" x="258" y="-303.9" font-family="Arial" font-size="14.00" fill="#000000">updated_at </text>
<text text-anchor="start" x="331.9326" y="-303.9" font-family="Arial" font-size="14.00" fill="#666666">[datetime]</text>
<polygon fill="none" stroke="#000000" stroke-width="3" points="249,-291.5 249,-539.5 413,-539.5 413,-291.5 249,-291.5"/>
</g>
<!-- users -->
<g id="node2" class="node">
<title>users</title>
<polygon fill="#efefef" stroke="transparent" points="254,-132.5 254,-167.5 409,-167.5 409,-132.5 254,-132.5"/>
<polygon fill="none" stroke="#000000" points="254,-132.5 254,-167.5 409,-167.5 409,-132.5 254,-132.5"/>
<text text-anchor="start" x="260.8708" y="-145.3" font-family="Arial Bold" font-size="18.00" fill="#000000">users</text>
<text text-anchor="start" x="304.8754" y="-145.3" font-family="Arial" font-size="14.00" fill="#000000"> </text>
<text text-anchor="start" x="308.766" y="-145.3" font-family="Arial" font-size="14.00" fill="#666666">[BASE TABLE]</text>
<polygon fill="none" stroke="#000000" points="254,-102.5 254,-132.5 409,-132.5 409,-102.5 254,-102.5"/>
<text text-anchor="start" x="261" y="-113.9" font-family="Arial" font-size="14.00" fill="#000000">id </text>
<text text-anchor="start" x="275.7798" y="-113.9" font-family="Arial" font-size="14.00" fill="#666666">[char(36)]</text>
<polygon fill="none" stroke="#000000" points="254,-72.5 254,-102.5 409,-102.5 409,-72.5 254,-72.5"/>
<text text-anchor="start" x="261" y="-83.9" font-family="Arial" font-size="14.00" fill="#000000">name </text>
<text text-anchor="start" x="299.899" y="-83.9" font-family="Arial" font-size="14.00" fill="#666666">[varchar(32)]</text>
<polygon fill="none" stroke="#000000" points="254,-42.5 254,-72.5 409,-72.5 409,-42.5 254,-42.5"/>
<text text-anchor="start" x="261" y="-53.9" font-family="Arial" font-size="14.00" fill="#000000">icon_file_id </text>
<text text-anchor="start" x="334.9032" y="-53.9" font-family="Arial" font-size="14.00" fill="#666666">[char(36)]</text>
</g>
<!-- heyas&#45;&gt;users -->
<g id="edge1" class="edge">
<title>heyas:creator_id&#45;&gt;users:id</title>
<path fill="none" stroke="#000000" d="M241.0532,-394.9069C189.3041,-366.6795 195.2987,-117.5 254,-117.5"/>
<polygon fill="#000000" stroke="#000000" points="241.3234,-394.9773 249.8648,-401.8545 246.1617,-396.2386 251,-397.5 251,-397.5 251,-397.5 246.1617,-396.2386 252.1352,-393.1455 241.3234,-394.9773 241.3234,-394.9773"/>
<text text-anchor="start" x="7.1115" y="-407.5" font-family="Arial" font-size="10.00" fill="#000000">FOREIGN KEY (creator_id) REFERENCES users (id)</text>
</g>
</g>
</svg>
