<?xml version="1.0" encoding="UTF-8" standalone="no"?>
<!DOCTYPE svg PUBLIC "-//W3C//DTD SVG 1.1//EN"
 "http://www.w3.org/Graphics/SVG/1.1/DTD/svg11.dtd">
<!-- Generated by graphviz version 2.40.1 (20161225.0304)
 -->
<!-- Title: heyas Pages: 1 -->
<svg width="1177pt" height="1079pt"
 viewBox="0.00 0.00 1177.00 1079.00" xmlns="http://www.w3.org/2000/svg" xmlns:xlink="http://www.w3.org/1999/xlink">
<g id="graph0" class="graph" transform="scale(1 1) rotate(0) translate(4 1075)">
<title>heyas</title>
<polygon fill="#ffffff" stroke="transparent" points="-4,4 -4,-1075 1173,-1075 1173,4 -4,4"/>
<!-- heyas -->
<g id="node1" class="node">
<title>heyas</title>
<polygon fill="#efefef" stroke="transparent" points="507,-502.5 507,-537.5 668,-537.5 668,-502.5 507,-502.5"/>
<polygon fill="none" stroke="#000000" points="507,-502.5 507,-537.5 668,-537.5 668,-502.5 507,-502.5"/>
<text text-anchor="start" x="514.8638" y="-515.3" font-family="Arial Bold" font-size="18.00" fill="#000000">heyas</text>
<text text-anchor="start" x="562.8824" y="-515.3" font-family="Arial" font-size="14.00" fill="#000000"> </text>
<text text-anchor="start" x="566.773" y="-515.3" font-family="Arial" font-size="14.00" fill="#666666">[BASE TABLE]</text>
<polygon fill="none" stroke="#000000" points="507,-472.5 507,-502.5 668,-502.5 668,-472.5 507,-472.5"/>
<text text-anchor="start" x="514" y="-483.9" font-family="Arial" font-size="14.00" fill="#000000">id </text>
<text text-anchor="start" x="528.7798" y="-483.9" font-family="Arial" font-size="14.00" fill="#666666">[char(36)]</text>
<polygon fill="none" stroke="#000000" points="507,-442.5 507,-472.5 668,-472.5 668,-442.5 507,-442.5"/>
<text text-anchor="start" x="514" y="-453.9" font-family="Arial" font-size="14.00" fill="#000000">title </text>
<text text-anchor="start" x="539.6676" y="-453.9" font-family="Arial" font-size="14.00" fill="#666666">[char(50)]</text>
<polygon fill="none" stroke="#000000" points="507,-412.5 507,-442.5 668,-442.5 668,-412.5 507,-412.5"/>
<text text-anchor="start" x="514" y="-423.9" font-family="Arial" font-size="14.00" fill="#000000">description </text>
<text text-anchor="start" x="585.568" y="-423.9" font-family="Arial" font-size="14.00" fill="#666666">[text]</text>
<polygon fill="none" stroke="#000000" points="507,-382.5 507,-412.5 668,-412.5 668,-382.5 507,-382.5"/>
<text text-anchor="start" x="514" y="-393.9" font-family="Arial" font-size="14.00" fill="#000000">creator_id </text>
<text text-anchor="start" x="580.122" y="-393.9" font-family="Arial" font-size="14.00" fill="#666666">[char(36)]</text>
<polygon fill="none" stroke="#000000" points="507,-352.5 507,-382.5 668,-382.5 668,-352.5 507,-352.5"/>
<text text-anchor="start" x="513.9881" y="-363.9" font-family="Arial" font-size="14.00" fill="#000000">last_editor_id </text>
<text text-anchor="start" x="601.1185" y="-363.9" font-family="Arial" font-size="14.00" fill="#666666">[char(36)]</text>
<polygon fill="none" stroke="#000000" points="507,-322.5 507,-352.5 668,-352.5 668,-322.5 507,-322.5"/>
<text text-anchor="start" x="514" y="-333.9" font-family="Arial" font-size="14.00" fill="#000000">created_at </text>
<text text-anchor="start" x="584.028" y="-333.9" font-family="Arial" font-size="14.00" fill="#666666">[datetime]</text>
<polygon fill="none" stroke="#000000" points="507,-292.5 507,-322.5 668,-322.5 668,-292.5 507,-292.5"/>
<text text-anchor="start" x="514" y="-303.9" font-family="Arial" font-size="14.00" fill="#000000">updated_at </text>
<text text-anchor="start" x="587.9326" y="-303.9" font-family="Arial" font-size="14.00" fill="#666666">[datetime]</text>
<polygon fill="none" stroke="#000000" stroke-width="3" points="505,-291.5 505,-539.5 669,-539.5 669,-291.5 505,-291.5"/>
</g>
<!-- users -->
<g id="node6" class="node">
<title>users</title>
<polygon fill="#efefef" stroke="transparent" points="510,-132.5 510,-167.5 665,-167.5 665,-132.5 510,-132.5"/>
<polygon fill="none" stroke="#000000" points="510,-132.5 510,-167.5 665,-167.5 665,-132.5 510,-132.5"/>
<text text-anchor="start" x="516.8708" y="-145.3" font-family="Arial Bold" font-size="18.00" fill="#000000">users</text>
<text text-anchor="start" x="560.8754" y="-145.3" font-family="Arial" font-size="14.00" fill="#000000"> </text>
<text text-anchor="start" x="564.766" y="-145.3" font-family="Arial" font-size="14.00" fill="#666666">[BASE TABLE]</text>
<polygon fill="none" stroke="#000000" points="510,-102.5 510,-132.5 665,-132.5 665,-102.5 510,-102.5"/>
<text text-anchor="start" x="517" y="-113.9" font-family="Arial" font-size="14.00" fill="#000000">id </text>
<text text-anchor="start" x="531.7798" y="-113.9" font-family="Arial" font-size="14.00" fill="#666666">[char(36)]</text>
<polygon fill="none" stroke="#000000" points="510,-72.5 510,-102.5 665,-102.5 665,-72.5 510,-72.5"/>
<text text-anchor="start" x="517" y="-83.9" font-family="Arial" font-size="14.00" fill="#000000">name </text>
<text text-anchor="start" x="555.899" y="-83.9" font-family="Arial" font-size="14.00" fill="#666666">[varchar(32)]</text>
<polygon fill="none" stroke="#000000" points="510,-42.5 510,-72.5 665,-72.5 665,-42.5 510,-42.5"/>
<text text-anchor="start" x="517" y="-53.9" font-family="Arial" font-size="14.00" fill="#000000">icon_file_id </text>
<text text-anchor="start" x="590.9032" y="-53.9" font-family="Arial" font-size="14.00" fill="#666666">[char(36)]</text>
</g>
<!-- heyas&#45;&gt;users -->
<g id="edge5" class="edge">
<title>heyas:creator_id&#45;&gt;users:id</title>
<path fill="none" stroke="#000000" d="M496.733,-396.839C382.8157,-381.8652 389.0729,-117.5 510,-117.5"/>
<polygon fill="#000000" stroke="#000000" points="497.0207,-396.8574 506.7108,-401.9907 502.0103,-397.1787 507,-397.5 507,-397.5 507,-397.5 502.0103,-397.1787 507.2892,-393.0093 497.0207,-396.8574 497.0207,-396.8574"/>
<text text-anchor="start" x="263.1115" y="-407.5" font-family="Arial" font-size="10.00" fill="#000000">FOREIGN KEY (creator_id) REFERENCES users (id)</text>
</g>
<!-- heyas&#45;&gt;users -->
<g id="edge6" class="edge">
<title>heyas:last_editor_id&#45;&gt;users:id</title>
<path fill="none" stroke="#000000" d="M496.9167,-366.7828C396.174,-352.1191 402.3534,-117.5 510,-117.5"/>
<polygon fill="#000000" stroke="#000000" points="497.0252,-366.7905 506.6807,-371.9887 502.0126,-367.1452 507,-367.5 507,-367.5 507,-367.5 502.0126,-367.1452 507.3193,-363.0113 497.0252,-366.7905 497.0252,-366.7905"/>
<text text-anchor="start" x="247.6085" y="-377.5" font-family="Arial" font-size="10.00" fill="#000000">FOREIGN KEY (last_editor_id) REFERENCES users (id)</text>
</g>
<!-- favorites -->
<g id="node2" class="node">
<title>favorites</title>
<polygon fill="#efefef" stroke="transparent" points="65,-857.5 65,-892.5 244,-892.5 244,-857.5 65,-857.5"/>
<polygon fill="none" stroke="#000000" points="65,-857.5 65,-892.5 244,-892.5 244,-857.5 65,-857.5"/>
<text text-anchor="start" x="71.8684" y="-870.3" font-family="Arial Bold" font-size="18.00" fill="#000000">favorites</text>
<text text-anchor="start" x="139.8778" y="-870.3" font-family="Arial" font-size="14.00" fill="#000000"> </text>
<text text-anchor="start" x="143.7684" y="-870.3" font-family="Arial" font-size="14.00" fill="#666666">[BASE TABLE]</text>
<polygon fill="none" stroke="#000000" points="65,-827.5 65,-857.5 244,-857.5 244,-827.5 65,-827.5"/>
<text text-anchor="start" x="72" y="-838.9" font-family="Arial" font-size="14.00" fill="#000000">user_id </text>
<text text-anchor="start" x="121.7882" y="-838.9" font-family="Arial" font-size="14.00" fill="#666666">[char(36)]</text>
<polygon fill="none" stroke="#000000" points="65,-797.5 65,-827.5 244,-827.5 244,-797.5 65,-797.5"/>
<text text-anchor="start" x="72" y="-808.9" font-family="Arial" font-size="14.00" fill="#000000">heya_id </text>
<text text-anchor="start" x="124.9102" y="-808.9" font-family="Arial" font-size="14.00" fill="#666666">[char(36)]</text>
</g>
<!-- favorites&#45;&gt;heyas -->
<g id="edge1" class="edge">
<title>favorites:heya_id&#45;&gt;heyas:id</title>
<path fill="none" stroke="#000000" d="M254.0115,-811.8998C325.3602,-802.6358 244.6125,-688.3023 295,-620 360.9616,-530.5864 395.8887,-487.5 507,-487.5"/>
<polygon fill="#000000" stroke="#000000" points="253.9821,-811.9014 243.7306,-808.0081 248.991,-812.2007 244,-812.5 244,-812.5 244,-812.5 248.991,-812.2007 244.2694,-816.9919 253.9821,-811.9014 253.9821,-811.9014"/>
<text text-anchor="start" x="6.715" y="-822.5" font-family="Arial" font-size="10.00" fill="#000000">FOREIGN KEY (heya_id) REFERENCES heyas (id)</text>
</g>
<!-- hiqidashis -->
<g id="node3" class="node">
<title>hiqidashis</title>
<polygon fill="#efefef" stroke="transparent" points="348,-992.5 348,-1027.5 539,-1027.5 539,-992.5 348,-992.5"/>
<polygon fill="none" stroke="#000000" points="348,-992.5 348,-1027.5 539,-1027.5 539,-992.5 348,-992.5"/>
<text text-anchor="start" x="354.8663" y="-1005.3" font-family="Arial Bold" font-size="18.00" fill="#000000">hiqidashis</text>
<text text-anchor="start" x="434.8799" y="-1005.3" font-family="Arial" font-size="14.00" fill="#000000"> </text>
<text text-anchor="start" x="438.7705" y="-1005.3" font-family="Arial" font-size="14.00" fill="#666666">[BASE TABLE]</text>
<polygon fill="none" stroke="#000000" points="348,-962.5 348,-992.5 539,-992.5 539,-962.5 348,-962.5"/>
<text text-anchor="start" x="355" y="-973.9" font-family="Arial" font-size="14.00" fill="#000000">id </text>
<text text-anchor="start" x="369.7798" y="-973.9" font-family="Arial" font-size="14.00" fill="#666666">[char(36)]</text>
<polygon fill="none" stroke="#000000" points="348,-932.5 348,-962.5 539,-962.5 539,-932.5 348,-932.5"/>
<text text-anchor="start" x="355" y="-943.9" font-family="Arial" font-size="14.00" fill="#000000">heya_id </text>
<text text-anchor="start" x="407.9102" y="-943.9" font-family="Arial" font-size="14.00" fill="#666666">[char(36)]</text>
<polygon fill="none" stroke="#000000" points="348,-902.5 348,-932.5 539,-932.5 539,-902.5 348,-902.5"/>
<text text-anchor="start" x="355" y="-913.9" font-family="Arial" font-size="14.00" fill="#000000">creator_id </text>
<text text-anchor="start" x="421.122" y="-913.9" font-family="Arial" font-size="14.00" fill="#666666">[char(36)]</text>
<polygon fill="none" stroke="#000000" points="348,-872.5 348,-902.5 539,-902.5 539,-872.5 348,-872.5"/>
<text text-anchor="start" x="355" y="-883.9" font-family="Arial" font-size="14.00" fill="#000000">last_editor_id </text>
<text text-anchor="start" x="442.1304" y="-883.9" font-family="Arial" font-size="14.00" fill="#666666">[char(36)]</text>
<polygon fill="none" stroke="#000000" points="348,-842.5 348,-872.5 539,-872.5 539,-842.5 348,-842.5"/>
<text text-anchor="start" x="355" y="-853.9" font-family="Arial" font-size="14.00" fill="#000000">parent_id </text>
<text text-anchor="start" x="417.244" y="-853.9" font-family="Arial" font-size="14.00" fill="#666666">[char(36)]</text>
<polygon fill="none" stroke="#000000" points="348,-812.5 348,-842.5 539,-842.5 539,-812.5 348,-812.5"/>
<text text-anchor="start" x="355" y="-823.9" font-family="Arial" font-size="14.00" fill="#000000">title </text>
<text text-anchor="start" x="380.6676" y="-823.9" font-family="Arial" font-size="14.00" fill="#666666">[char(50)]</text>
<polygon fill="none" stroke="#000000" points="348,-782.5 348,-812.5 539,-812.5 539,-782.5 348,-782.5"/>
<text text-anchor="start" x="355" y="-793.9" font-family="Arial" font-size="14.00" fill="#000000">description </text>
<text text-anchor="start" x="426.568" y="-793.9" font-family="Arial" font-size="14.00" fill="#666666">[text]</text>
<polygon fill="none" stroke="#000000" points="348,-752.5 348,-782.5 539,-782.5 539,-752.5 348,-752.5"/>
<text text-anchor="start" x="355" y="-763.9" font-family="Arial" font-size="14.00" fill="#000000">drawing </text>
<text text-anchor="start" x="407.8948" y="-763.9" font-family="Arial" font-size="14.00" fill="#666666">[text]</text>
<polygon fill="none" stroke="#000000" points="348,-722.5 348,-752.5 539,-752.5 539,-722.5 348,-722.5"/>
<text text-anchor="start" x="355" y="-733.9" font-family="Arial" font-size="14.00" fill="#000000">color_code </text>
<text text-anchor="start" x="427.3534" y="-733.9" font-family="Arial" font-size="14.00" fill="#666666">[char(7)]</text>
<polygon fill="none" stroke="#000000" points="348,-692.5 348,-722.5 539,-722.5 539,-692.5 348,-692.5"/>
<text text-anchor="start" x="355" y="-703.9" font-family="Arial" font-size="14.00" fill="#000000">created_at </text>
<text text-anchor="start" x="425.028" y="-703.9" font-family="Arial" font-size="14.00" fill="#666666">[datetime]</text>
<polygon fill="none" stroke="#000000" points="348,-662.5 348,-692.5 539,-692.5 539,-662.5 348,-662.5"/>
<text text-anchor="start" x="355" y="-673.9" font-family="Arial" font-size="14.00" fill="#000000">updated_at </text>
<text text-anchor="start" x="428.9326" y="-673.9" font-family="Arial" font-size="14.00" fill="#666666">[datetime]</text>
</g>
<!-- hiqidashis&#45;&gt;heyas -->
<g id="edge2" class="edge">
<title>hiqidashis:heya_id&#45;&gt;heyas:id</title>
<path fill="none" stroke="#000000" d="M549.1797,-945.5517C607.0674,-921.641 563.5504,-684.5725 539,-620 531.3923,-599.9902 514.6077,-604.0098 507,-584 491.7581,-543.9108 464.1111,-487.5 507,-487.5"/>
<polygon fill="#000000" stroke="#000000" points="548.8217,-945.6201 538.1541,-943.0802 543.9109,-946.5601 539,-947.5 539,-947.5 539,-947.5 543.9109,-946.5601 539.8459,-951.9198 548.8217,-945.6201 548.8217,-945.6201"/>
<text text-anchor="start" x="545.715" y="-957.5" font-family="Arial" font-size="10.00" fill="#000000">FOREIGN KEY (heya_id) REFERENCES heyas (id)</text>
</g>
<!-- histories -->
<g id="node4" class="node">
<title>histories</title>
<polygon fill="#efefef" stroke="transparent" points="643,-857.5 643,-892.5 821,-892.5 821,-857.5 643,-857.5"/>
<polygon fill="none" stroke="#000000" points="643,-857.5 643,-892.5 821,-892.5 821,-857.5 643,-857.5"/>
<text text-anchor="start" x="649.8724" y="-870.3" font-family="Arial Bold" font-size="18.00" fill="#000000">histories</text>
<text text-anchor="start" x="716.8738" y="-870.3" font-family="Arial" font-size="14.00" fill="#000000"> </text>
<text text-anchor="start" x="720.7644" y="-870.3" font-family="Arial" font-size="14.00" fill="#666666">[BASE TABLE]</text>
<polygon fill="none" stroke="#000000" points="643,-827.5 643,-857.5 821,-857.5 821,-827.5 643,-827.5"/>
<text text-anchor="start" x="650" y="-838.9" font-family="Arial" font-size="14.00" fill="#000000">user_id </text>
<text text-anchor="start" x="699.7882" y="-838.9" font-family="Arial" font-size="14.00" fill="#666666">[char(36)]</text>
<polygon fill="none" stroke="#000000" points="643,-797.5 643,-827.5 821,-827.5 821,-797.5 643,-797.5"/>
<text text-anchor="start" x="650" y="-808.9" font-family="Arial" font-size="14.00" fill="#000000">heya_id </text>
<text text-anchor="start" x="702.9102" y="-808.9" font-family="Arial" font-size="14.00" fill="#666666">[char(36)]</text>
</g>
<!-- histories&#45;&gt;heyas -->
<g id="edge3" class="edge">
<title>histories:heya_id&#45;&gt;heyas:id</title>
<path fill="none" stroke="#000000" d="M632.8388,-811.8821C513.8155,-796.2056 809.1928,-487.5 668,-487.5"/>
<polygon fill="#000000" stroke="#000000" points="633.0184,-811.8929 642.7268,-816.9917 638.0092,-812.1965 643,-812.5 643,-812.5 643,-812.5 638.0092,-812.1965 643.2732,-808.0083 633.0184,-811.8929 633.0184,-811.8929"/>
<text text-anchor="start" x="588.715" y="-796.5" font-family="Arial" font-size="10.00" fill="#000000">FOREIGN KEY (heya_id) REFERENCES heyas (id)</text>
</g>
<!-- tsunas -->
<g id="node5" class="node">
<title>tsunas</title>
<polygon fill="#efefef" stroke="transparent" points="925,-887.5 925,-922.5 1107,-922.5 1107,-887.5 925,-887.5"/>
<polygon fill="none" stroke="#000000" points="925,-887.5 925,-922.5 1107,-922.5 1107,-887.5 925,-887.5"/>
<text text-anchor="start" x="940.8627" y="-900.3" font-family="Arial Bold" font-size="18.00" fill="#000000">tsunas</text>
<text text-anchor="start" x="993.8835" y="-900.3" font-family="Arial" font-size="14.00" fill="#000000"> </text>
<text text-anchor="start" x="997.7741" y="-900.3" font-family="Arial" font-size="14.00" fill="#666666">[BASE TABLE]</text>
<polygon fill="none" stroke="#000000" points="925,-857.5 925,-887.5 1107,-887.5 1107,-857.5 925,-857.5"/>
<text text-anchor="start" x="932" y="-868.9" font-family="Arial" font-size="14.00" fill="#000000">id </text>
<text text-anchor="start" x="946.7798" y="-868.9" font-family="Arial" font-size="14.00" fill="#666666">[char(36)]</text>
<polygon fill="none" stroke="#000000" points="925,-827.5 925,-857.5 1107,-857.5 1107,-827.5 925,-827.5"/>
<text text-anchor="start" x="932" y="-838.9" font-family="Arial" font-size="14.00" fill="#000000">heya_id </text>
<text text-anchor="start" x="984.9102" y="-838.9" font-family="Arial" font-size="14.00" fill="#666666">[char(36)]</text>
<polygon fill="none" stroke="#000000" points="925,-797.5 925,-827.5 1107,-827.5 1107,-797.5 925,-797.5"/>
<text text-anchor="start" x="931.5905" y="-808.9" font-family="Arial" font-size="14.00" fill="#000000">hiqidashi_one_id </text>
<text text-anchor="start" x="1040.5161" y="-808.9" font-family="Arial" font-size="14.00" fill="#666666">[char(36)]</text>
<polygon fill="none" stroke="#000000" points="925,-767.5 925,-797.5 1107,-797.5 1107,-767.5 925,-767.5"/>
<text text-anchor="start" x="932" y="-778.9" font-family="Arial" font-size="14.00" fill="#000000">hiqidashi_two_id </text>
<text text-anchor="start" x="1039.3576" y="-778.9" font-family="Arial" font-size="14.00" fill="#666666">[char(36)]</text>
</g>
<!-- tsunas&#45;&gt;heyas -->
<g id="edge4" class="edge">
<title>tsunas:heya_id&#45;&gt;heyas:id</title>
<path fill="none" stroke="#000000" d="M914.7948,-841.963C831.0341,-832.4959 929.3385,-700.0455 873,-620 810.5597,-531.285 776.4856,-487.5 668,-487.5"/>
<polygon fill="#000000" stroke="#000000" points="915.0138,-841.9745 924.7635,-846.9938 920.0069,-842.2372 925,-842.5 925,-842.5 925,-842.5 920.0069,-842.2372 925.2365,-838.0062 915.0138,-841.9745 915.0138,-841.9745"/>
<text text-anchor="start" x="931.715" y="-852.5" font-family="Arial" font-size="10.00" fill="#000000">FOREIGN KEY (heya_id) REFERENCES heyas (id)</text>
</g>
</g>
</svg>
