<?xml version="1.0" encoding="UTF-8" standalone="no"?>
<!DOCTYPE svg PUBLIC "-//W3C//DTD SVG 1.1//EN"
 "http://www.w3.org/Graphics/SVG/1.1/DTD/svg11.dtd">
<!-- Generated by graphviz version 2.40.1 (20161225.0304)
 -->
<!-- Title: hiqidashis Pages: 1 -->
<svg width="671pt" height="1109pt"
 viewBox="0.00 0.00 670.92 1109.00" xmlns="http://www.w3.org/2000/svg" xmlns:xlink="http://www.w3.org/1999/xlink">
<g id="graph0" class="graph" transform="scale(1 1) rotate(0) translate(4 1105)">
<title>hiqidashis</title>
<polygon fill="#ffffff" stroke="transparent" points="-4,4 -4,-1105 666.9158,-1105 666.9158,4 -4,4"/>
<!-- hiqidashis -->
<g id="node1" class="node">
<title>hiqidashis</title>
<polygon fill="#efefef" stroke="transparent" points="297,-742.5 297,-777.5 488,-777.5 488,-742.5 297,-742.5"/>
<polygon fill="none" stroke="#000000" points="297,-742.5 297,-777.5 488,-777.5 488,-742.5 297,-742.5"/>
<text text-anchor="start" x="303.8663" y="-755.3" font-family="Arial Bold" font-size="18.00" fill="#000000">hiqidashis</text>
<text text-anchor="start" x="383.8799" y="-755.3" font-family="Arial" font-size="14.00" fill="#000000"> </text>
<text text-anchor="start" x="387.7705" y="-755.3" font-family="Arial" font-size="14.00" fill="#666666">[BASE TABLE]</text>
<polygon fill="none" stroke="#000000" points="297,-712.5 297,-742.5 488,-742.5 488,-712.5 297,-712.5"/>
<text text-anchor="start" x="304" y="-723.9" font-family="Arial" font-size="14.00" fill="#000000">id </text>
<text text-anchor="start" x="318.7798" y="-723.9" font-family="Arial" font-size="14.00" fill="#666666">[char(36)]</text>
<polygon fill="none" stroke="#000000" points="297,-682.5 297,-712.5 488,-712.5 488,-682.5 297,-682.5"/>
<text text-anchor="start" x="304" y="-693.9" font-family="Arial" font-size="14.00" fill="#000000">heya_id </text>
<text text-anchor="start" x="356.9102" y="-693.9" font-family="Arial" font-size="14.00" fill="#666666">[char(36)]</text>
<polygon fill="none" stroke="#000000" points="297,-652.5 297,-682.5 488,-682.5 488,-652.5 297,-652.5"/>
<text text-anchor="start" x="304" y="-663.9" font-family="Arial" font-size="14.00" fill="#000000">creator_id </text>
<text text-anchor="start" x="370.122" y="-663.9" font-family="Arial" font-size="14.00" fill="#666666">[char(36)]</text>
<polygon fill="none" stroke="#000000" points="297,-622.5 297,-652.5 488,-652.5 488,-622.5 297,-622.5"/>
<text text-anchor="start" x="304" y="-633.9" font-family="Arial" font-size="14.00" fill="#000000">last_editor_id </text>
<text text-anchor="start" x="391.1304" y="-633.9" font-family="Arial" font-size="14.00" fill="#666666">[char(36)]</text>
<polygon fill="none" stroke="#000000" points="297,-592.5 297,-622.5 488,-622.5 488,-592.5 297,-592.5"/>
<text text-anchor="start" x="304" y="-603.9" font-family="Arial" font-size="14.00" fill="#000000">parent_id </text>
<text text-anchor="start" x="366.244" y="-603.9" font-family="Arial" font-size="14.00" fill="#666666">[char(36)]</text>
<polygon fill="none" stroke="#000000" points="297,-562.5 297,-592.5 488,-592.5 488,-562.5 297,-562.5"/>
<text text-anchor="start" x="304" y="-573.9" font-family="Arial" font-size="14.00" fill="#000000">title </text>
<text text-anchor="start" x="329.6676" y="-573.9" font-family="Arial" font-size="14.00" fill="#666666">[char(50)]</text>
<polygon fill="none" stroke="#000000" points="297,-532.5 297,-562.5 488,-562.5 488,-532.5 297,-532.5"/>
<text text-anchor="start" x="304" y="-543.9" font-family="Arial" font-size="14.00" fill="#000000">description </text>
<text text-anchor="start" x="375.568" y="-543.9" font-family="Arial" font-size="14.00" fill="#666666">[text]</text>
<polygon fill="none" stroke="#000000" points="297,-502.5 297,-532.5 488,-532.5 488,-502.5 297,-502.5"/>
<text text-anchor="start" x="304" y="-513.9" font-family="Arial" font-size="14.00" fill="#000000">drawing </text>
<text text-anchor="start" x="356.8948" y="-513.9" font-family="Arial" font-size="14.00" fill="#666666">[text]</text>
<polygon fill="none" stroke="#000000" points="297,-472.5 297,-502.5 488,-502.5 488,-472.5 297,-472.5"/>
<text text-anchor="start" x="304" y="-483.9" font-family="Arial" font-size="14.00" fill="#000000">color_code </text>
<text text-anchor="start" x="376.3534" y="-483.9" font-family="Arial" font-size="14.00" fill="#666666">[char(7)]</text>
<polygon fill="none" stroke="#000000" points="297,-442.5 297,-472.5 488,-472.5 488,-442.5 297,-442.5"/>
<text text-anchor="start" x="304" y="-453.9" font-family="Arial" font-size="14.00" fill="#000000">created_at </text>
<text text-anchor="start" x="374.028" y="-453.9" font-family="Arial" font-size="14.00" fill="#666666">[datetime]</text>
<polygon fill="none" stroke="#000000" points="297,-412.5 297,-442.5 488,-442.5 488,-412.5 297,-412.5"/>
<text text-anchor="start" x="304" y="-423.9" font-family="Arial" font-size="14.00" fill="#000000">updated_at </text>
<text text-anchor="start" x="377.9326" y="-423.9" font-family="Arial" font-size="14.00" fill="#666666">[datetime]</text>
<polygon fill="none" stroke="#000000" stroke-width="3" points="295,-411.5 295,-779.5 489,-779.5 489,-411.5 295,-411.5"/>
</g>
<!-- hiqidashis&#45;&gt;hiqidashis -->
<g id="edge1" class="edge">
<title>hiqidashis:parent_id&#45;&gt;hiqidashis:id</title>
<path fill="none" stroke="#000000" d="M394.4697,-632.999C401.97,-777.7743 401.4801,-1016 393,-1016 384.3252,-1016 384.0118,-878.1924 392.0597,-742.7185"/>
<polygon fill="#000000" stroke="#000000" points="394.4551,-632.7267 398.4093,-622.4986 394.1855,-627.7339 393.9158,-622.7412 393.9158,-622.7412 393.9158,-622.7412 394.1855,-627.7339 389.4224,-622.9839 394.4551,-632.7267 394.4551,-632.7267"/>
<text text-anchor="start" x="401.4098" y="-632.7412" font-family="Arial" font-size="10.00" fill="#000000">FOREIGN KEY (parent_id) REFERENCES hiqidashis (id)</text>
</g>
<!-- heyas -->
<g id="node3" class="node">
<title>heyas</title>
<polygon fill="#efefef" stroke="transparent" points="50,-252.5 50,-287.5 211,-287.5 211,-252.5 50,-252.5"/>
<polygon fill="none" stroke="#000000" points="50,-252.5 50,-287.5 211,-287.5 211,-252.5 50,-252.5"/>
<text text-anchor="start" x="57.8638" y="-265.3" font-family="Arial Bold" font-size="18.00" fill="#000000">heyas</text>
<text text-anchor="start" x="105.8824" y="-265.3" font-family="Arial" font-size="14.00" fill="#000000"> </text>
<text text-anchor="start" x="109.773" y="-265.3" font-family="Arial" font-size="14.00" fill="#666666">[BASE TABLE]</text>
<polygon fill="none" stroke="#000000" points="50,-222.5 50,-252.5 211,-252.5 211,-222.5 50,-222.5"/>
<text text-anchor="start" x="57" y="-233.9" font-family="Arial" font-size="14.00" fill="#000000">id </text>
<text text-anchor="start" x="71.7798" y="-233.9" font-family="Arial" font-size="14.00" fill="#666666">[char(36)]</text>
<polygon fill="none" stroke="#000000" points="50,-192.5 50,-222.5 211,-222.5 211,-192.5 50,-192.5"/>
<text text-anchor="start" x="57" y="-203.9" font-family="Arial" font-size="14.00" fill="#000000">title </text>
<text text-anchor="start" x="82.6676" y="-203.9" font-family="Arial" font-size="14.00" fill="#666666">[char(50)]</text>
<polygon fill="none" stroke="#000000" points="50,-162.5 50,-192.5 211,-192.5 211,-162.5 50,-162.5"/>
<text text-anchor="start" x="57" y="-173.9" font-family="Arial" font-size="14.00" fill="#000000">description </text>
<text text-anchor="start" x="128.568" y="-173.9" font-family="Arial" font-size="14.00" fill="#666666">[text]</text>
<polygon fill="none" stroke="#000000" points="50,-132.5 50,-162.5 211,-162.5 211,-132.5 50,-132.5"/>
<text text-anchor="start" x="57" y="-143.9" font-family="Arial" font-size="14.00" fill="#000000">creator_id </text>
<text text-anchor="start" x="123.122" y="-143.9" font-family="Arial" font-size="14.00" fill="#666666">[char(36)]</text>
<polygon fill="none" stroke="#000000" points="50,-102.5 50,-132.5 211,-132.5 211,-102.5 50,-102.5"/>
<text text-anchor="start" x="56.9881" y="-113.9" font-family="Arial" font-size="14.00" fill="#000000">last_editor_id </text>
<text text-anchor="start" x="144.1185" y="-113.9" font-family="Arial" font-size="14.00" fill="#666666">[char(36)]</text>
<polygon fill="none" stroke="#000000" points="50,-72.5 50,-102.5 211,-102.5 211,-72.5 50,-72.5"/>
<text text-anchor="start" x="57" y="-83.9" font-family="Arial" font-size="14.00" fill="#000000">created_at </text>
<text text-anchor="start" x="127.028" y="-83.9" font-family="Arial" font-size="14.00" fill="#666666">[datetime]</text>
<polygon fill="none" stroke="#000000" points="50,-42.5 50,-72.5 211,-72.5 211,-42.5 50,-42.5"/>
<text text-anchor="start" x="57" y="-53.9" font-family="Arial" font-size="14.00" fill="#000000">updated_at </text>
<text text-anchor="start" x="130.9326" y="-53.9" font-family="Arial" font-size="14.00" fill="#666666">[datetime]</text>
</g>
<!-- hiqidashis&#45;&gt;heyas -->
<g id="edge4" class="edge">
<title>hiqidashis:heya_id&#45;&gt;heyas:id</title>
<path fill="none" stroke="#000000" d="M287.1106,-695.9245C201.0816,-666.5921 311.4389,-237.5 211,-237.5"/>
<polygon fill="#000000" stroke="#000000" points="287.1245,-695.9267 296.292,-701.944 292.0623,-696.7133 297,-697.5 297,-697.5 297,-697.5 292.0623,-696.7133 297.708,-693.056 287.1245,-695.9267 287.1245,-695.9267"/>
<text text-anchor="start" x="59.715" y="-707.5" font-family="Arial" font-size="10.00" fill="#000000">FOREIGN KEY (heya_id) REFERENCES heyas (id)</text>
</g>
<!-- users -->
<g id="node4" class="node">
<title>users</title>
<polygon fill="#efefef" stroke="transparent" points="315,-192.5 315,-227.5 470,-227.5 470,-192.5 315,-192.5"/>
<polygon fill="none" stroke="#000000" points="315,-192.5 315,-227.5 470,-227.5 470,-192.5 315,-192.5"/>
<text text-anchor="start" x="321.8708" y="-205.3" font-family="Arial Bold" font-size="18.00" fill="#000000">users</text>
<text text-anchor="start" x="365.8754" y="-205.3" font-family="Arial" font-size="14.00" fill="#000000"> </text>
<text text-anchor="start" x="369.766" y="-205.3" font-family="Arial" font-size="14.00" fill="#666666">[BASE TABLE]</text>
<polygon fill="none" stroke="#000000" points="315,-162.5 315,-192.5 470,-192.5 470,-162.5 315,-162.5"/>
<text text-anchor="start" x="322" y="-173.9" font-family="Arial" font-size="14.00" fill="#000000">id </text>
<text text-anchor="start" x="336.7798" y="-173.9" font-family="Arial" font-size="14.00" fill="#666666">[char(36)]</text>
<polygon fill="none" stroke="#000000" points="315,-132.5 315,-162.5 470,-162.5 470,-132.5 315,-132.5"/>
<text text-anchor="start" x="322" y="-143.9" font-family="Arial" font-size="14.00" fill="#000000">name </text>
<text text-anchor="start" x="360.899" y="-143.9" font-family="Arial" font-size="14.00" fill="#666666">[varchar(32)]</text>
<polygon fill="none" stroke="#000000" points="315,-102.5 315,-132.5 470,-132.5 470,-102.5 315,-102.5"/>
<text text-anchor="start" x="322" y="-113.9" font-family="Arial" font-size="14.00" fill="#000000">icon_file_id </text>
<text text-anchor="start" x="395.9032" y="-113.9" font-family="Arial" font-size="14.00" fill="#666666">[char(36)]</text>
</g>
<!-- hiqidashis&#45;&gt;users -->
<g id="edge5" class="edge">
<title>hiqidashis:creator_id&#45;&gt;users:id</title>
<path fill="none" stroke="#000000" d="M288.1625,-662.6503C244.7535,-611.7604 263.7111,-177.5 315,-177.5"/>
<polygon fill="#000000" stroke="#000000" points="288.2333,-662.6891 294.8351,-671.445 292.6166,-665.0945 297,-667.5 297,-667.5 297,-667.5 292.6166,-665.0945 299.1649,-663.555 288.2333,-662.6891 288.2333,-662.6891"/>
<text text-anchor="start" x="53.1115" y="-677.5" font-family="Arial" font-size="10.00" fill="#000000">FOREIGN KEY (creator_id) REFERENCES users (id)</text>
</g>
<!-- hiqidashis&#45;&gt;users -->
<g id="edge6" class="edge">
<title>hiqidashis:last_editor_id&#45;&gt;users:id</title>
<path fill="none" stroke="#000000" d="M288.2109,-632.334C248.2293,-581.7969 267.0467,-177.5 315,-177.5"/>
<polygon fill="#000000" stroke="#000000" points="288.3789,-632.4327 294.7197,-641.3795 292.6895,-634.9663 297,-637.5 297,-637.5 297,-637.5 292.6895,-634.9663 299.2803,-633.6205 288.3789,-632.4327 288.3789,-632.4327"/>
<text text-anchor="start" x="37.6085" y="-647.5" font-family="Arial" font-size="10.00" fill="#000000">FOREIGN KEY (last_editor_id) REFERENCES users (id)</text>
</g>
<!-- tsunas -->
<g id="node2" class="node">
<title>tsunas</title>
<polygon fill="#efefef" stroke="transparent" points="302,-1022.5 302,-1057.5 484,-1057.5 484,-1022.5 302,-1022.5"/>
<polygon fill="none" stroke="#000000" points="302,-1022.5 302,-1057.5 484,-1057.5 484,-1022.5 302,-1022.5"/>
<text text-anchor="start" x="317.8627" y="-1035.3" font-family="Arial Bold" font-size="18.00" fill="#000000">tsunas</text>
<text text-anchor="start" x="370.8835" y="-1035.3" font-family="Arial" font-size="14.00" fill="#000000"> </text>
<text text-anchor="start" x="374.7741" y="-1035.3" font-family="Arial" font-size="14.00" fill="#666666">[BASE TABLE]</text>
<polygon fill="none" stroke="#000000" points="302,-992.5 302,-1022.5 484,-1022.5 484,-992.5 302,-992.5"/>
<text text-anchor="start" x="309" y="-1003.9" font-family="Arial" font-size="14.00" fill="#000000">id </text>
<text text-anchor="start" x="323.7798" y="-1003.9" font-family="Arial" font-size="14.00" fill="#666666">[char(36)]</text>
<polygon fill="none" stroke="#000000" points="302,-962.5 302,-992.5 484,-992.5 484,-962.5 302,-962.5"/>
<text text-anchor="start" x="309" y="-973.9" font-family="Arial" font-size="14.00" fill="#000000">heya_id </text>
<text text-anchor="start" x="361.9102" y="-973.9" font-family="Arial" font-size="14.00" fill="#666666">[char(36)]</text>
<polygon fill="none" stroke="#000000" points="302,-932.5 302,-962.5 484,-962.5 484,-932.5 302,-932.5"/>
<text text-anchor="start" x="308.5905" y="-943.9" font-family="Arial" font-size="14.00" fill="#000000">hiqidashi_one_id </text>
<text text-anchor="start" x="417.5161" y="-943.9" font-family="Arial" font-size="14.00" fill="#666666">[char(36)]</text>
<polygon fill="none" stroke="#000000" points="302,-902.5 302,-932.5 484,-932.5 484,-902.5 302,-902.5"/>
<text text-anchor="start" x="309" y="-913.9" font-family="Arial" font-size="14.00" fill="#000000">hiqidashi_two_id </text>
<text text-anchor="start" x="416.3576" y="-913.9" font-family="Arial" font-size="14.00" fill="#666666">[char(36)]</text>
</g>
<!-- tsunas&#45;&gt;hiqidashis -->
<g id="edge2" class="edge">
<title>tsunas:hiqidashi_one_id&#45;&gt;hiqidashis:id</title>
<path fill="none" stroke="#000000" d="M292.0844,-945.934C265.9741,-936.5314 279.6684,-887.0682 302,-860 355.5843,-795.0501 434.4157,-888.9499 488,-824 515.294,-790.9168 530.8889,-727.5 488,-727.5"/>
<polygon fill="#000000" stroke="#000000" points="292.1224,-945.9399 301.298,-951.9449 297.0612,-946.72 302,-947.5 302,-947.5 302,-947.5 297.0612,-946.72 302.702,-943.0551 292.1224,-945.9399 292.1224,-945.9399"/>
<text text-anchor="start" x="6.822" y="-957.5" font-family="Arial" font-size="10.00" fill="#000000">FOREIGN KEY (hiqidashi_one_id) REFERENCES hiqidashis (id)</text>
</g>
<!-- tsunas&#45;&gt;hiqidashis -->
<g id="edge3" class="edge">
<title>tsunas:hiqidashi_two_id&#45;&gt;hiqidashis:id</title>
<path fill="none" stroke="#000000" d="M393.9663,-892.3476C402.5721,-850.9066 466.2604,-870.165 488,-824 506.2722,-785.1982 530.8889,-727.5 488,-727.5"/>
<polygon fill="#000000" stroke="#000000" points="393.9476,-892.545 388.5202,-902.0736 393.4738,-897.5225 393,-902.5 393,-902.5 393,-902.5 393.4738,-897.5225 397.4798,-902.9264 393.9476,-892.545 393.9476,-892.545"/>
<text text-anchor="start" x="99.382" y="-912.5" font-family="Arial" font-size="10.00" fill="#000000">FOREIGN KEY (hiqidashi_two_id) REFERENCES hiqidashis (id)</text>
</g>
</g>
</svg>
