<?xml version="1.0" encoding="UTF-8" standalone="no"?>
<!DOCTYPE svg PUBLIC "-//W3C//DTD SVG 1.1//EN"
 "http://www.w3.org/Graphics/SVG/1.1/DTD/svg11.dtd">
<!-- Generated by graphviz version 2.40.1 (20161225.0304)
 -->
<!-- Title: histories Pages: 1 -->
<svg width="670pt" height="562pt"
 viewBox="0.00 0.00 670.00 562.00" xmlns="http://www.w3.org/2000/svg" xmlns:xlink="http://www.w3.org/1999/xlink">
<g id="graph0" class="graph" transform="scale(1 1) rotate(0) translate(4 558)">
<title>histories</title>
<polygon fill="#ffffff" stroke="transparent" points="-4,4 -4,-558 666,-558 666,4 -4,4"/>
<!-- histories -->
<g id="node1" class="node">
<title>histories</title>
<polygon fill="#efefef" stroke="transparent" points="240,-472.5 240,-507.5 418,-507.5 418,-472.5 240,-472.5"/>
<polygon fill="none" stroke="#000000" points="240,-472.5 240,-507.5 418,-507.5 418,-472.5 240,-472.5"/>
<text text-anchor="start" x="246.8724" y="-485.3" font-family="Arial Bold" font-size="18.00" fill="#000000">histories</text>
<text text-anchor="start" x="313.8738" y="-485.3" font-family="Arial" font-size="14.00" fill="#000000"> </text>
<text text-anchor="start" x="317.7644" y="-485.3" font-family="Arial" font-size="14.00" fill="#666666">[BASE TABLE]</text>
<polygon fill="none" stroke="#000000" points="240,-442.5 240,-472.5 418,-472.5 418,-442.5 240,-442.5"/>
<text text-anchor="start" x="247" y="-453.9" font-family="Arial" font-size="14.00" fill="#000000">user_id </text>
<text text-anchor="start" x="296.7882" y="-453.9" font-family="Arial" font-size="14.00" fill="#666666">[char(36)]</text>
<polygon fill="none" stroke="#000000" points="240,-412.5 240,-442.5 418,-442.5 418,-412.5 240,-412.5"/>
<text text-anchor="start" x="247" y="-423.9" font-family="Arial" font-size="14.00" fill="#000000">heya_id </text>
<text text-anchor="start" x="299.9102" y="-423.9" font-family="Arial" font-size="14.00" fill="#666666">[char(36)]</text>
<polygon fill="none" stroke="#000000" stroke-width="3" points="238.5,-411.5 238.5,-509.5 419.5,-509.5 419.5,-411.5 238.5,-411.5"/>
</g>
<!-- users -->
<g id="node2" class="node">
<title>users</title>
<polygon fill="#efefef" stroke="transparent" points="120,-192.5 120,-227.5 275,-227.5 275,-192.5 120,-192.5"/>
<polygon fill="none" stroke="#000000" points="120,-192.5 120,-227.5 275,-227.5 275,-192.5 120,-192.5"/>
<text text-anchor="start" x="126.8708" y="-205.3" font-family="Arial Bold" font-size="18.00" fill="#000000">users</text>
<text text-anchor="start" x="170.8754" y="-205.3" font-family="Arial" font-size="14.00" fill="#000000"> </text>
<text text-anchor="start" x="174.766" y="-205.3" font-family="Arial" font-size="14.00" fill="#666666">[BASE TABLE]</text>
<polygon fill="none" stroke="#000000" points="120,-162.5 120,-192.5 275,-192.5 275,-162.5 120,-162.5"/>
<text text-anchor="start" x="127" y="-173.9" font-family="Arial" font-size="14.00" fill="#000000">id </text>
<text text-anchor="start" x="141.7798" y="-173.9" font-family="Arial" font-size="14.00" fill="#666666">[char(36)]</text>
<polygon fill="none" stroke="#000000" points="120,-132.5 120,-162.5 275,-162.5 275,-132.5 120,-132.5"/>
<text text-anchor="start" x="127" y="-143.9" font-family="Arial" font-size="14.00" fill="#000000">name </text>
<text text-anchor="start" x="165.899" y="-143.9" font-family="Arial" font-size="14.00" fill="#666666">[varchar(32)]</text>
<polygon fill="none" stroke="#000000" points="120,-102.5 120,-132.5 275,-132.5 275,-102.5 120,-102.5"/>
<text text-anchor="start" x="127" y="-113.9" font-family="Arial" font-size="14.00" fill="#000000">icon_file_id </text>
<text text-anchor="start" x="200.9032" y="-113.9" font-family="Arial" font-size="14.00" fill="#666666">[char(36)]</text>
</g>
<!-- histories&#45;&gt;users -->
<g id="edge1" class="edge">
<title>histories:user_id&#45;&gt;users:id</title>
<path fill="none" stroke="#000000" d="M230.0156,-456.7931C130.9817,-441.3341 396.7387,-177.5 275,-177.5"/>
<polygon fill="#000000" stroke="#000000" points="230.025,-456.7937 239.6822,-461.9888 235.0125,-457.1468 240,-457.5 240,-457.5 240,-457.5 235.0125,-457.1468 240.3178,-453.0112 230.025,-456.7937 230.025,-456.7937"/>
<text text-anchor="start" x="6.945" y="-467.5" font-family="Arial" font-size="10.00" fill="#000000">FOREIGN KEY (user_id) REFERENCES users (id)</text>
</g>
<!-- heyas -->
<g id="node3" class="node">
<title>heyas</title>
<polygon fill="#efefef" stroke="transparent" points="379,-252.5 379,-287.5 540,-287.5 540,-252.5 379,-252.5"/>
<polygon fill="none" stroke="#000000" points="379,-252.5 379,-287.5 540,-287.5 540,-252.5 379,-252.5"/>
<text text-anchor="start" x="386.8638" y="-265.3" font-family="Arial Bold" font-size="18.00" fill="#000000">heyas</text>
<text text-anchor="start" x="434.8824" y="-265.3" font-family="Arial" font-size="14.00" fill="#000000"> </text>
<text text-anchor="start" x="438.773" y="-265.3" font-family="Arial" font-size="14.00" fill="#666666">[BASE TABLE]</text>
<polygon fill="none" stroke="#000000" points="379,-222.5 379,-252.5 540,-252.5 540,-222.5 379,-222.5"/>
<text text-anchor="start" x="386" y="-233.9" font-family="Arial" font-size="14.00" fill="#000000">id </text>
<text text-anchor="start" x="400.7798" y="-233.9" font-family="Arial" font-size="14.00" fill="#666666">[char(36)]</text>
<polygon fill="none" stroke="#000000" points="379,-192.5 379,-222.5 540,-222.5 540,-192.5 379,-192.5"/>
<text text-anchor="start" x="386" y="-203.9" font-family="Arial" font-size="14.00" fill="#000000">title </text>
<text text-anchor="start" x="411.6676" y="-203.9" font-family="Arial" font-size="14.00" fill="#666666">[char(50)]</text>
<polygon fill="none" stroke="#000000" points="379,-162.5 379,-192.5 540,-192.5 540,-162.5 379,-162.5"/>
<text text-anchor="start" x="386" y="-173.9" font-family="Arial" font-size="14.00" fill="#000000">description </text>
<text text-anchor="start" x="457.568" y="-173.9" font-family="Arial" font-size="14.00" fill="#666666">[text]</text>
<polygon fill="none" stroke="#000000" points="379,-132.5 379,-162.5 540,-162.5 540,-132.5 379,-132.5"/>
<text text-anchor="start" x="386" y="-143.9" font-family="Arial" font-size="14.00" fill="#000000">creator_id </text>
<text text-anchor="start" x="452.122" y="-143.9" font-family="Arial" font-size="14.00" fill="#666666">[char(36)]</text>
<polygon fill="none" stroke="#000000" points="379,-102.5 379,-132.5 540,-132.5 540,-102.5 379,-102.5"/>
<text text-anchor="start" x="385.9881" y="-113.9" font-family="Arial" font-size="14.00" fill="#000000">last_editor_id </text>
<text text-anchor="start" x="473.1185" y="-113.9" font-family="Arial" font-size="14.00" fill="#666666">[char(36)]</text>
<polygon fill="none" stroke="#000000" points="379,-72.5 379,-102.5 540,-102.5 540,-72.5 379,-72.5"/>
<text text-anchor="start" x="386" y="-83.9" font-family="Arial" font-size="14.00" fill="#000000">created_at </text>
<text text-anchor="start" x="456.028" y="-83.9" font-family="Arial" font-size="14.00" fill="#666666">[datetime]</text>
<polygon fill="none" stroke="#000000" points="379,-42.5 379,-72.5 540,-72.5 540,-42.5 379,-42.5"/>
<text text-anchor="start" x="386" y="-53.9" font-family="Arial" font-size="14.00" fill="#000000">updated_at </text>
<text text-anchor="start" x="459.9326" y="-53.9" font-family="Arial" font-size="14.00" fill="#666666">[datetime]</text>
</g>
<!-- histories&#45;&gt;heyas -->
<g id="edge2" class="edge">
<title>histories:heya_id&#45;&gt;heyas:id</title>
<path fill="none" stroke="#000000" d="M427.976,-424.8117C439.7478,-416.0331 427.0151,-387.5904 418,-367 408.539,-345.3913 388.461,-352.6087 379,-331 362.3332,-292.9332 337.4444,-237.5 379,-237.5"/>
<polygon fill="#000000" stroke="#000000" points="427.6556,-424.8979 416.8291,-423.155 422.8278,-426.199 418,-427.5 418,-427.5 418,-427.5 422.8278,-426.199 419.1709,-431.845 427.6556,-424.8979 427.6556,-424.8979"/>
<text text-anchor="start" x="424.715" y="-437.5" font-family="Arial" font-size="10.00" fill="#000000">FOREIGN KEY (heya_id) REFERENCES heyas (id)</text>
</g>
</g>
</svg>
