<?xml version="1.0" encoding="UTF-8" standalone="no"?>
<!DOCTYPE svg PUBLIC "-//W3C//DTD SVG 1.1//EN"
 "http://www.w3.org/Graphics/SVG/1.1/DTD/svg11.dtd">
<!-- Generated by graphviz version 2.40.1 (20161225.0304)
 -->
<!-- Title: HiQidas Pages: 1 -->
<svg width="1360pt" height="459pt"
 viewBox="0.00 0.00 1360.00 459.00" xmlns="http://www.w3.org/2000/svg" xmlns:xlink="http://www.w3.org/1999/xlink">
<g id="graph0" class="graph" transform="scale(1 1) rotate(0) translate(4 455)">
<title>HiQidas</title>
<polygon fill="#ffffff" stroke="transparent" points="-4,4 -4,-455 1356,-455 1356,4 -4,4"/>
<!-- heyas -->
<g id="node1" class="node">
<title>heyas</title>
<polygon fill="#efefef" stroke="transparent" points="43.5,-327.5 43.5,-362.5 204.5,-362.5 204.5,-327.5 43.5,-327.5"/>
<polygon fill="none" stroke="#000000" points="43.5,-327.5 43.5,-362.5 204.5,-362.5 204.5,-327.5 43.5,-327.5"/>
<text text-anchor="start" x="51.3638" y="-340.3" font-family="Arial Bold" font-size="18.00" fill="#000000">heyas</text>
<text text-anchor="start" x="99.3824" y="-340.3" font-family="Arial" font-size="14.00" fill="#000000"> </text>
<text text-anchor="start" x="103.273" y="-340.3" font-family="Arial" font-size="14.00" fill="#666666">[BASE TABLE]</text>
<polygon fill="none" stroke="#000000" points="43.5,-297.5 43.5,-327.5 204.5,-327.5 204.5,-297.5 43.5,-297.5"/>
<text text-anchor="start" x="50.5" y="-308.9" font-family="Arial" font-size="14.00" fill="#000000">id </text>
<text text-anchor="start" x="65.2798" y="-308.9" font-family="Arial" font-size="14.00" fill="#666666">[char(36)]</text>
<polygon fill="none" stroke="#000000" points="43.5,-267.5 43.5,-297.5 204.5,-297.5 204.5,-267.5 43.5,-267.5"/>
<text text-anchor="start" x="50.5" y="-278.9" font-family="Arial" font-size="14.00" fill="#000000">title </text>
<text text-anchor="start" x="76.1676" y="-278.9" font-family="Arial" font-size="14.00" fill="#666666">[char(50)]</text>
<polygon fill="none" stroke="#000000" points="43.5,-237.5 43.5,-267.5 204.5,-267.5 204.5,-237.5 43.5,-237.5"/>
<text text-anchor="start" x="50.5" y="-248.9" font-family="Arial" font-size="14.00" fill="#000000">description </text>
<text text-anchor="start" x="122.068" y="-248.9" font-family="Arial" font-size="14.00" fill="#666666">[text]</text>
<polygon fill="none" stroke="#000000" points="43.5,-207.5 43.5,-237.5 204.5,-237.5 204.5,-207.5 43.5,-207.5"/>
<text text-anchor="start" x="50.5" y="-218.9" font-family="Arial" font-size="14.00" fill="#000000">creator_id </text>
<text text-anchor="start" x="116.622" y="-218.9" font-family="Arial" font-size="14.00" fill="#666666">[char(36)]</text>
<polygon fill="none" stroke="#000000" points="43.5,-177.5 43.5,-207.5 204.5,-207.5 204.5,-177.5 43.5,-177.5"/>
<text text-anchor="start" x="50.4881" y="-188.9" font-family="Arial" font-size="14.00" fill="#000000">last_editor_id </text>
<text text-anchor="start" x="137.6185" y="-188.9" font-family="Arial" font-size="14.00" fill="#666666">[char(36)]</text>
<polygon fill="none" stroke="#000000" points="43.5,-147.5 43.5,-177.5 204.5,-177.5 204.5,-147.5 43.5,-147.5"/>
<text text-anchor="start" x="50.5" y="-158.9" font-family="Arial" font-size="14.00" fill="#000000">created_at </text>
<text text-anchor="start" x="120.528" y="-158.9" font-family="Arial" font-size="14.00" fill="#666666">[datetime]</text>
<polygon fill="none" stroke="#000000" points="43.5,-117.5 43.5,-147.5 204.5,-147.5 204.5,-117.5 43.5,-117.5"/>
<text text-anchor="start" x="50.5" y="-128.9" font-family="Arial" font-size="14.00" fill="#000000">updated_at </text>
<text text-anchor="start" x="124.4326" y="-128.9" font-family="Arial" font-size="14.00" fill="#666666">[datetime]</text>
<polygon fill="none" stroke="#000000" points="43.5,-87.5 43.5,-117.5 204.5,-117.5 204.5,-87.5 43.5,-87.5"/>
<text text-anchor="start" x="50.5" y="-98.9" font-family="Arial" font-size="14.00" fill="#000000">deleted </text>
<text text-anchor="start" x="100.3008" y="-98.9" font-family="Arial" font-size="14.00" fill="#666666">[tinyint(1)]</text>
</g>
<!-- hiqidashis -->
<g id="node2" class="node">
<title>hiqidashis</title>
<polygon fill="#efefef" stroke="transparent" points="308.5,-372.5 308.5,-407.5 499.5,-407.5 499.5,-372.5 308.5,-372.5"/>
<polygon fill="none" stroke="#000000" points="308.5,-372.5 308.5,-407.5 499.5,-407.5 499.5,-372.5 308.5,-372.5"/>
<text text-anchor="start" x="315.3663" y="-385.3" font-family="Arial Bold" font-size="18.00" fill="#000000">hiqidashis</text>
<text text-anchor="start" x="395.3799" y="-385.3" font-family="Arial" font-size="14.00" fill="#000000"> </text>
<text text-anchor="start" x="399.2705" y="-385.3" font-family="Arial" font-size="14.00" fill="#666666">[BASE TABLE]</text>
<polygon fill="none" stroke="#000000" points="308.5,-342.5 308.5,-372.5 499.5,-372.5 499.5,-342.5 308.5,-342.5"/>
<text text-anchor="start" x="315.5" y="-353.9" font-family="Arial" font-size="14.00" fill="#000000">id </text>
<text text-anchor="start" x="330.2798" y="-353.9" font-family="Arial" font-size="14.00" fill="#666666">[char(36)]</text>
<polygon fill="none" stroke="#000000" points="308.5,-312.5 308.5,-342.5 499.5,-342.5 499.5,-312.5 308.5,-312.5"/>
<text text-anchor="start" x="315.5" y="-323.9" font-family="Arial" font-size="14.00" fill="#000000">heya_id </text>
<text text-anchor="start" x="368.4102" y="-323.9" font-family="Arial" font-size="14.00" fill="#666666">[char(36)]</text>
<polygon fill="none" stroke="#000000" points="308.5,-282.5 308.5,-312.5 499.5,-312.5 499.5,-282.5 308.5,-282.5"/>
<text text-anchor="start" x="315.5" y="-293.9" font-family="Arial" font-size="14.00" fill="#000000">creator_id </text>
<text text-anchor="start" x="381.622" y="-293.9" font-family="Arial" font-size="14.00" fill="#666666">[char(36)]</text>
<polygon fill="none" stroke="#000000" points="308.5,-252.5 308.5,-282.5 499.5,-282.5 499.5,-252.5 308.5,-252.5"/>
<text text-anchor="start" x="315.5" y="-263.9" font-family="Arial" font-size="14.00" fill="#000000">last_editor_id </text>
<text text-anchor="start" x="402.6304" y="-263.9" font-family="Arial" font-size="14.00" fill="#666666">[char(36)]</text>
<polygon fill="none" stroke="#000000" points="308.5,-222.5 308.5,-252.5 499.5,-252.5 499.5,-222.5 308.5,-222.5"/>
<text text-anchor="start" x="315.5" y="-233.9" font-family="Arial" font-size="14.00" fill="#000000">parent_id </text>
<text text-anchor="start" x="377.744" y="-233.9" font-family="Arial" font-size="14.00" fill="#666666">[char(36)]</text>
<polygon fill="none" stroke="#000000" points="308.5,-192.5 308.5,-222.5 499.5,-222.5 499.5,-192.5 308.5,-192.5"/>
<text text-anchor="start" x="315.5" y="-203.9" font-family="Arial" font-size="14.00" fill="#000000">title </text>
<text text-anchor="start" x="341.1676" y="-203.9" font-family="Arial" font-size="14.00" fill="#666666">[char(50)]</text>
<polygon fill="none" stroke="#000000" points="308.5,-162.5 308.5,-192.5 499.5,-192.5 499.5,-162.5 308.5,-162.5"/>
<text text-anchor="start" x="315.5" y="-173.9" font-family="Arial" font-size="14.00" fill="#000000">description </text>
<text text-anchor="start" x="387.068" y="-173.9" font-family="Arial" font-size="14.00" fill="#666666">[text]</text>
<polygon fill="none" stroke="#000000" points="308.5,-132.5 308.5,-162.5 499.5,-162.5 499.5,-132.5 308.5,-132.5"/>
<text text-anchor="start" x="315.5" y="-143.9" font-family="Arial" font-size="14.00" fill="#000000">drawing </text>
<text text-anchor="start" x="368.3948" y="-143.9" font-family="Arial" font-size="14.00" fill="#666666">[text]</text>
<polygon fill="none" stroke="#000000" points="308.5,-102.5 308.5,-132.5 499.5,-132.5 499.5,-102.5 308.5,-102.5"/>
<text text-anchor="start" x="315.5" y="-113.9" font-family="Arial" font-size="14.00" fill="#000000">color_id </text>
<text text-anchor="start" x="368.3948" y="-113.9" font-family="Arial" font-size="14.00" fill="#666666">[tinyint(3) unsigned]</text>
<polygon fill="none" stroke="#000000" points="308.5,-72.5 308.5,-102.5 499.5,-102.5 499.5,-72.5 308.5,-72.5"/>
<text text-anchor="start" x="315.5" y="-83.9" font-family="Arial" font-size="14.00" fill="#000000">created_at </text>
<text text-anchor="start" x="385.528" y="-83.9" font-family="Arial" font-size="14.00" fill="#666666">[datetime]</text>
<polygon fill="none" stroke="#000000" points="308.5,-42.5 308.5,-72.5 499.5,-72.5 499.5,-42.5 308.5,-42.5"/>
<text text-anchor="start" x="315.5" y="-53.9" font-family="Arial" font-size="14.00" fill="#000000">updated_at </text>
<text text-anchor="start" x="389.4326" y="-53.9" font-family="Arial" font-size="14.00" fill="#666666">[datetime]</text>
</g>
<!-- histories -->
<g id="node3" class="node">
<title>histories</title>
<polygon fill="#efefef" stroke="transparent" points="603.5,-237.5 603.5,-272.5 781.5,-272.5 781.5,-237.5 603.5,-237.5"/>
<polygon fill="none" stroke="#000000" points="603.5,-237.5 603.5,-272.5 781.5,-272.5 781.5,-237.5 603.5,-237.5"/>
<text text-anchor="start" x="610.3724" y="-250.3" font-family="Arial Bold" font-size="18.00" fill="#000000">histories</text>
<text text-anchor="start" x="677.3738" y="-250.3" font-family="Arial" font-size="14.00" fill="#000000"> </text>
<text text-anchor="start" x="681.2644" y="-250.3" font-family="Arial" font-size="14.00" fill="#666666">[BASE TABLE]</text>
<polygon fill="none" stroke="#000000" points="603.5,-207.5 603.5,-237.5 781.5,-237.5 781.5,-207.5 603.5,-207.5"/>
<text text-anchor="start" x="610.5" y="-218.9" font-family="Arial" font-size="14.00" fill="#000000">user_id </text>
<text text-anchor="start" x="660.2882" y="-218.9" font-family="Arial" font-size="14.00" fill="#666666">[char(36)]</text>
<polygon fill="none" stroke="#000000" points="603.5,-177.5 603.5,-207.5 781.5,-207.5 781.5,-177.5 603.5,-177.5"/>
<text text-anchor="start" x="610.5" y="-188.9" font-family="Arial" font-size="14.00" fill="#000000">heya_id </text>
<text text-anchor="start" x="663.4102" y="-188.9" font-family="Arial" font-size="14.00" fill="#666666">[char(36)]</text>
</g>
<!-- tsunas -->
<g id="node4" class="node">
<title>tsunas</title>
<polygon fill="#efefef" stroke="transparent" points="885.5,-267.5 885.5,-302.5 1049.5,-302.5 1049.5,-267.5 885.5,-267.5"/>
<polygon fill="none" stroke="#000000" points="885.5,-267.5 885.5,-302.5 1049.5,-302.5 1049.5,-267.5 885.5,-267.5"/>
<text text-anchor="start" x="892.3627" y="-280.3" font-family="Arial Bold" font-size="18.00" fill="#000000">tsunas</text>
<text text-anchor="start" x="945.3835" y="-280.3" font-family="Arial" font-size="14.00" fill="#000000"> </text>
<text text-anchor="start" x="949.2741" y="-280.3" font-family="Arial" font-size="14.00" fill="#666666">[BASE TABLE]</text>
<polygon fill="none" stroke="#000000" points="885.5,-237.5 885.5,-267.5 1049.5,-267.5 1049.5,-237.5 885.5,-237.5"/>
<text text-anchor="start" x="892.5" y="-248.9" font-family="Arial" font-size="14.00" fill="#000000">id </text>
<text text-anchor="start" x="907.2798" y="-248.9" font-family="Arial" font-size="14.00" fill="#666666">[char(36)]</text>
<polygon fill="none" stroke="#000000" points="885.5,-207.5 885.5,-237.5 1049.5,-237.5 1049.5,-207.5 885.5,-207.5"/>
<text text-anchor="start" x="892.5" y="-218.9" font-family="Arial" font-size="14.00" fill="#000000">heya_id </text>
<text text-anchor="start" x="945.4102" y="-218.9" font-family="Arial" font-size="14.00" fill="#666666">[char(36)]</text>
<polygon fill="none" stroke="#000000" points="885.5,-177.5 885.5,-207.5 1049.5,-207.5 1049.5,-177.5 885.5,-177.5"/>
<text text-anchor="start" x="892.4264" y="-188.9" font-family="Arial" font-size="14.00" fill="#000000">hiqidashi_one </text>
<text text-anchor="start" x="982.6802" y="-188.9" font-family="Arial" font-size="14.00" fill="#666666">[char(36)]</text>
<polygon fill="none" stroke="#000000" points="885.5,-147.5 885.5,-177.5 1049.5,-177.5 1049.5,-147.5 885.5,-147.5"/>
<text text-anchor="start" x="892.5" y="-158.9" font-family="Arial" font-size="14.00" fill="#000000">hiqidashi_two </text>
<text text-anchor="start" x="981.1858" y="-158.9" font-family="Arial" font-size="14.00" fill="#666666">[char(36)]</text>
</g>
<!-- users -->
<g id="node5" class="node">
<title>users</title>
<polygon fill="#efefef" stroke="transparent" points="1154.5,-252.5 1154.5,-287.5 1309.5,-287.5 1309.5,-252.5 1154.5,-252.5"/>
<polygon fill="none" stroke="#000000" points="1154.5,-252.5 1154.5,-287.5 1309.5,-287.5 1309.5,-252.5 1154.5,-252.5"/>
<text text-anchor="start" x="1161.3708" y="-265.3" font-family="Arial Bold" font-size="18.00" fill="#000000">users</text>
<text text-anchor="start" x="1205.3754" y="-265.3" font-family="Arial" font-size="14.00" fill="#000000"> </text>
<text text-anchor="start" x="1209.266" y="-265.3" font-family="Arial" font-size="14.00" fill="#666666">[BASE TABLE]</text>
<polygon fill="none" stroke="#000000" points="1154.5,-222.5 1154.5,-252.5 1309.5,-252.5 1309.5,-222.5 1154.5,-222.5"/>
<text text-anchor="start" x="1161.5" y="-233.9" font-family="Arial" font-size="14.00" fill="#000000">id </text>
<text text-anchor="start" x="1176.2798" y="-233.9" font-family="Arial" font-size="14.00" fill="#666666">[char(36)]</text>
<polygon fill="none" stroke="#000000" points="1154.5,-192.5 1154.5,-222.5 1309.5,-222.5 1309.5,-192.5 1154.5,-192.5"/>
<text text-anchor="start" x="1161.5" y="-203.9" font-family="Arial" font-size="14.00" fill="#000000">name </text>
<text text-anchor="start" x="1200.399" y="-203.9" font-family="Arial" font-size="14.00" fill="#666666">[varchar(32)]</text>
<polygon fill="none" stroke="#000000" points="1154.5,-162.5 1154.5,-192.5 1309.5,-192.5 1309.5,-162.5 1154.5,-162.5"/>
<text text-anchor="start" x="1161.5" y="-173.9" font-family="Arial" font-size="14.00" fill="#000000">icon_file_id </text>
<text text-anchor="start" x="1235.4032" y="-173.9" font-family="Arial" font-size="14.00" fill="#666666">[char(36)]</text>
</g>
</g>
</svg>
