<?xml version="1.0" encoding="UTF-8" standalone="no"?>
<!DOCTYPE svg PUBLIC "-//W3C//DTD SVG 1.1//EN"
 "http://www.w3.org/Graphics/SVG/1.1/DTD/svg11.dtd">
<!-- Generated by graphviz version 2.40.1 (20161225.0304)
 -->
<!-- Title: HiQidas Pages: 1 -->
<svg width="1384pt" height="706pt"
 viewBox="0.00 0.00 1383.50 706.00" xmlns="http://www.w3.org/2000/svg" xmlns:xlink="http://www.w3.org/1999/xlink">
<g id="graph0" class="graph" transform="scale(1 1) rotate(0) translate(4 702)">
<title>HiQidas</title>
<polygon fill="#ffffff" stroke="transparent" points="-4,4 -4,-702 1379.5,-702 1379.5,4 -4,4"/>
<!-- favorites -->
<g id="node1" class="node">
<title>favorites</title>
<polygon fill="#efefef" stroke="transparent" points="43.5,-484.5 43.5,-519.5 222.5,-519.5 222.5,-484.5 43.5,-484.5"/>
<polygon fill="none" stroke="#000000" points="43.5,-484.5 43.5,-519.5 222.5,-519.5 222.5,-484.5 43.5,-484.5"/>
<text text-anchor="start" x="50.3684" y="-497.3" font-family="Arial Bold" font-size="18.00" fill="#000000">favorites</text>
<text text-anchor="start" x="118.3778" y="-497.3" font-family="Arial" font-size="14.00" fill="#000000"> </text>
<text text-anchor="start" x="122.2684" y="-497.3" font-family="Arial" font-size="14.00" fill="#666666">[BASE TABLE]</text>
<polygon fill="none" stroke="#000000" points="43.5,-454.5 43.5,-484.5 222.5,-484.5 222.5,-454.5 43.5,-454.5"/>
<text text-anchor="start" x="50.5" y="-465.9" font-family="Arial" font-size="14.00" fill="#000000">user_id </text>
<text text-anchor="start" x="100.2882" y="-465.9" font-family="Arial" font-size="14.00" fill="#666666">[char(36)]</text>
<polygon fill="none" stroke="#000000" points="43.5,-424.5 43.5,-454.5 222.5,-454.5 222.5,-424.5 43.5,-424.5"/>
<text text-anchor="start" x="50.5" y="-435.9" font-family="Arial" font-size="14.00" fill="#000000">heya_id </text>
<text text-anchor="start" x="103.4102" y="-435.9" font-family="Arial" font-size="14.00" fill="#666666">[char(36)]</text>
</g>
<!-- heyas -->
<g id="node2" class="node">
<title>heyas</title>
<polygon fill="#efefef" stroke="transparent" points="326.5,-559.5 326.5,-594.5 487.5,-594.5 487.5,-559.5 326.5,-559.5"/>
<polygon fill="none" stroke="#000000" points="326.5,-559.5 326.5,-594.5 487.5,-594.5 487.5,-559.5 326.5,-559.5"/>
<text text-anchor="start" x="334.3638" y="-572.3" font-family="Arial Bold" font-size="18.00" fill="#000000">heyas</text>
<text text-anchor="start" x="382.3824" y="-572.3" font-family="Arial" font-size="14.00" fill="#000000"> </text>
<text text-anchor="start" x="386.273" y="-572.3" font-family="Arial" font-size="14.00" fill="#666666">[BASE TABLE]</text>
<polygon fill="none" stroke="#000000" points="326.5,-529.5 326.5,-559.5 487.5,-559.5 487.5,-529.5 326.5,-529.5"/>
<text text-anchor="start" x="333.5" y="-540.9" font-family="Arial" font-size="14.00" fill="#000000">id </text>
<text text-anchor="start" x="348.2798" y="-540.9" font-family="Arial" font-size="14.00" fill="#666666">[char(36)]</text>
<polygon fill="none" stroke="#000000" points="326.5,-499.5 326.5,-529.5 487.5,-529.5 487.5,-499.5 326.5,-499.5"/>
<text text-anchor="start" x="333.5" y="-510.9" font-family="Arial" font-size="14.00" fill="#000000">title </text>
<text text-anchor="start" x="359.1676" y="-510.9" font-family="Arial" font-size="14.00" fill="#666666">[char(50)]</text>
<polygon fill="none" stroke="#000000" points="326.5,-469.5 326.5,-499.5 487.5,-499.5 487.5,-469.5 326.5,-469.5"/>
<text text-anchor="start" x="333.5" y="-480.9" font-family="Arial" font-size="14.00" fill="#000000">description </text>
<text text-anchor="start" x="405.068" y="-480.9" font-family="Arial" font-size="14.00" fill="#666666">[text]</text>
<polygon fill="none" stroke="#000000" points="326.5,-439.5 326.5,-469.5 487.5,-469.5 487.5,-439.5 326.5,-439.5"/>
<text text-anchor="start" x="333.5" y="-450.9" font-family="Arial" font-size="14.00" fill="#000000">creator_id </text>
<text text-anchor="start" x="399.622" y="-450.9" font-family="Arial" font-size="14.00" fill="#666666">[char(36)]</text>
<polygon fill="none" stroke="#000000" points="326.5,-409.5 326.5,-439.5 487.5,-439.5 487.5,-409.5 326.5,-409.5"/>
<text text-anchor="start" x="333.4881" y="-420.9" font-family="Arial" font-size="14.00" fill="#000000">last_editor_id </text>
<text text-anchor="start" x="420.6185" y="-420.9" font-family="Arial" font-size="14.00" fill="#666666">[char(36)]</text>
<polygon fill="none" stroke="#000000" points="326.5,-379.5 326.5,-409.5 487.5,-409.5 487.5,-379.5 326.5,-379.5"/>
<text text-anchor="start" x="333.5" y="-390.9" font-family="Arial" font-size="14.00" fill="#000000">created_at </text>
<text text-anchor="start" x="403.528" y="-390.9" font-family="Arial" font-size="14.00" fill="#666666">[datetime]</text>
<polygon fill="none" stroke="#000000" points="326.5,-349.5 326.5,-379.5 487.5,-379.5 487.5,-349.5 326.5,-349.5"/>
<text text-anchor="start" x="333.5" y="-360.9" font-family="Arial" font-size="14.00" fill="#000000">updated_at </text>
<text text-anchor="start" x="407.4326" y="-360.9" font-family="Arial" font-size="14.00" fill="#666666">[datetime]</text>
</g>
<!-- users -->
<g id="node6" class="node">
<title>users</title>
<polygon fill="#efefef" stroke="transparent" points="329.5,-132.5 329.5,-167.5 484.5,-167.5 484.5,-132.5 329.5,-132.5"/>
<polygon fill="none" stroke="#000000" points="329.5,-132.5 329.5,-167.5 484.5,-167.5 484.5,-132.5 329.5,-132.5"/>
<text text-anchor="start" x="336.3708" y="-145.3" font-family="Arial Bold" font-size="18.00" fill="#000000">users</text>
<text text-anchor="start" x="380.3754" y="-145.3" font-family="Arial" font-size="14.00" fill="#000000"> </text>
<text text-anchor="start" x="384.266" y="-145.3" font-family="Arial" font-size="14.00" fill="#666666">[BASE TABLE]</text>
<polygon fill="none" stroke="#000000" points="329.5,-102.5 329.5,-132.5 484.5,-132.5 484.5,-102.5 329.5,-102.5"/>
<text text-anchor="start" x="336.5" y="-113.9" font-family="Arial" font-size="14.00" fill="#000000">id </text>
<text text-anchor="start" x="351.2798" y="-113.9" font-family="Arial" font-size="14.00" fill="#666666">[char(36)]</text>
<polygon fill="none" stroke="#000000" points="329.5,-72.5 329.5,-102.5 484.5,-102.5 484.5,-72.5 329.5,-72.5"/>
<text text-anchor="start" x="336.5" y="-83.9" font-family="Arial" font-size="14.00" fill="#000000">name </text>
<text text-anchor="start" x="375.399" y="-83.9" font-family="Arial" font-size="14.00" fill="#666666">[varchar(32)]</text>
<polygon fill="none" stroke="#000000" points="329.5,-42.5 329.5,-72.5 484.5,-72.5 484.5,-42.5 329.5,-42.5"/>
<text text-anchor="start" x="336.5" y="-53.9" font-family="Arial" font-size="14.00" fill="#000000">icon_file_id </text>
<text text-anchor="start" x="410.4032" y="-53.9" font-family="Arial" font-size="14.00" fill="#666666">[char(36)]</text>
</g>
<!-- heyas&#45;&gt;users -->
<g id="edge1" class="edge">
<title>heyas:creator_id&#45;&gt;users:id</title>
<path fill="none" stroke="#000000" d="M318.2792,-448.3631C289.7554,-402.6884 295.0527,-117.5 329.5,-117.5"/>
<polygon fill="#000000" stroke="#000000" points="318.4866,-448.5179 323.808,-458.106 322.4933,-451.5089 326.5,-454.5 326.5,-454.5 326.5,-454.5 322.4933,-451.5089 329.192,-450.894 318.4866,-448.5179 318.4866,-448.5179"/>
<text text-anchor="start" x="82.6115" y="-464.5" font-family="Arial" font-size="10.00" fill="#000000">FOREIGN KEY (creator_id) REFERENCES users (id)</text>
</g>
<!-- hiqidashis -->
<g id="node3" class="node">
<title>hiqidashis</title>
<polygon fill="#efefef" stroke="transparent" points="591.5,-619.5 591.5,-654.5 782.5,-654.5 782.5,-619.5 591.5,-619.5"/>
<polygon fill="none" stroke="#000000" points="591.5,-619.5 591.5,-654.5 782.5,-654.5 782.5,-619.5 591.5,-619.5"/>
<text text-anchor="start" x="598.3663" y="-632.3" font-family="Arial Bold" font-size="18.00" fill="#000000">hiqidashis</text>
<text text-anchor="start" x="678.3799" y="-632.3" font-family="Arial" font-size="14.00" fill="#000000"> </text>
<text text-anchor="start" x="682.2705" y="-632.3" font-family="Arial" font-size="14.00" fill="#666666">[BASE TABLE]</text>
<polygon fill="none" stroke="#000000" points="591.5,-589.5 591.5,-619.5 782.5,-619.5 782.5,-589.5 591.5,-589.5"/>
<text text-anchor="start" x="598.5" y="-600.9" font-family="Arial" font-size="14.00" fill="#000000">id </text>
<text text-anchor="start" x="613.2798" y="-600.9" font-family="Arial" font-size="14.00" fill="#666666">[char(36)]</text>
<polygon fill="none" stroke="#000000" points="591.5,-559.5 591.5,-589.5 782.5,-589.5 782.5,-559.5 591.5,-559.5"/>
<text text-anchor="start" x="598.5" y="-570.9" font-family="Arial" font-size="14.00" fill="#000000">heya_id </text>
<text text-anchor="start" x="651.4102" y="-570.9" font-family="Arial" font-size="14.00" fill="#666666">[char(36)]</text>
<polygon fill="none" stroke="#000000" points="591.5,-529.5 591.5,-559.5 782.5,-559.5 782.5,-529.5 591.5,-529.5"/>
<text text-anchor="start" x="598.5" y="-540.9" font-family="Arial" font-size="14.00" fill="#000000">creator_id </text>
<text text-anchor="start" x="664.622" y="-540.9" font-family="Arial" font-size="14.00" fill="#666666">[char(36)]</text>
<polygon fill="none" stroke="#000000" points="591.5,-499.5 591.5,-529.5 782.5,-529.5 782.5,-499.5 591.5,-499.5"/>
<text text-anchor="start" x="598.5" y="-510.9" font-family="Arial" font-size="14.00" fill="#000000">last_editor_id </text>
<text text-anchor="start" x="685.6304" y="-510.9" font-family="Arial" font-size="14.00" fill="#666666">[char(36)]</text>
<polygon fill="none" stroke="#000000" points="591.5,-469.5 591.5,-499.5 782.5,-499.5 782.5,-469.5 591.5,-469.5"/>
<text text-anchor="start" x="598.5" y="-480.9" font-family="Arial" font-size="14.00" fill="#000000">parent_id </text>
<text text-anchor="start" x="660.744" y="-480.9" font-family="Arial" font-size="14.00" fill="#666666">[char(36)]</text>
<polygon fill="none" stroke="#000000" points="591.5,-439.5 591.5,-469.5 782.5,-469.5 782.5,-439.5 591.5,-439.5"/>
<text text-anchor="start" x="598.5" y="-450.9" font-family="Arial" font-size="14.00" fill="#000000">title </text>
<text text-anchor="start" x="624.1676" y="-450.9" font-family="Arial" font-size="14.00" fill="#666666">[char(50)]</text>
<polygon fill="none" stroke="#000000" points="591.5,-409.5 591.5,-439.5 782.5,-439.5 782.5,-409.5 591.5,-409.5"/>
<text text-anchor="start" x="598.5" y="-420.9" font-family="Arial" font-size="14.00" fill="#000000">description </text>
<text text-anchor="start" x="670.068" y="-420.9" font-family="Arial" font-size="14.00" fill="#666666">[text]</text>
<polygon fill="none" stroke="#000000" points="591.5,-379.5 591.5,-409.5 782.5,-409.5 782.5,-379.5 591.5,-379.5"/>
<text text-anchor="start" x="598.5" y="-390.9" font-family="Arial" font-size="14.00" fill="#000000">drawing </text>
<text text-anchor="start" x="651.3948" y="-390.9" font-family="Arial" font-size="14.00" fill="#666666">[text]</text>
<polygon fill="none" stroke="#000000" points="591.5,-349.5 591.5,-379.5 782.5,-379.5 782.5,-349.5 591.5,-349.5"/>
<text text-anchor="start" x="598.5" y="-360.9" font-family="Arial" font-size="14.00" fill="#000000">color_code </text>
<text text-anchor="start" x="670.8534" y="-360.9" font-family="Arial" font-size="14.00" fill="#666666">[char(7)]</text>
<polygon fill="none" stroke="#000000" points="591.5,-319.5 591.5,-349.5 782.5,-349.5 782.5,-319.5 591.5,-319.5"/>
<text text-anchor="start" x="598.5" y="-330.9" font-family="Arial" font-size="14.00" fill="#000000">created_at </text>
<text text-anchor="start" x="668.528" y="-330.9" font-family="Arial" font-size="14.00" fill="#666666">[datetime]</text>
<polygon fill="none" stroke="#000000" points="591.5,-289.5 591.5,-319.5 782.5,-319.5 782.5,-289.5 591.5,-289.5"/>
<text text-anchor="start" x="598.5" y="-300.9" font-family="Arial" font-size="14.00" fill="#000000">updated_at </text>
<text text-anchor="start" x="672.4326" y="-300.9" font-family="Arial" font-size="14.00" fill="#666666">[datetime]</text>
</g>
<!-- histories -->
<g id="node4" class="node">
<title>histories</title>
<polygon fill="#efefef" stroke="transparent" points="886.5,-484.5 886.5,-519.5 1064.5,-519.5 1064.5,-484.5 886.5,-484.5"/>
<polygon fill="none" stroke="#000000" points="886.5,-484.5 886.5,-519.5 1064.5,-519.5 1064.5,-484.5 886.5,-484.5"/>
<text text-anchor="start" x="893.3724" y="-497.3" font-family="Arial Bold" font-size="18.00" fill="#000000">histories</text>
<text text-anchor="start" x="960.3738" y="-497.3" font-family="Arial" font-size="14.00" fill="#000000"> </text>
<text text-anchor="start" x="964.2644" y="-497.3" font-family="Arial" font-size="14.00" fill="#666666">[BASE TABLE]</text>
<polygon fill="none" stroke="#000000" points="886.5,-454.5 886.5,-484.5 1064.5,-484.5 1064.5,-454.5 886.5,-454.5"/>
<text text-anchor="start" x="893.5" y="-465.9" font-family="Arial" font-size="14.00" fill="#000000">user_id </text>
<text text-anchor="start" x="943.2882" y="-465.9" font-family="Arial" font-size="14.00" fill="#666666">[char(36)]</text>
<polygon fill="none" stroke="#000000" points="886.5,-424.5 886.5,-454.5 1064.5,-454.5 1064.5,-424.5 886.5,-424.5"/>
<text text-anchor="start" x="893.5" y="-435.9" font-family="Arial" font-size="14.00" fill="#000000">heya_id </text>
<text text-anchor="start" x="946.4102" y="-435.9" font-family="Arial" font-size="14.00" fill="#666666">[char(36)]</text>
</g>
<!-- tsunas -->
<g id="node5" class="node">
<title>tsunas</title>
<polygon fill="#efefef" stroke="transparent" points="1168.5,-514.5 1168.5,-549.5 1332.5,-549.5 1332.5,-514.5 1168.5,-514.5"/>
<polygon fill="none" stroke="#000000" points="1168.5,-514.5 1168.5,-549.5 1332.5,-549.5 1332.5,-514.5 1168.5,-514.5"/>
<text text-anchor="start" x="1175.3627" y="-527.3" font-family="Arial Bold" font-size="18.00" fill="#000000">tsunas</text>
<text text-anchor="start" x="1228.3835" y="-527.3" font-family="Arial" font-size="14.00" fill="#000000"> </text>
<text text-anchor="start" x="1232.2741" y="-527.3" font-family="Arial" font-size="14.00" fill="#666666">[BASE TABLE]</text>
<polygon fill="none" stroke="#000000" points="1168.5,-484.5 1168.5,-514.5 1332.5,-514.5 1332.5,-484.5 1168.5,-484.5"/>
<text text-anchor="start" x="1175.5" y="-495.9" font-family="Arial" font-size="14.00" fill="#000000">id </text>
<text text-anchor="start" x="1190.2798" y="-495.9" font-family="Arial" font-size="14.00" fill="#666666">[char(36)]</text>
<polygon fill="none" stroke="#000000" points="1168.5,-454.5 1168.5,-484.5 1332.5,-484.5 1332.5,-454.5 1168.5,-454.5"/>
<text text-anchor="start" x="1175.5" y="-465.9" font-family="Arial" font-size="14.00" fill="#000000">heya_id </text>
<text text-anchor="start" x="1228.4102" y="-465.9" font-family="Arial" font-size="14.00" fill="#666666">[char(36)]</text>
<polygon fill="none" stroke="#000000" points="1168.5,-424.5 1168.5,-454.5 1332.5,-454.5 1332.5,-424.5 1168.5,-424.5"/>
<text text-anchor="start" x="1175.4264" y="-435.9" font-family="Arial" font-size="14.00" fill="#000000">hiqidashi_one </text>
<text text-anchor="start" x="1265.6802" y="-435.9" font-family="Arial" font-size="14.00" fill="#666666">[char(36)]</text>
<polygon fill="none" stroke="#000000" points="1168.5,-394.5 1168.5,-424.5 1332.5,-424.5 1332.5,-394.5 1168.5,-394.5"/>
<text text-anchor="start" x="1175.5" y="-405.9" font-family="Arial" font-size="14.00" fill="#000000">hiqidashi_two </text>
<text text-anchor="start" x="1264.1858" y="-405.9" font-family="Arial" font-size="14.00" fill="#666666">[char(36)]</text>
</g>
</g>
</svg>
