<?xml version="1.0" encoding="UTF-8" standalone="no"?>
<!DOCTYPE svg PUBLIC "-//W3C//DTD SVG 1.1//EN"
 "http://www.w3.org/Graphics/SVG/1.1/DTD/svg11.dtd">
<!-- Generated by graphviz version 2.40.1 (20161225.0304)
 -->
<!-- Title: HiQidas Pages: 1 -->
<svg width="910pt" height="1350pt"
 viewBox="0.00 0.00 910.00 1350.00" xmlns="http://www.w3.org/2000/svg" xmlns:xlink="http://www.w3.org/1999/xlink">
<g id="graph0" class="graph" transform="scale(1 1) rotate(0) translate(4 1346)">
<title>HiQidas</title>
<polygon fill="#ffffff" stroke="transparent" points="-4,4 -4,-1346 906,-1346 906,4 -4,4"/>
<!-- credentials -->
<g id="node1" class="node">
<title>credentials</title>
<polygon fill="#efefef" stroke="transparent" points="104,-439.5 104,-474.5 302,-474.5 302,-439.5 104,-439.5"/>
<polygon fill="none" stroke="#000000" points="104,-439.5 104,-474.5 302,-474.5 302,-439.5 104,-439.5"/>
<text text-anchor="start" x="110.8662" y="-452.3" font-family="Arial Bold" font-size="18.00" fill="#000000">credentials</text>
<text text-anchor="start" x="197.88" y="-452.3" font-family="Arial" font-size="14.00" fill="#000000"> </text>
<text text-anchor="start" x="201.7706" y="-452.3" font-family="Arial" font-size="14.00" fill="#666666">[BASE TABLE]</text>
<polygon fill="none" stroke="#000000" points="104,-409.5 104,-439.5 302,-439.5 302,-409.5 104,-409.5"/>
<text text-anchor="start" x="111" y="-420.9" font-family="Arial" font-size="14.00" fill="#000000">user_id </text>
<text text-anchor="start" x="160.7882" y="-420.9" font-family="Arial" font-size="14.00" fill="#666666">[char(36)]</text>
<polygon fill="none" stroke="#000000" points="104,-379.5 104,-409.5 302,-409.5 302,-379.5 104,-379.5"/>
<text text-anchor="start" x="111" y="-390.9" font-family="Arial" font-size="14.00" fill="#000000">mail_address </text>
<text text-anchor="start" x="198.1206" y="-390.9" font-family="Arial" font-size="14.00" fill="#666666">[varchar(254)]</text>
<polygon fill="none" stroke="#000000" points="104,-349.5 104,-379.5 302,-379.5 302,-349.5 104,-349.5"/>
<text text-anchor="start" x="111" y="-360.9" font-family="Arial" font-size="14.00" fill="#000000">hashed_pass </text>
<text text-anchor="start" x="198.1514" y="-360.9" font-family="Arial" font-size="14.00" fill="#666666">[varchar(32)]</text>
</g>
<!-- users -->
<g id="node7" class="node">
<title>users</title>
<polygon fill="#efefef" stroke="transparent" points="371,-132.5 371,-167.5 526,-167.5 526,-132.5 371,-132.5"/>
<polygon fill="none" stroke="#000000" points="371,-132.5 371,-167.5 526,-167.5 526,-132.5 371,-132.5"/>
<text text-anchor="start" x="377.8708" y="-145.3" font-family="Arial Bold" font-size="18.00" fill="#000000">users</text>
<text text-anchor="start" x="421.8754" y="-145.3" font-family="Arial" font-size="14.00" fill="#000000"> </text>
<text text-anchor="start" x="425.766" y="-145.3" font-family="Arial" font-size="14.00" fill="#666666">[BASE TABLE]</text>
<polygon fill="none" stroke="#000000" points="371,-102.5 371,-132.5 526,-132.5 526,-102.5 371,-102.5"/>
<text text-anchor="start" x="378" y="-113.9" font-family="Arial" font-size="14.00" fill="#000000">id </text>
<text text-anchor="start" x="392.7798" y="-113.9" font-family="Arial" font-size="14.00" fill="#666666">[char(36)]</text>
<polygon fill="none" stroke="#000000" points="371,-72.5 371,-102.5 526,-102.5 526,-72.5 371,-72.5"/>
<text text-anchor="start" x="378" y="-83.9" font-family="Arial" font-size="14.00" fill="#000000">name </text>
<text text-anchor="start" x="416.899" y="-83.9" font-family="Arial" font-size="14.00" fill="#666666">[varchar(32)]</text>
<polygon fill="none" stroke="#000000" points="371,-42.5 371,-72.5 526,-72.5 526,-42.5 371,-42.5"/>
<text text-anchor="start" x="378" y="-53.9" font-family="Arial" font-size="14.00" fill="#000000">icon_file_id </text>
<text text-anchor="start" x="451.9032" y="-53.9" font-family="Arial" font-size="14.00" fill="#666666">[char(36)]</text>
</g>
<!-- credentials&#45;&gt;users -->
<g id="edge1" class="edge">
<title>credentials:user_id&#45;&gt;users:id</title>
<path fill="none" stroke="#000000" d="M311.986,-423.9163C431.3748,-409.1081 234.7026,-117.5 371,-117.5"/>
<polygon fill="#000000" stroke="#000000" points="311.983,-423.9164 301.7374,-420.0077 306.9915,-424.2082 302,-424.5 302,-424.5 302,-424.5 306.9915,-424.2082 302.2626,-428.9923 311.983,-423.9164 311.983,-423.9164"/>
<text text-anchor="start" x="248.945" y="-408.5" font-family="Arial" font-size="10.00" fill="#000000">FOREIGN KEY (user_id) REFERENCES users (id)</text>
</g>
<!-- favorites -->
<g id="node2" class="node">
<title>favorites</title>
<polygon fill="#efefef" stroke="transparent" points="65,-851.5 65,-886.5 244,-886.5 244,-851.5 65,-851.5"/>
<polygon fill="none" stroke="#000000" points="65,-851.5 65,-886.5 244,-886.5 244,-851.5 65,-851.5"/>
<text text-anchor="start" x="71.8684" y="-864.3" font-family="Arial Bold" font-size="18.00" fill="#000000">favorites</text>
<text text-anchor="start" x="139.8778" y="-864.3" font-family="Arial" font-size="14.00" fill="#000000"> </text>
<text text-anchor="start" x="143.7684" y="-864.3" font-family="Arial" font-size="14.00" fill="#666666">[BASE TABLE]</text>
<polygon fill="none" stroke="#000000" points="65,-821.5 65,-851.5 244,-851.5 244,-821.5 65,-821.5"/>
<text text-anchor="start" x="72" y="-832.9" font-family="Arial" font-size="14.00" fill="#000000">user_id </text>
<text text-anchor="start" x="121.7882" y="-832.9" font-family="Arial" font-size="14.00" fill="#666666">[char(36)]</text>
<polygon fill="none" stroke="#000000" points="65,-791.5 65,-821.5 244,-821.5 244,-791.5 65,-791.5"/>
<text text-anchor="start" x="72" y="-802.9" font-family="Arial" font-size="14.00" fill="#000000">heya_id </text>
<text text-anchor="start" x="124.9102" y="-802.9" font-family="Arial" font-size="14.00" fill="#666666">[char(36)]</text>
</g>
<!-- heyas -->
<g id="node3" class="node">
<title>heyas</title>
<polygon fill="#efefef" stroke="transparent" points="521,-499.5 521,-534.5 682,-534.5 682,-499.5 521,-499.5"/>
<polygon fill="none" stroke="#000000" points="521,-499.5 521,-534.5 682,-534.5 682,-499.5 521,-499.5"/>
<text text-anchor="start" x="528.8638" y="-512.3" font-family="Arial Bold" font-size="18.00" fill="#000000">heyas</text>
<text text-anchor="start" x="576.8824" y="-512.3" font-family="Arial" font-size="14.00" fill="#000000"> </text>
<text text-anchor="start" x="580.773" y="-512.3" font-family="Arial" font-size="14.00" fill="#666666">[BASE TABLE]</text>
<polygon fill="none" stroke="#000000" points="521,-469.5 521,-499.5 682,-499.5 682,-469.5 521,-469.5"/>
<text text-anchor="start" x="528" y="-480.9" font-family="Arial" font-size="14.00" fill="#000000">id </text>
<text text-anchor="start" x="542.7798" y="-480.9" font-family="Arial" font-size="14.00" fill="#666666">[char(36)]</text>
<polygon fill="none" stroke="#000000" points="521,-439.5 521,-469.5 682,-469.5 682,-439.5 521,-439.5"/>
<text text-anchor="start" x="528" y="-450.9" font-family="Arial" font-size="14.00" fill="#000000">title </text>
<text text-anchor="start" x="553.6676" y="-450.9" font-family="Arial" font-size="14.00" fill="#666666">[char(50)]</text>
<polygon fill="none" stroke="#000000" points="521,-409.5 521,-439.5 682,-439.5 682,-409.5 521,-409.5"/>
<text text-anchor="start" x="528" y="-420.9" font-family="Arial" font-size="14.00" fill="#000000">description </text>
<text text-anchor="start" x="599.568" y="-420.9" font-family="Arial" font-size="14.00" fill="#666666">[text]</text>
<polygon fill="none" stroke="#000000" points="521,-379.5 521,-409.5 682,-409.5 682,-379.5 521,-379.5"/>
<text text-anchor="start" x="528" y="-390.9" font-family="Arial" font-size="14.00" fill="#000000">creator_id </text>
<text text-anchor="start" x="594.122" y="-390.9" font-family="Arial" font-size="14.00" fill="#666666">[char(36)]</text>
<polygon fill="none" stroke="#000000" points="521,-349.5 521,-379.5 682,-379.5 682,-349.5 521,-349.5"/>
<text text-anchor="start" x="527.9881" y="-360.9" font-family="Arial" font-size="14.00" fill="#000000">last_editor_id </text>
<text text-anchor="start" x="615.1185" y="-360.9" font-family="Arial" font-size="14.00" fill="#666666">[char(36)]</text>
<polygon fill="none" stroke="#000000" points="521,-319.5 521,-349.5 682,-349.5 682,-319.5 521,-319.5"/>
<text text-anchor="start" x="528" y="-330.9" font-family="Arial" font-size="14.00" fill="#000000">created_at </text>
<text text-anchor="start" x="598.028" y="-330.9" font-family="Arial" font-size="14.00" fill="#666666">[datetime]</text>
<polygon fill="none" stroke="#000000" points="521,-289.5 521,-319.5 682,-319.5 682,-289.5 521,-289.5"/>
<text text-anchor="start" x="528" y="-300.9" font-family="Arial" font-size="14.00" fill="#000000">updated_at </text>
<text text-anchor="start" x="601.9326" y="-300.9" font-family="Arial" font-size="14.00" fill="#666666">[datetime]</text>
</g>
<!-- favorites&#45;&gt;heyas -->
<g id="edge2" class="edge">
<title>favorites:heya_id&#45;&gt;heyas:id</title>
<path fill="none" stroke="#000000" d="M253.9807,-805.8747C324.8588,-796.2286 238.4995,-677.3389 295,-614 324.2283,-581.2341 348.2815,-598.707 387,-578 451.0376,-543.7522 448.3796,-484.5 521,-484.5"/>
<polygon fill="#000000" stroke="#000000" points="253.9804,-805.8746 243.7186,-802.0088 248.9902,-806.1873 244,-806.5 244,-806.5 244,-806.5 248.9902,-806.1873 244.2814,-810.9912 253.9804,-805.8746 253.9804,-805.8746"/>
<text text-anchor="start" x="6.715" y="-816.5" font-family="Arial" font-size="10.00" fill="#000000">FOREIGN KEY (heya_id) REFERENCES heyas (id)</text>
</g>
<!-- favorites&#45;&gt;users -->
<g id="edge3" class="edge">
<title>favorites:user_id&#45;&gt;users:id</title>
<path fill="none" stroke="#000000" d="M254.1881,-835.9603C337.7435,-826.4458 237.854,-693.352 295,-614 312.9514,-589.073 338.4732,-604.5051 354,-578 366.9402,-555.9104 345.3992,-117.5 371,-117.5"/>
<polygon fill="#000000" stroke="#000000" points="253.986,-835.9709 243.7619,-832.0063 248.993,-836.2355 244,-836.5 244,-836.5 244,-836.5 248.993,-836.2355 244.2381,-840.9937 253.986,-835.9709 253.986,-835.9709"/>
<text text-anchor="start" x="10.945" y="-846.5" font-family="Arial" font-size="10.00" fill="#000000">FOREIGN KEY (user_id) REFERENCES users (id)</text>
</g>
<!-- heyas&#45;&gt;users -->
<g id="edge4" class="edge">
<title>heyas:creator_id&#45;&gt;users:id</title>
<path fill="none" stroke="#000000" d="M510.9675,-393.893C446.536,-385.368 520.6275,-288.7354 526,-211 528.8652,-169.5433 567.5556,-117.5 526,-117.5"/>
<polygon fill="#000000" stroke="#000000" points="511.0183,-393.896 520.7282,-398.9918 516.0091,-394.198 521,-394.5 521,-394.5 521,-394.5 516.0091,-394.198 521.2718,-390.0082 511.0183,-393.896 511.0183,-393.896"/>
<text text-anchor="start" x="277.1115" y="-378.5" font-family="Arial" font-size="10.00" fill="#000000">FOREIGN KEY (creator_id) REFERENCES users (id)</text>
</g>
<!-- heyas&#45;&gt;users -->
<g id="edge5" class="edge">
<title>heyas:last_editor_id&#45;&gt;users:id</title>
<path fill="none" stroke="#000000" d="M510.8865,-363.6541C426.1626,-347.9038 632.0473,-117.5 526,-117.5"/>
<polygon fill="#000000" stroke="#000000" points="511.0348,-363.6664 520.6249,-368.9843 516.0174,-364.0832 521,-364.5 521,-364.5 521,-364.5 516.0174,-364.0832 521.3751,-360.0157 511.0348,-363.6664 511.0348,-363.6664"/>
<text text-anchor="start" x="261.6085" y="-348.5" font-family="Arial" font-size="10.00" fill="#000000">FOREIGN KEY (last_editor_id) REFERENCES users (id)</text>
</g>
<!-- hiqidashis -->
<g id="node4" class="node">
<title>hiqidashis</title>
<polygon fill="#efefef" stroke="transparent" points="348,-986.5 348,-1021.5 539,-1021.5 539,-986.5 348,-986.5"/>
<polygon fill="none" stroke="#000000" points="348,-986.5 348,-1021.5 539,-1021.5 539,-986.5 348,-986.5"/>
<text text-anchor="start" x="354.8663" y="-999.3" font-family="Arial Bold" font-size="18.00" fill="#000000">hiqidashis</text>
<text text-anchor="start" x="434.8799" y="-999.3" font-family="Arial" font-size="14.00" fill="#000000"> </text>
<text text-anchor="start" x="438.7705" y="-999.3" font-family="Arial" font-size="14.00" fill="#666666">[BASE TABLE]</text>
<polygon fill="none" stroke="#000000" points="348,-956.5 348,-986.5 539,-986.5 539,-956.5 348,-956.5"/>
<text text-anchor="start" x="355" y="-967.9" font-family="Arial" font-size="14.00" fill="#000000">id </text>
<text text-anchor="start" x="369.7798" y="-967.9" font-family="Arial" font-size="14.00" fill="#666666">[char(36)]</text>
<polygon fill="none" stroke="#000000" points="348,-926.5 348,-956.5 539,-956.5 539,-926.5 348,-926.5"/>
<text text-anchor="start" x="355" y="-937.9" font-family="Arial" font-size="14.00" fill="#000000">heya_id </text>
<text text-anchor="start" x="407.9102" y="-937.9" font-family="Arial" font-size="14.00" fill="#666666">[char(36)]</text>
<polygon fill="none" stroke="#000000" points="348,-896.5 348,-926.5 539,-926.5 539,-896.5 348,-896.5"/>
<text text-anchor="start" x="355" y="-907.9" font-family="Arial" font-size="14.00" fill="#000000">creator_id </text>
<text text-anchor="start" x="421.122" y="-907.9" font-family="Arial" font-size="14.00" fill="#666666">[char(36)]</text>
<polygon fill="none" stroke="#000000" points="348,-866.5 348,-896.5 539,-896.5 539,-866.5 348,-866.5"/>
<text text-anchor="start" x="355" y="-877.9" font-family="Arial" font-size="14.00" fill="#000000">last_editor_id </text>
<text text-anchor="start" x="442.1304" y="-877.9" font-family="Arial" font-size="14.00" fill="#666666">[char(36)]</text>
<polygon fill="none" stroke="#000000" points="348,-836.5 348,-866.5 539,-866.5 539,-836.5 348,-836.5"/>
<text text-anchor="start" x="355" y="-847.9" font-family="Arial" font-size="14.00" fill="#000000">parent_id </text>
<text text-anchor="start" x="417.244" y="-847.9" font-family="Arial" font-size="14.00" fill="#666666">[char(36)]</text>
<polygon fill="none" stroke="#000000" points="348,-806.5 348,-836.5 539,-836.5 539,-806.5 348,-806.5"/>
<text text-anchor="start" x="355" y="-817.9" font-family="Arial" font-size="14.00" fill="#000000">title </text>
<text text-anchor="start" x="380.6676" y="-817.9" font-family="Arial" font-size="14.00" fill="#666666">[char(50)]</text>
<polygon fill="none" stroke="#000000" points="348,-776.5 348,-806.5 539,-806.5 539,-776.5 348,-776.5"/>
<text text-anchor="start" x="355" y="-787.9" font-family="Arial" font-size="14.00" fill="#000000">description </text>
<text text-anchor="start" x="426.568" y="-787.9" font-family="Arial" font-size="14.00" fill="#666666">[text]</text>
<polygon fill="none" stroke="#000000" points="348,-746.5 348,-776.5 539,-776.5 539,-746.5 348,-746.5"/>
<text text-anchor="start" x="355" y="-757.9" font-family="Arial" font-size="14.00" fill="#000000">drawing </text>
<text text-anchor="start" x="407.8948" y="-757.9" font-family="Arial" font-size="14.00" fill="#666666">[text]</text>
<polygon fill="none" stroke="#000000" points="348,-716.5 348,-746.5 539,-746.5 539,-716.5 348,-716.5"/>
<text text-anchor="start" x="355" y="-727.9" font-family="Arial" font-size="14.00" fill="#000000">color_code </text>
<text text-anchor="start" x="427.3534" y="-727.9" font-family="Arial" font-size="14.00" fill="#666666">[char(7)]</text>
<polygon fill="none" stroke="#000000" points="348,-686.5 348,-716.5 539,-716.5 539,-686.5 348,-686.5"/>
<text text-anchor="start" x="355" y="-697.9" font-family="Arial" font-size="14.00" fill="#000000">created_at </text>
<text text-anchor="start" x="425.028" y="-697.9" font-family="Arial" font-size="14.00" fill="#666666">[datetime]</text>
<polygon fill="none" stroke="#000000" points="348,-656.5 348,-686.5 539,-686.5 539,-656.5 348,-656.5"/>
<text text-anchor="start" x="355" y="-667.9" font-family="Arial" font-size="14.00" fill="#000000">updated_at </text>
<text text-anchor="start" x="428.9326" y="-667.9" font-family="Arial" font-size="14.00" fill="#666666">[datetime]</text>
</g>
<!-- hiqidashis&#45;&gt;heyas -->
<g id="edge6" class="edge">
<title>hiqidashis:heya_id&#45;&gt;heyas:id</title>
<path fill="none" stroke="#000000" d="M549.1126,-939.5723C606.1859,-915.9113 554.8718,-681.234 539,-614 534.8901,-596.59 525.1099,-595.41 521,-578 511.4525,-537.5561 479.4444,-484.5 521,-484.5"/>
<polygon fill="#000000" stroke="#000000" points="548.8231,-939.6274 538.1573,-937.0796 543.9116,-940.5637 539,-941.5 539,-941.5 539,-941.5 543.9116,-940.5637 539.8427,-945.9204 548.8231,-939.6274 548.8231,-939.6274"/>
<text text-anchor="start" x="545.715" y="-951.5" font-family="Arial" font-size="10.00" fill="#000000">FOREIGN KEY (heya_id) REFERENCES heyas (id)</text>
</g>
<!-- hiqidashis&#45;&gt;hiqidashis -->
<g id="edge9" class="edge">
<title>hiqidashis:parent_id&#45;&gt;hiqidashis:id</title>
<path fill="none" stroke="#000000" d="M445.4697,-876.7553C452.97,-1020.1417 452.4801,-1256 444,-1256 435.3252,-1256 435.0118,-1120.6698 443.0597,-986.5689"/>
<polygon fill="#000000" stroke="#000000" points="445.4603,-876.581 449.4092,-866.3508 445.1881,-871.5884 444.9158,-866.5958 444.9158,-866.5958 444.9158,-866.5958 445.1881,-871.5884 440.4225,-866.8408 445.4603,-876.581 445.4603,-876.581"/>
<text text-anchor="start" x="183.4098" y="-876.5958" font-family="Arial" font-size="10.00" fill="#000000">FOREIGN KEY (parent_id) REFERENCES hiqidashis (id)</text>
</g>
<!-- hiqidashis&#45;&gt;users -->
<g id="edge7" class="edge">
<title>hiqidashis:creator_id&#45;&gt;users:id</title>
<path fill="none" stroke="#000000" d="M338.0826,-909.4417C286.1805,-886.1123 322.9346,-671.2489 348,-614 357.461,-592.3913 377.539,-599.6087 387,-578 446.0024,-443.2395 417.539,-390.9064 387,-247 383.3653,-229.8723 374.6347,-228.1277 371,-211 362.3734,-170.3497 329.4444,-117.5 371,-117.5"/>
<polygon fill="#000000" stroke="#000000" points="338.2086,-909.4678 347.0855,-915.9061 343.1043,-910.4839 348,-911.5 348,-911.5 348,-911.5 343.1043,-910.4839 348.9145,-907.0939 338.2086,-909.4678 338.2086,-909.4678"/>
<text text-anchor="start" x="355.1115" y="-921.5" font-family="Arial" font-size="10.00" fill="#000000">FOREIGN KEY (creator_id) REFERENCES users (id)</text>
</g>
<!-- hiqidashis&#45;&gt;users -->
<g id="edge8" class="edge">
<title>hiqidashis:last_editor_id&#45;&gt;users:id</title>
<path fill="none" stroke="#000000" d="M548.851,-879.2002C595.0031,-855.8506 568.226,-661.5871 539,-614 520.4842,-583.8517 486.5158,-608.1483 468,-578 429.5055,-515.3215 432.2427,-311.2794 468,-247 482.7489,-220.4865 511.2511,-237.5135 526,-211 546.2012,-174.6851 567.5556,-117.5 526,-117.5"/>
<polygon fill="#000000" stroke="#000000" points="548.7381,-879.2265 537.9769,-877.1178 543.8691,-880.3632 539,-881.5 539,-881.5 539,-881.5 543.8691,-880.3632 540.0231,-885.8822 548.7381,-879.2265 548.7381,-879.2265"/>
<text text-anchor="start" x="545.6085" y="-891.5" font-family="Arial" font-size="10.00" fill="#000000">FOREIGN KEY (last_editor_id) REFERENCES users (id)</text>
</g>
<!-- histories -->
<g id="node5" class="node">
<title>histories</title>
<polygon fill="#efefef" stroke="transparent" points="681,-851.5 681,-886.5 859,-886.5 859,-851.5 681,-851.5"/>
<polygon fill="none" stroke="#000000" points="681,-851.5 681,-886.5 859,-886.5 859,-851.5 681,-851.5"/>
<text text-anchor="start" x="687.8724" y="-864.3" font-family="Arial Bold" font-size="18.00" fill="#000000">histories</text>
<text text-anchor="start" x="754.8738" y="-864.3" font-family="Arial" font-size="14.00" fill="#000000"> </text>
<text text-anchor="start" x="758.7644" y="-864.3" font-family="Arial" font-size="14.00" fill="#666666">[BASE TABLE]</text>
<polygon fill="none" stroke="#000000" points="681,-821.5 681,-851.5 859,-851.5 859,-821.5 681,-821.5"/>
<text text-anchor="start" x="688" y="-832.9" font-family="Arial" font-size="14.00" fill="#000000">user_id </text>
<text text-anchor="start" x="737.7882" y="-832.9" font-family="Arial" font-size="14.00" fill="#666666">[char(36)]</text>
<polygon fill="none" stroke="#000000" points="681,-791.5 681,-821.5 859,-821.5 859,-791.5 681,-791.5"/>
<text text-anchor="start" x="688" y="-802.9" font-family="Arial" font-size="14.00" fill="#000000">heya_id </text>
<text text-anchor="start" x="740.9102" y="-802.9" font-family="Arial" font-size="14.00" fill="#666666">[char(36)]</text>
</g>
<!-- histories&#45;&gt;heyas -->
<g id="edge10" class="edge">
<title>histories:heya_id&#45;&gt;heyas:id</title>
<path fill="none" stroke="#000000" d="M670.9171,-805.8878C552.1963,-790.356 821.4781,-484.5 682,-484.5"/>
<polygon fill="#000000" stroke="#000000" points="671.0184,-805.8938 680.7272,-810.9917 676.0092,-806.1969 681,-806.5 681,-806.5 681,-806.5 676.0092,-806.1969 681.2728,-802.0083 671.0184,-805.8938 671.0184,-805.8938"/>
<text text-anchor="start" x="504.715" y="-790.5" font-family="Arial" font-size="10.00" fill="#000000">FOREIGN KEY (heya_id) REFERENCES heyas (id)</text>
</g>
<!-- histories&#45;&gt;users -->
<g id="edge11" class="edge">
<title>histories:user_id&#45;&gt;users:id</title>
<path fill="none" stroke="#000000" d="M670.9832,-834.9336C648.8025,-826.2744 675.8839,-783.4091 681,-749 692.6826,-670.4275 721.3174,-656.5725 733,-578 754.6354,-432.4885 804.2869,-375.6851 733,-247 680.4134,-152.0722 634.5202,-117.5 526,-117.5"/>
<polygon fill="#000000" stroke="#000000" points="671.1201,-834.9549 680.3047,-840.946 676.06,-835.7275 681,-836.5 681,-836.5 681,-836.5 676.06,-835.7275 681.6953,-832.054 671.1201,-834.9549 671.1201,-834.9549"/>
<text text-anchor="start" x="507.945" y="-820.5" font-family="Arial" font-size="10.00" fill="#000000">FOREIGN KEY (user_id) REFERENCES users (id)</text>
</g>
<!-- tsunas -->
<g id="node6" class="node">
<title>tsunas</title>
<polygon fill="#efefef" stroke="transparent" points="353,-1263.5 353,-1298.5 535,-1298.5 535,-1263.5 353,-1263.5"/>
<polygon fill="none" stroke="#000000" points="353,-1263.5 353,-1298.5 535,-1298.5 535,-1263.5 353,-1263.5"/>
<text text-anchor="start" x="368.8627" y="-1276.3" font-family="Arial Bold" font-size="18.00" fill="#000000">tsunas</text>
<text text-anchor="start" x="421.8835" y="-1276.3" font-family="Arial" font-size="14.00" fill="#000000"> </text>
<text text-anchor="start" x="425.7741" y="-1276.3" font-family="Arial" font-size="14.00" fill="#666666">[BASE TABLE]</text>
<polygon fill="none" stroke="#000000" points="353,-1233.5 353,-1263.5 535,-1263.5 535,-1233.5 353,-1233.5"/>
<text text-anchor="start" x="360" y="-1244.9" font-family="Arial" font-size="14.00" fill="#000000">id </text>
<text text-anchor="start" x="374.7798" y="-1244.9" font-family="Arial" font-size="14.00" fill="#666666">[char(36)]</text>
<polygon fill="none" stroke="#000000" points="353,-1203.5 353,-1233.5 535,-1233.5 535,-1203.5 353,-1203.5"/>
<text text-anchor="start" x="360" y="-1214.9" font-family="Arial" font-size="14.00" fill="#000000">heya_id </text>
<text text-anchor="start" x="412.9102" y="-1214.9" font-family="Arial" font-size="14.00" fill="#666666">[char(36)]</text>
<polygon fill="none" stroke="#000000" points="353,-1173.5 353,-1203.5 535,-1203.5 535,-1173.5 353,-1173.5"/>
<text text-anchor="start" x="359.5905" y="-1184.9" font-family="Arial" font-size="14.00" fill="#000000">hiqidashi_one_id </text>
<text text-anchor="start" x="468.5161" y="-1184.9" font-family="Arial" font-size="14.00" fill="#666666">[char(36)]</text>
<polygon fill="none" stroke="#000000" points="353,-1143.5 353,-1173.5 535,-1173.5 535,-1143.5 353,-1143.5"/>
<text text-anchor="start" x="360" y="-1154.9" font-family="Arial" font-size="14.00" fill="#000000">hiqidashi_two_id </text>
<text text-anchor="start" x="467.3576" y="-1154.9" font-family="Arial" font-size="14.00" fill="#666666">[char(36)]</text>
</g>
<!-- tsunas&#45;&gt;heyas -->
<g id="edge12" class="edge">
<title>tsunas:heya_id&#45;&gt;heyas:id</title>
<path fill="none" stroke="#000000" d="M545.2449,-1217.8726C604.2485,-1210.1313 575.3134,-1132.2031 590,-1065 611.4774,-966.7232 578.1281,-700.7851 629,-614 643.4003,-589.4338 668.6723,-603.1642 682,-578 701.4495,-541.277 723.5556,-484.5 682,-484.5"/>
<polygon fill="#000000" stroke="#000000" points="544.9813,-1217.8886 534.7249,-1214.0084 539.9907,-1218.1943 535,-1218.5 535,-1218.5 535,-1218.5 539.9907,-1218.1943 535.2751,-1222.9916 544.9813,-1217.8886 544.9813,-1217.8886"/>
<text text-anchor="start" x="541.715" y="-1228.5" font-family="Arial" font-size="10.00" fill="#000000">FOREIGN KEY (heya_id) REFERENCES heyas (id)</text>
</g>
<!-- tsunas&#45;&gt;hiqidashis -->
<g id="edge13" class="edge">
<title>tsunas:hiqidashi_one_id&#45;&gt;hiqidashis:id</title>
<path fill="none" stroke="#000000" d="M343.0844,-1186.934C316.9741,-1177.5314 330.6684,-1128.0682 353,-1101 406.5843,-1036.0501 485.4157,-1129.9499 539,-1065 565.4454,-1032.9453 580.5556,-971.5 539,-971.5"/>
<polygon fill="#000000" stroke="#000000" points="343.1224,-1186.9399 352.298,-1192.9449 348.0612,-1187.72 353,-1188.5 353,-1188.5 353,-1188.5 348.0612,-1187.72 353.702,-1184.0551 343.1224,-1186.9399 343.1224,-1186.9399"/>
<text text-anchor="start" x="57.822" y="-1198.5" font-family="Arial" font-size="10.00" fill="#000000">FOREIGN KEY (hiqidashi_one_id) REFERENCES hiqidashis (id)</text>
</g>
<!-- tsunas&#45;&gt;hiqidashis -->
<g id="edge14" class="edge">
<title>tsunas:hiqidashi_two_id&#45;&gt;hiqidashis:id</title>
<path fill="none" stroke="#000000" d="M444.9663,-1133.3476C453.5721,-1091.9066 517.2604,-1111.165 539,-1065 556.7042,-1027.4044 580.5556,-971.5 539,-971.5"/>
<polygon fill="#000000" stroke="#000000" points="444.9476,-1133.545 439.5202,-1143.0736 444.4738,-1138.5225 444,-1143.5 444,-1143.5 444,-1143.5 444.4738,-1138.5225 448.4798,-1143.9264 444.9476,-1133.545 444.9476,-1133.545"/>
<text text-anchor="start" x="150.382" y="-1153.5" font-family="Arial" font-size="10.00" fill="#000000">FOREIGN KEY (hiqidashi_two_id) REFERENCES hiqidashis (id)</text>
</g>
</g>
</svg>
