<?xml version="1.0" encoding="UTF-8" standalone="no"?>
<!DOCTYPE svg PUBLIC "-//W3C//DTD SVG 1.1//EN"
 "http://www.w3.org/Graphics/SVG/1.1/DTD/svg11.dtd">
<!-- Generated by graphviz version 2.40.1 (20161225.0304)
 -->
<!-- Title: HiQidas Pages: 1 -->
<svg width="913pt" height="1350pt"
 viewBox="0.00 0.00 912.50 1350.00" xmlns="http://www.w3.org/2000/svg" xmlns:xlink="http://www.w3.org/1999/xlink">
<g id="graph0" class="graph" transform="scale(1 1) rotate(0) translate(4 1346)">
<title>HiQidas</title>
<polygon fill="#ffffff" stroke="transparent" points="-4,4 -4,-1346 908.5,-1346 908.5,4 -4,4"/>
<!-- favorites -->
<g id="node1" class="node">
<title>favorites</title>
<polygon fill="#efefef" stroke="transparent" points="43.5,-851.5 43.5,-886.5 222.5,-886.5 222.5,-851.5 43.5,-851.5"/>
<polygon fill="none" stroke="#000000" points="43.5,-851.5 43.5,-886.5 222.5,-886.5 222.5,-851.5 43.5,-851.5"/>
<text text-anchor="start" x="50.3684" y="-864.3" font-family="Arial Bold" font-size="18.00" fill="#000000">favorites</text>
<text text-anchor="start" x="118.3778" y="-864.3" font-family="Arial" font-size="14.00" fill="#000000"> </text>
<text text-anchor="start" x="122.2684" y="-864.3" font-family="Arial" font-size="14.00" fill="#666666">[BASE TABLE]</text>
<polygon fill="none" stroke="#000000" points="43.5,-821.5 43.5,-851.5 222.5,-851.5 222.5,-821.5 43.5,-821.5"/>
<text text-anchor="start" x="50.5" y="-832.9" font-family="Arial" font-size="14.00" fill="#000000">user_id </text>
<text text-anchor="start" x="100.2882" y="-832.9" font-family="Arial" font-size="14.00" fill="#666666">[char(36)]</text>
<polygon fill="none" stroke="#000000" points="43.5,-791.5 43.5,-821.5 222.5,-821.5 222.5,-791.5 43.5,-791.5"/>
<text text-anchor="start" x="50.5" y="-802.9" font-family="Arial" font-size="14.00" fill="#000000">heya_id </text>
<text text-anchor="start" x="103.4102" y="-802.9" font-family="Arial" font-size="14.00" fill="#666666">[char(36)]</text>
</g>
<!-- heyas -->
<g id="node2" class="node">
<title>heyas</title>
<polygon fill="#efefef" stroke="transparent" points="220.5,-499.5 220.5,-534.5 381.5,-534.5 381.5,-499.5 220.5,-499.5"/>
<polygon fill="none" stroke="#000000" points="220.5,-499.5 220.5,-534.5 381.5,-534.5 381.5,-499.5 220.5,-499.5"/>
<text text-anchor="start" x="228.3638" y="-512.3" font-family="Arial Bold" font-size="18.00" fill="#000000">heyas</text>
<text text-anchor="start" x="276.3824" y="-512.3" font-family="Arial" font-size="14.00" fill="#000000"> </text>
<text text-anchor="start" x="280.273" y="-512.3" font-family="Arial" font-size="14.00" fill="#666666">[BASE TABLE]</text>
<polygon fill="none" stroke="#000000" points="220.5,-469.5 220.5,-499.5 381.5,-499.5 381.5,-469.5 220.5,-469.5"/>
<text text-anchor="start" x="227.5" y="-480.9" font-family="Arial" font-size="14.00" fill="#000000">id </text>
<text text-anchor="start" x="242.2798" y="-480.9" font-family="Arial" font-size="14.00" fill="#666666">[char(36)]</text>
<polygon fill="none" stroke="#000000" points="220.5,-439.5 220.5,-469.5 381.5,-469.5 381.5,-439.5 220.5,-439.5"/>
<text text-anchor="start" x="227.5" y="-450.9" font-family="Arial" font-size="14.00" fill="#000000">title </text>
<text text-anchor="start" x="253.1676" y="-450.9" font-family="Arial" font-size="14.00" fill="#666666">[char(50)]</text>
<polygon fill="none" stroke="#000000" points="220.5,-409.5 220.5,-439.5 381.5,-439.5 381.5,-409.5 220.5,-409.5"/>
<text text-anchor="start" x="227.5" y="-420.9" font-family="Arial" font-size="14.00" fill="#000000">description </text>
<text text-anchor="start" x="299.068" y="-420.9" font-family="Arial" font-size="14.00" fill="#666666">[text]</text>
<polygon fill="none" stroke="#000000" points="220.5,-379.5 220.5,-409.5 381.5,-409.5 381.5,-379.5 220.5,-379.5"/>
<text text-anchor="start" x="227.5" y="-390.9" font-family="Arial" font-size="14.00" fill="#000000">creator_id </text>
<text text-anchor="start" x="293.622" y="-390.9" font-family="Arial" font-size="14.00" fill="#666666">[char(36)]</text>
<polygon fill="none" stroke="#000000" points="220.5,-349.5 220.5,-379.5 381.5,-379.5 381.5,-349.5 220.5,-349.5"/>
<text text-anchor="start" x="227.4881" y="-360.9" font-family="Arial" font-size="14.00" fill="#000000">last_editor_id </text>
<text text-anchor="start" x="314.6185" y="-360.9" font-family="Arial" font-size="14.00" fill="#666666">[char(36)]</text>
<polygon fill="none" stroke="#000000" points="220.5,-319.5 220.5,-349.5 381.5,-349.5 381.5,-319.5 220.5,-319.5"/>
<text text-anchor="start" x="227.5" y="-330.9" font-family="Arial" font-size="14.00" fill="#000000">created_at </text>
<text text-anchor="start" x="297.528" y="-330.9" font-family="Arial" font-size="14.00" fill="#666666">[datetime]</text>
<polygon fill="none" stroke="#000000" points="220.5,-289.5 220.5,-319.5 381.5,-319.5 381.5,-289.5 220.5,-289.5"/>
<text text-anchor="start" x="227.5" y="-300.9" font-family="Arial" font-size="14.00" fill="#000000">updated_at </text>
<text text-anchor="start" x="301.4326" y="-300.9" font-family="Arial" font-size="14.00" fill="#666666">[datetime]</text>
</g>
<!-- favorites&#45;&gt;heyas -->
<g id="edge1" class="edge">
<title>favorites:heya_id&#45;&gt;heyas:id</title>
<path fill="none" stroke="#000000" d="M232.5811,-805.8878C351.2554,-790.356 81.0199,-484.5 220.5,-484.5"/>
<polygon fill="#000000" stroke="#000000" points="232.4816,-805.8937 222.2272,-802.0083 227.4908,-806.1969 222.5,-806.5 222.5,-806.5 222.5,-806.5 227.4908,-806.1969 222.7728,-810.9917 232.4816,-805.8937 232.4816,-805.8937"/>
<text text-anchor="start" x="229.215" y="-816.5" font-family="Arial" font-size="10.00" fill="#000000">FOREIGN KEY (heya_id) REFERENCES heyas (id)</text>
</g>
<!-- users -->
<g id="node6" class="node">
<title>users</title>
<polygon fill="#efefef" stroke="transparent" points="298.5,-132.5 298.5,-167.5 453.5,-167.5 453.5,-132.5 298.5,-132.5"/>
<polygon fill="none" stroke="#000000" points="298.5,-132.5 298.5,-167.5 453.5,-167.5 453.5,-132.5 298.5,-132.5"/>
<text text-anchor="start" x="305.3708" y="-145.3" font-family="Arial Bold" font-size="18.00" fill="#000000">users</text>
<text text-anchor="start" x="349.3754" y="-145.3" font-family="Arial" font-size="14.00" fill="#000000"> </text>
<text text-anchor="start" x="353.266" y="-145.3" font-family="Arial" font-size="14.00" fill="#666666">[BASE TABLE]</text>
<polygon fill="none" stroke="#000000" points="298.5,-102.5 298.5,-132.5 453.5,-132.5 453.5,-102.5 298.5,-102.5"/>
<text text-anchor="start" x="305.5" y="-113.9" font-family="Arial" font-size="14.00" fill="#000000">id </text>
<text text-anchor="start" x="320.2798" y="-113.9" font-family="Arial" font-size="14.00" fill="#666666">[char(36)]</text>
<polygon fill="none" stroke="#000000" points="298.5,-72.5 298.5,-102.5 453.5,-102.5 453.5,-72.5 298.5,-72.5"/>
<text text-anchor="start" x="305.5" y="-83.9" font-family="Arial" font-size="14.00" fill="#000000">name </text>
<text text-anchor="start" x="344.399" y="-83.9" font-family="Arial" font-size="14.00" fill="#666666">[varchar(32)]</text>
<polygon fill="none" stroke="#000000" points="298.5,-42.5 298.5,-72.5 453.5,-72.5 453.5,-42.5 298.5,-42.5"/>
<text text-anchor="start" x="305.5" y="-53.9" font-family="Arial" font-size="14.00" fill="#000000">icon_file_id </text>
<text text-anchor="start" x="379.4032" y="-53.9" font-family="Arial" font-size="14.00" fill="#666666">[char(36)]</text>
</g>
<!-- favorites&#45;&gt;users -->
<g id="edge2" class="edge">
<title>favorites:user_id&#45;&gt;users:id</title>
<path fill="none" stroke="#000000" d="M232.5259,-834.9322C254.7555,-826.2656 227.8909,-783.3671 222.5,-749 210.1283,-670.13 179.8717,-656.87 167.5,-578 134.5251,-367.7836 85.7131,-117.5 298.5,-117.5"/>
<polygon fill="#000000" stroke="#000000" points="232.3799,-834.955 221.8047,-832.054 227.44,-835.7275 222.5,-836.5 222.5,-836.5 222.5,-836.5 227.44,-835.7275 223.1953,-840.946 232.3799,-834.955 232.3799,-834.955"/>
<text text-anchor="start" x="229.445" y="-846.5" font-family="Arial" font-size="10.00" fill="#000000">FOREIGN KEY (user_id) REFERENCES users (id)</text>
</g>
<!-- heyas&#45;&gt;users -->
<g id="edge3" class="edge">
<title>heyas:creator_id&#45;&gt;users:id</title>
<path fill="none" stroke="#000000" d="M391.7398,-393.6316C443.6834,-384.1212 415.4312,-298.7026 381.5,-247 359.4383,-213.3835 320.5617,-244.6165 298.5,-211 275.6996,-176.258 256.9444,-117.5 298.5,-117.5"/>
<polygon fill="#000000" stroke="#000000" points="391.4642,-393.6549 381.1197,-390.0161 386.4821,-394.0774 381.5,-394.5 381.5,-394.5 381.5,-394.5 386.4821,-394.0774 381.8803,-398.9839 391.4642,-393.6549 391.4642,-393.6549"/>
<text text-anchor="start" x="388.6115" y="-404.5" font-family="Arial" font-size="10.00" fill="#000000">FOREIGN KEY (creator_id) REFERENCES users (id)</text>
</g>
<!-- heyas&#45;&gt;users -->
<g id="edge4" class="edge">
<title>heyas:last_editor_id&#45;&gt;users:id</title>
<path fill="none" stroke="#000000" d="M391.904,-363.3223C430.1956,-353.7056 408.0263,-287.4194 381.5,-247 359.4383,-213.3835 320.5617,-244.6165 298.5,-211 275.6996,-176.258 256.9444,-117.5 298.5,-117.5"/>
<polygon fill="#000000" stroke="#000000" points="391.4365,-363.3751 380.9938,-360.0286 386.4683,-363.9376 381.5,-364.5 381.5,-364.5 381.5,-364.5 386.4683,-363.9376 382.0062,-368.9714 391.4365,-363.3751 391.4365,-363.3751"/>
<text text-anchor="start" x="388.1085" y="-374.5" font-family="Arial" font-size="10.00" fill="#000000">FOREIGN KEY (last_editor_id) REFERENCES users (id)</text>
</g>
<!-- hiqidashis -->
<g id="node3" class="node">
<title>hiqidashis</title>
<polygon fill="#efefef" stroke="transparent" points="365.5,-986.5 365.5,-1021.5 556.5,-1021.5 556.5,-986.5 365.5,-986.5"/>
<polygon fill="none" stroke="#000000" points="365.5,-986.5 365.5,-1021.5 556.5,-1021.5 556.5,-986.5 365.5,-986.5"/>
<text text-anchor="start" x="372.3663" y="-999.3" font-family="Arial Bold" font-size="18.00" fill="#000000">hiqidashis</text>
<text text-anchor="start" x="452.3799" y="-999.3" font-family="Arial" font-size="14.00" fill="#000000"> </text>
<text text-anchor="start" x="456.2705" y="-999.3" font-family="Arial" font-size="14.00" fill="#666666">[BASE TABLE]</text>
<polygon fill="none" stroke="#000000" points="365.5,-956.5 365.5,-986.5 556.5,-986.5 556.5,-956.5 365.5,-956.5"/>
<text text-anchor="start" x="372.5" y="-967.9" font-family="Arial" font-size="14.00" fill="#000000">id </text>
<text text-anchor="start" x="387.2798" y="-967.9" font-family="Arial" font-size="14.00" fill="#666666">[char(36)]</text>
<polygon fill="none" stroke="#000000" points="365.5,-926.5 365.5,-956.5 556.5,-956.5 556.5,-926.5 365.5,-926.5"/>
<text text-anchor="start" x="372.5" y="-937.9" font-family="Arial" font-size="14.00" fill="#000000">heya_id </text>
<text text-anchor="start" x="425.4102" y="-937.9" font-family="Arial" font-size="14.00" fill="#666666">[char(36)]</text>
<polygon fill="none" stroke="#000000" points="365.5,-896.5 365.5,-926.5 556.5,-926.5 556.5,-896.5 365.5,-896.5"/>
<text text-anchor="start" x="372.5" y="-907.9" font-family="Arial" font-size="14.00" fill="#000000">creator_id </text>
<text text-anchor="start" x="438.622" y="-907.9" font-family="Arial" font-size="14.00" fill="#666666">[char(36)]</text>
<polygon fill="none" stroke="#000000" points="365.5,-866.5 365.5,-896.5 556.5,-896.5 556.5,-866.5 365.5,-866.5"/>
<text text-anchor="start" x="372.5" y="-877.9" font-family="Arial" font-size="14.00" fill="#000000">last_editor_id </text>
<text text-anchor="start" x="459.6304" y="-877.9" font-family="Arial" font-size="14.00" fill="#666666">[char(36)]</text>
<polygon fill="none" stroke="#000000" points="365.5,-836.5 365.5,-866.5 556.5,-866.5 556.5,-836.5 365.5,-836.5"/>
<text text-anchor="start" x="372.5" y="-847.9" font-family="Arial" font-size="14.00" fill="#000000">parent_id </text>
<text text-anchor="start" x="434.744" y="-847.9" font-family="Arial" font-size="14.00" fill="#666666">[char(36)]</text>
<polygon fill="none" stroke="#000000" points="365.5,-806.5 365.5,-836.5 556.5,-836.5 556.5,-806.5 365.5,-806.5"/>
<text text-anchor="start" x="372.5" y="-817.9" font-family="Arial" font-size="14.00" fill="#000000">title </text>
<text text-anchor="start" x="398.1676" y="-817.9" font-family="Arial" font-size="14.00" fill="#666666">[char(50)]</text>
<polygon fill="none" stroke="#000000" points="365.5,-776.5 365.5,-806.5 556.5,-806.5 556.5,-776.5 365.5,-776.5"/>
<text text-anchor="start" x="372.5" y="-787.9" font-family="Arial" font-size="14.00" fill="#000000">description </text>
<text text-anchor="start" x="444.068" y="-787.9" font-family="Arial" font-size="14.00" fill="#666666">[text]</text>
<polygon fill="none" stroke="#000000" points="365.5,-746.5 365.5,-776.5 556.5,-776.5 556.5,-746.5 365.5,-746.5"/>
<text text-anchor="start" x="372.5" y="-757.9" font-family="Arial" font-size="14.00" fill="#000000">drawing </text>
<text text-anchor="start" x="425.3948" y="-757.9" font-family="Arial" font-size="14.00" fill="#666666">[text]</text>
<polygon fill="none" stroke="#000000" points="365.5,-716.5 365.5,-746.5 556.5,-746.5 556.5,-716.5 365.5,-716.5"/>
<text text-anchor="start" x="372.5" y="-727.9" font-family="Arial" font-size="14.00" fill="#000000">color_code </text>
<text text-anchor="start" x="444.8534" y="-727.9" font-family="Arial" font-size="14.00" fill="#666666">[char(7)]</text>
<polygon fill="none" stroke="#000000" points="365.5,-686.5 365.5,-716.5 556.5,-716.5 556.5,-686.5 365.5,-686.5"/>
<text text-anchor="start" x="372.5" y="-697.9" font-family="Arial" font-size="14.00" fill="#000000">created_at </text>
<text text-anchor="start" x="442.528" y="-697.9" font-family="Arial" font-size="14.00" fill="#666666">[datetime]</text>
<polygon fill="none" stroke="#000000" points="365.5,-656.5 365.5,-686.5 556.5,-686.5 556.5,-656.5 365.5,-656.5"/>
<text text-anchor="start" x="372.5" y="-667.9" font-family="Arial" font-size="14.00" fill="#000000">updated_at </text>
<text text-anchor="start" x="446.4326" y="-667.9" font-family="Arial" font-size="14.00" fill="#666666">[datetime]</text>
</g>
<!-- hiqidashis&#45;&gt;heyas -->
<g id="edge6" class="edge">
<title>hiqidashis:heya_id&#45;&gt;heyas:id</title>
<path fill="none" stroke="#000000" d="M355.3993,-939.575C298.4695,-915.9461 351.1592,-681.5771 365.5,-614 369.1347,-596.8723 377.8653,-595.1277 381.5,-578 390.1266,-537.3497 423.0556,-484.5 381.5,-484.5"/>
<polygon fill="#000000" stroke="#000000" points="355.6768,-939.6278 364.6575,-945.9204 360.5884,-940.5639 365.5,-941.5 365.5,-941.5 365.5,-941.5 360.5884,-940.5639 366.3425,-937.0796 355.6768,-939.6278 355.6768,-939.6278"/>
<text text-anchor="start" x="128.215" y="-951.5" font-family="Arial" font-size="10.00" fill="#000000">FOREIGN KEY (heya_id) REFERENCES heyas (id)</text>
</g>
<!-- hiqidashis&#45;&gt;hiqidashis -->
<g id="edge8" class="edge">
<title>hiqidashis:parent_id&#45;&gt;hiqidashis:id</title>
<path fill="none" stroke="#000000" d="M462.9697,-876.7553C470.47,-1020.1417 469.9801,-1256 461.5,-1256 452.8252,-1256 452.5118,-1120.6698 460.5597,-986.5689"/>
<polygon fill="#000000" stroke="#000000" points="462.9603,-876.581 466.9092,-866.3508 462.6881,-871.5884 462.4158,-866.5958 462.4158,-866.5958 462.4158,-866.5958 462.6881,-871.5884 457.9225,-866.8408 462.9603,-876.581 462.9603,-876.581"/>
<text text-anchor="start" x="200.9098" y="-876.5958" font-family="Arial" font-size="10.00" fill="#000000">FOREIGN KEY (parent_id) REFERENCES hiqidashis (id)</text>
</g>
<!-- hiqidashis&#45;&gt;users -->
<g id="edge5" class="edge">
<title>hiqidashis:creator_id&#45;&gt;users:id</title>
<path fill="none" stroke="#000000" d="M355.5183,-909.4085C302.8963,-885.7067 333.2643,-667.5404 365.5,-614 383.1386,-584.7039 415.0705,-606.8052 433.5,-578 477.5182,-509.1998 451.277,-292.6463 453.5,-211 454.631,-169.4598 495.0556,-117.5 453.5,-117.5"/>
<polygon fill="#000000" stroke="#000000" points="355.7126,-909.4491 364.5771,-915.9044 360.6063,-910.4745 365.5,-911.5 365.5,-911.5 365.5,-911.5 360.6063,-910.4745 366.4229,-907.0956 355.7126,-909.4491 355.7126,-909.4491"/>
<text text-anchor="start" x="121.6115" y="-921.5" font-family="Arial" font-size="10.00" fill="#000000">FOREIGN KEY (creator_id) REFERENCES users (id)</text>
</g>
<!-- hiqidashis&#45;&gt;users -->
<g id="edge7" class="edge">
<title>hiqidashis:last_editor_id&#45;&gt;users:id</title>
<path fill="none" stroke="#000000" d="M566.1019,-877.7496C633.7368,-820.1134 535.6436,-117.5 453.5,-117.5"/>
<polygon fill="#000000" stroke="#000000" points="565.8147,-877.8618 554.8628,-877.3084 561.1574,-879.6809 556.5,-881.5 556.5,-881.5 556.5,-881.5 561.1574,-879.6809 558.1372,-885.6916 565.8147,-877.8618 565.8147,-877.8618"/>
<text text-anchor="start" x="563.1085" y="-891.5" font-family="Arial" font-size="10.00" fill="#000000">FOREIGN KEY (last_editor_id) REFERENCES users (id)</text>
</g>
<!-- histories -->
<g id="node4" class="node">
<title>histories</title>
<polygon fill="#efefef" stroke="transparent" points="660.5,-851.5 660.5,-886.5 838.5,-886.5 838.5,-851.5 660.5,-851.5"/>
<polygon fill="none" stroke="#000000" points="660.5,-851.5 660.5,-886.5 838.5,-886.5 838.5,-851.5 660.5,-851.5"/>
<text text-anchor="start" x="667.3724" y="-864.3" font-family="Arial Bold" font-size="18.00" fill="#000000">histories</text>
<text text-anchor="start" x="734.3738" y="-864.3" font-family="Arial" font-size="14.00" fill="#000000"> </text>
<text text-anchor="start" x="738.2644" y="-864.3" font-family="Arial" font-size="14.00" fill="#666666">[BASE TABLE]</text>
<polygon fill="none" stroke="#000000" points="660.5,-821.5 660.5,-851.5 838.5,-851.5 838.5,-821.5 660.5,-821.5"/>
<text text-anchor="start" x="667.5" y="-832.9" font-family="Arial" font-size="14.00" fill="#000000">user_id </text>
<text text-anchor="start" x="717.2882" y="-832.9" font-family="Arial" font-size="14.00" fill="#666666">[char(36)]</text>
<polygon fill="none" stroke="#000000" points="660.5,-791.5 660.5,-821.5 838.5,-821.5 838.5,-791.5 660.5,-791.5"/>
<text text-anchor="start" x="667.5" y="-802.9" font-family="Arial" font-size="14.00" fill="#000000">heya_id </text>
<text text-anchor="start" x="720.4102" y="-802.9" font-family="Arial" font-size="14.00" fill="#666666">[char(36)]</text>
</g>
<!-- histories&#45;&gt;heyas -->
<g id="edge9" class="edge">
<title>histories:heya_id&#45;&gt;heyas:id</title>
<path fill="none" stroke="#000000" d="M650.4786,-805.8944C579.0844,-796.5485 660.4793,-681.2382 608.5,-614 537.4602,-522.1058 497.6517,-484.5 381.5,-484.5"/>
<polygon fill="#000000" stroke="#000000" points="650.5182,-805.8967 660.2285,-810.9918 655.5091,-806.1983 660.5,-806.5 660.5,-806.5 660.5,-806.5 655.5091,-806.1983 660.7715,-802.0082 650.5182,-805.8967 650.5182,-805.8967"/>
<text text-anchor="start" x="667.215" y="-816.5" font-family="Arial" font-size="10.00" fill="#000000">FOREIGN KEY (heya_id) REFERENCES heyas (id)</text>
</g>
<!-- histories&#45;&gt;users -->
<g id="edge10" class="edge">
<title>histories:user_id&#45;&gt;users:id</title>
<path fill="none" stroke="#000000" d="M653.4919,-829.0054C620.8048,-762.4918 577.528,-275.0338 564.5,-247 532.5529,-178.2555 529.3051,-117.5 453.5,-117.5"/>
<polygon fill="#000000" stroke="#000000" points="653.6699,-829.1958 657.2131,-839.5735 657.085,-832.8479 660.5,-836.5 660.5,-836.5 660.5,-836.5 657.085,-832.8479 663.7869,-833.4265 653.6699,-829.1958 653.6699,-829.1958"/>
<text text-anchor="start" x="667.445" y="-846.5" font-family="Arial" font-size="10.00" fill="#000000">FOREIGN KEY (user_id) REFERENCES users (id)</text>
</g>
<!-- tsunas -->
<g id="node5" class="node">
<title>tsunas</title>
<polygon fill="#efefef" stroke="transparent" points="370.5,-1263.5 370.5,-1298.5 552.5,-1298.5 552.5,-1263.5 370.5,-1263.5"/>
<polygon fill="none" stroke="#000000" points="370.5,-1263.5 370.5,-1298.5 552.5,-1298.5 552.5,-1263.5 370.5,-1263.5"/>
<text text-anchor="start" x="386.3627" y="-1276.3" font-family="Arial Bold" font-size="18.00" fill="#000000">tsunas</text>
<text text-anchor="start" x="439.3835" y="-1276.3" font-family="Arial" font-size="14.00" fill="#000000"> </text>
<text text-anchor="start" x="443.2741" y="-1276.3" font-family="Arial" font-size="14.00" fill="#666666">[BASE TABLE]</text>
<polygon fill="none" stroke="#000000" points="370.5,-1233.5 370.5,-1263.5 552.5,-1263.5 552.5,-1233.5 370.5,-1233.5"/>
<text text-anchor="start" x="377.5" y="-1244.9" font-family="Arial" font-size="14.00" fill="#000000">id </text>
<text text-anchor="start" x="392.2798" y="-1244.9" font-family="Arial" font-size="14.00" fill="#666666">[char(36)]</text>
<polygon fill="none" stroke="#000000" points="370.5,-1203.5 370.5,-1233.5 552.5,-1233.5 552.5,-1203.5 370.5,-1203.5"/>
<text text-anchor="start" x="377.5" y="-1214.9" font-family="Arial" font-size="14.00" fill="#000000">heya_id </text>
<text text-anchor="start" x="430.4102" y="-1214.9" font-family="Arial" font-size="14.00" fill="#666666">[char(36)]</text>
<polygon fill="none" stroke="#000000" points="370.5,-1173.5 370.5,-1203.5 552.5,-1203.5 552.5,-1173.5 370.5,-1173.5"/>
<text text-anchor="start" x="377.0905" y="-1184.9" font-family="Arial" font-size="14.00" fill="#000000">hiqidashi_one_id </text>
<text text-anchor="start" x="486.0161" y="-1184.9" font-family="Arial" font-size="14.00" fill="#666666">[char(36)]</text>
<polygon fill="none" stroke="#000000" points="370.5,-1143.5 370.5,-1173.5 552.5,-1173.5 552.5,-1143.5 370.5,-1143.5"/>
<text text-anchor="start" x="377.5" y="-1154.9" font-family="Arial" font-size="14.00" fill="#000000">hiqidashi_two_id </text>
<text text-anchor="start" x="484.8576" y="-1154.9" font-family="Arial" font-size="14.00" fill="#666666">[char(36)]</text>
</g>
<!-- tsunas&#45;&gt;heyas -->
<g id="edge11" class="edge">
<title>tsunas:heya_id&#45;&gt;heyas:id</title>
<path fill="none" stroke="#000000" d="M360.1747,-1217.8749C300.6081,-1210.1615 327.8614,-1132.5005 312.5,-1065 290.1776,-966.9117 324.3719,-700.7851 273.5,-614 259.0997,-589.4338 233.8277,-603.1642 220.5,-578 201.0505,-541.277 178.9444,-484.5 220.5,-484.5"/>
<polygon fill="#000000" stroke="#000000" points="360.5183,-1217.8956 370.228,-1222.9918 365.5091,-1218.1978 370.5,-1218.5 370.5,-1218.5 370.5,-1218.5 365.5091,-1218.1978 370.772,-1214.0082 360.5183,-1217.8956 360.5183,-1217.8956"/>
<text text-anchor="start" x="133.215" y="-1228.5" font-family="Arial" font-size="10.00" fill="#000000">FOREIGN KEY (heya_id) REFERENCES heyas (id)</text>
</g>
<!-- tsunas&#45;&gt;hiqidashis -->
<g id="edge12" class="edge">
<title>tsunas:hiqidashi_one_id&#45;&gt;hiqidashis:id</title>
<path fill="none" stroke="#000000" d="M360.5844,-1186.934C334.4741,-1177.5314 348.1684,-1128.0682 370.5,-1101 424.0843,-1036.0501 502.9157,-1129.9499 556.5,-1065 582.9454,-1032.9453 598.0556,-971.5 556.5,-971.5"/>
<polygon fill="#000000" stroke="#000000" points="360.6224,-1186.9399 369.798,-1192.9449 365.5612,-1187.72 370.5,-1188.5 370.5,-1188.5 370.5,-1188.5 365.5612,-1187.72 371.202,-1184.0551 360.6224,-1186.9399 360.6224,-1186.9399"/>
<text text-anchor="start" x="75.322" y="-1198.5" font-family="Arial" font-size="10.00" fill="#000000">FOREIGN KEY (hiqidashi_one_id) REFERENCES hiqidashis (id)</text>
</g>
<!-- tsunas&#45;&gt;hiqidashis -->
<g id="edge13" class="edge">
<title>tsunas:hiqidashi_two_id&#45;&gt;hiqidashis:id</title>
<path fill="none" stroke="#000000" d="M462.4663,-1133.3476C471.0721,-1091.9066 534.7604,-1111.165 556.5,-1065 574.2042,-1027.4044 598.0556,-971.5 556.5,-971.5"/>
<polygon fill="#000000" stroke="#000000" points="462.4476,-1133.545 457.0202,-1143.0736 461.9738,-1138.5225 461.5,-1143.5 461.5,-1143.5 461.5,-1143.5 461.9738,-1138.5225 465.9798,-1143.9264 462.4476,-1133.545 462.4476,-1133.545"/>
<text text-anchor="start" x="167.882" y="-1153.5" font-family="Arial" font-size="10.00" fill="#000000">FOREIGN KEY (hiqidashi_two_id) REFERENCES hiqidashis (id)</text>
</g>
</g>
</svg>
