<?xml version="1.0" encoding="UTF-8" standalone="no"?>
<!DOCTYPE svg PUBLIC "-//W3C//DTD SVG 1.1//EN"
 "http://www.w3.org/Graphics/SVG/1.1/DTD/svg11.dtd">
<!-- Generated by graphviz version 2.40.1 (20161225.0304)
 -->
<!-- Title: tsunas Pages: 1 -->
<svg width="264pt" height="255pt"
 viewBox="0.00 0.00 264.00 255.00" xmlns="http://www.w3.org/2000/svg" xmlns:xlink="http://www.w3.org/1999/xlink">
<g id="graph0" class="graph" transform="scale(1 1) rotate(0) translate(4 251)">
<title>tsunas</title>
<polygon fill="#ffffff" stroke="transparent" points="-4,4 -4,-251 260,-251 260,4 -4,4"/>
<!-- tsunas -->
<g id="node1" class="node">
<title>tsunas</title>
<polygon fill="#efefef" stroke="transparent" points="46,-165.5 46,-200.5 210,-200.5 210,-165.5 46,-165.5"/>
<polygon fill="none" stroke="#000000" points="46,-165.5 46,-200.5 210,-200.5 210,-165.5 46,-165.5"/>
<text text-anchor="start" x="52.8627" y="-178.3" font-family="Arial Bold" font-size="18.00" fill="#000000">tsunas</text>
<text text-anchor="start" x="105.8835" y="-178.3" font-family="Arial" font-size="14.00" fill="#000000"> </text>
<text text-anchor="start" x="109.7741" y="-178.3" font-family="Arial" font-size="14.00" fill="#666666">[BASE TABLE]</text>
<polygon fill="none" stroke="#000000" points="46,-135.5 46,-165.5 210,-165.5 210,-135.5 46,-135.5"/>
<text text-anchor="start" x="53" y="-146.9" font-family="Arial" font-size="14.00" fill="#000000">id </text>
<text text-anchor="start" x="67.7798" y="-146.9" font-family="Arial" font-size="14.00" fill="#666666">[char(36)]</text>
<polygon fill="none" stroke="#000000" points="46,-105.5 46,-135.5 210,-135.5 210,-105.5 46,-105.5"/>
<text text-anchor="start" x="53" y="-116.9" font-family="Arial" font-size="14.00" fill="#000000">heya_id </text>
<text text-anchor="start" x="105.9102" y="-116.9" font-family="Arial" font-size="14.00" fill="#666666">[char(36)]</text>
<polygon fill="none" stroke="#000000" points="46,-75.5 46,-105.5 210,-105.5 210,-75.5 46,-75.5"/>
<text text-anchor="start" x="52.9264" y="-86.9" font-family="Arial" font-size="14.00" fill="#000000">hiqidashi_one </text>
<text text-anchor="start" x="143.1802" y="-86.9" font-family="Arial" font-size="14.00" fill="#666666">[char(36)]</text>
<polygon fill="none" stroke="#000000" points="46,-45.5 46,-75.5 210,-75.5 210,-45.5 46,-45.5"/>
<text text-anchor="start" x="53" y="-56.9" font-family="Arial" font-size="14.00" fill="#000000">hiqidashi_two </text>
<text text-anchor="start" x="141.6858" y="-56.9" font-family="Arial" font-size="14.00" fill="#666666">[char(36)]</text>
<polygon fill="none" stroke="#000000" stroke-width="3" points="44.5,-44.5 44.5,-202.5 211.5,-202.5 211.5,-44.5 44.5,-44.5"/>
</g>
</g>
</svg>
