<?xml version="1.0" encoding="UTF-8" standalone="no"?>
<!DOCTYPE svg PUBLIC "-//W3C//DTD SVG 1.1//EN"
 "http://www.w3.org/Graphics/SVG/1.1/DTD/svg11.dtd">
<!-- Generated by graphviz version 2.40.1 (20161225.0304)
 -->
<!-- Title: tsunas Pages: 1 -->
<svg width="550pt" height="742pt"
 viewBox="0.00 0.00 550.00 742.00" xmlns="http://www.w3.org/2000/svg" xmlns:xlink="http://www.w3.org/1999/xlink">
<g id="graph0" class="graph" transform="scale(1 1) rotate(0) translate(4 738)">
<title>tsunas</title>
<polygon fill="#ffffff" stroke="transparent" points="-4,4 -4,-738 546,-738 546,4 -4,4"/>
<!-- tsunas -->
<g id="node1" class="node">
<title>tsunas</title>
<polygon fill="#efefef" stroke="transparent" points="313.5,-652.5 313.5,-687.5 495.5,-687.5 495.5,-652.5 313.5,-652.5"/>
<polygon fill="none" stroke="#000000" points="313.5,-652.5 313.5,-687.5 495.5,-687.5 495.5,-652.5 313.5,-652.5"/>
<text text-anchor="start" x="329.3627" y="-665.3" font-family="Arial Bold" font-size="18.00" fill="#000000">tsunas</text>
<text text-anchor="start" x="382.3835" y="-665.3" font-family="Arial" font-size="14.00" fill="#000000"> </text>
<text text-anchor="start" x="386.2741" y="-665.3" font-family="Arial" font-size="14.00" fill="#666666">[BASE TABLE]</text>
<polygon fill="none" stroke="#000000" points="313.5,-622.5 313.5,-652.5 495.5,-652.5 495.5,-622.5 313.5,-622.5"/>
<text text-anchor="start" x="320.5" y="-633.9" font-family="Arial" font-size="14.00" fill="#000000">id </text>
<text text-anchor="start" x="335.2798" y="-633.9" font-family="Arial" font-size="14.00" fill="#666666">[char(36)]</text>
<polygon fill="none" stroke="#000000" points="313.5,-592.5 313.5,-622.5 495.5,-622.5 495.5,-592.5 313.5,-592.5"/>
<text text-anchor="start" x="320.5" y="-603.9" font-family="Arial" font-size="14.00" fill="#000000">heya_id </text>
<text text-anchor="start" x="373.4102" y="-603.9" font-family="Arial" font-size="14.00" fill="#666666">[char(36)]</text>
<polygon fill="none" stroke="#000000" points="313.5,-562.5 313.5,-592.5 495.5,-592.5 495.5,-562.5 313.5,-562.5"/>
<text text-anchor="start" x="320.0905" y="-573.9" font-family="Arial" font-size="14.00" fill="#000000">hiqidashi_one_id </text>
<text text-anchor="start" x="429.0161" y="-573.9" font-family="Arial" font-size="14.00" fill="#666666">[char(36)]</text>
<polygon fill="none" stroke="#000000" points="313.5,-532.5 313.5,-562.5 495.5,-562.5 495.5,-532.5 313.5,-532.5"/>
<text text-anchor="start" x="320.5" y="-543.9" font-family="Arial" font-size="14.00" fill="#000000">hiqidashi_two_id </text>
<text text-anchor="start" x="427.8576" y="-543.9" font-family="Arial" font-size="14.00" fill="#666666">[char(36)]</text>
<polygon fill="none" stroke="#000000" stroke-width="3" points="312,-531.5 312,-689.5 497,-689.5 497,-531.5 312,-531.5"/>
</g>
<!-- heyas -->
<g id="node2" class="node">
<title>heyas</title>
<polygon fill="#efefef" stroke="transparent" points="43.5,-312.5 43.5,-347.5 204.5,-347.5 204.5,-312.5 43.5,-312.5"/>
<polygon fill="none" stroke="#000000" points="43.5,-312.5 43.5,-347.5 204.5,-347.5 204.5,-312.5 43.5,-312.5"/>
<text text-anchor="start" x="51.3638" y="-325.3" font-family="Arial Bold" font-size="18.00" fill="#000000">heyas</text>
<text text-anchor="start" x="99.3824" y="-325.3" font-family="Arial" font-size="14.00" fill="#000000"> </text>
<text text-anchor="start" x="103.273" y="-325.3" font-family="Arial" font-size="14.00" fill="#666666">[BASE TABLE]</text>
<polygon fill="none" stroke="#000000" points="43.5,-282.5 43.5,-312.5 204.5,-312.5 204.5,-282.5 43.5,-282.5"/>
<text text-anchor="start" x="50.5" y="-293.9" font-family="Arial" font-size="14.00" fill="#000000">id </text>
<text text-anchor="start" x="65.2798" y="-293.9" font-family="Arial" font-size="14.00" fill="#666666">[char(36)]</text>
<polygon fill="none" stroke="#000000" points="43.5,-252.5 43.5,-282.5 204.5,-282.5 204.5,-252.5 43.5,-252.5"/>
<text text-anchor="start" x="50.5" y="-263.9" font-family="Arial" font-size="14.00" fill="#000000">title </text>
<text text-anchor="start" x="76.1676" y="-263.9" font-family="Arial" font-size="14.00" fill="#666666">[char(50)]</text>
<polygon fill="none" stroke="#000000" points="43.5,-222.5 43.5,-252.5 204.5,-252.5 204.5,-222.5 43.5,-222.5"/>
<text text-anchor="start" x="50.5" y="-233.9" font-family="Arial" font-size="14.00" fill="#000000">description </text>
<text text-anchor="start" x="122.068" y="-233.9" font-family="Arial" font-size="14.00" fill="#666666">[text]</text>
<polygon fill="none" stroke="#000000" points="43.5,-192.5 43.5,-222.5 204.5,-222.5 204.5,-192.5 43.5,-192.5"/>
<text text-anchor="start" x="50.5" y="-203.9" font-family="Arial" font-size="14.00" fill="#000000">creator_id </text>
<text text-anchor="start" x="116.622" y="-203.9" font-family="Arial" font-size="14.00" fill="#666666">[char(36)]</text>
<polygon fill="none" stroke="#000000" points="43.5,-162.5 43.5,-192.5 204.5,-192.5 204.5,-162.5 43.5,-162.5"/>
<text text-anchor="start" x="50.4881" y="-173.9" font-family="Arial" font-size="14.00" fill="#000000">last_editor_id </text>
<text text-anchor="start" x="137.6185" y="-173.9" font-family="Arial" font-size="14.00" fill="#666666">[char(36)]</text>
<polygon fill="none" stroke="#000000" points="43.5,-132.5 43.5,-162.5 204.5,-162.5 204.5,-132.5 43.5,-132.5"/>
<text text-anchor="start" x="50.5" y="-143.9" font-family="Arial" font-size="14.00" fill="#000000">created_at </text>
<text text-anchor="start" x="120.528" y="-143.9" font-family="Arial" font-size="14.00" fill="#666666">[datetime]</text>
<polygon fill="none" stroke="#000000" points="43.5,-102.5 43.5,-132.5 204.5,-132.5 204.5,-102.5 43.5,-102.5"/>
<text text-anchor="start" x="50.5" y="-113.9" font-family="Arial" font-size="14.00" fill="#000000">updated_at </text>
<text text-anchor="start" x="124.4326" y="-113.9" font-family="Arial" font-size="14.00" fill="#666666">[datetime]</text>
</g>
<!-- tsunas&#45;&gt;heyas -->
<g id="edge1" class="edge">
<title>tsunas:heya_id&#45;&gt;heyas:id</title>
<path fill="none" stroke="#000000" d="M303.4351,-606.8932C243.1466,-599.0907 278.8862,-517.5682 255.5,-451 231.6721,-383.1746 276.3891,-297.5 204.5,-297.5"/>
<polygon fill="#000000" stroke="#000000" points="303.5181,-606.8981 313.2291,-611.9918 308.5091,-607.1991 313.5,-607.5 313.5,-607.5 313.5,-607.5 308.5091,-607.1991 313.7709,-603.0082 303.5181,-606.8981 303.5181,-606.8981"/>
<text text-anchor="start" x="76.215" y="-617.5" font-family="Arial" font-size="10.00" fill="#000000">FOREIGN KEY (heya_id) REFERENCES heyas (id)</text>
</g>
<!-- hiqidashis -->
<g id="node3" class="node">
<title>hiqidashis</title>
<polygon fill="#efefef" stroke="transparent" points="308.5,-372.5 308.5,-407.5 499.5,-407.5 499.5,-372.5 308.5,-372.5"/>
<polygon fill="none" stroke="#000000" points="308.5,-372.5 308.5,-407.5 499.5,-407.5 499.5,-372.5 308.5,-372.5"/>
<text text-anchor="start" x="315.3663" y="-385.3" font-family="Arial Bold" font-size="18.00" fill="#000000">hiqidashis</text>
<text text-anchor="start" x="395.3799" y="-385.3" font-family="Arial" font-size="14.00" fill="#000000"> </text>
<text text-anchor="start" x="399.2705" y="-385.3" font-family="Arial" font-size="14.00" fill="#666666">[BASE TABLE]</text>
<polygon fill="none" stroke="#000000" points="308.5,-342.5 308.5,-372.5 499.5,-372.5 499.5,-342.5 308.5,-342.5"/>
<text text-anchor="start" x="315.5" y="-353.9" font-family="Arial" font-size="14.00" fill="#000000">id </text>
<text text-anchor="start" x="330.2798" y="-353.9" font-family="Arial" font-size="14.00" fill="#666666">[char(36)]</text>
<polygon fill="none" stroke="#000000" points="308.5,-312.5 308.5,-342.5 499.5,-342.5 499.5,-312.5 308.5,-312.5"/>
<text text-anchor="start" x="315.5" y="-323.9" font-family="Arial" font-size="14.00" fill="#000000">heya_id </text>
<text text-anchor="start" x="368.4102" y="-323.9" font-family="Arial" font-size="14.00" fill="#666666">[char(36)]</text>
<polygon fill="none" stroke="#000000" points="308.5,-282.5 308.5,-312.5 499.5,-312.5 499.5,-282.5 308.5,-282.5"/>
<text text-anchor="start" x="315.5" y="-293.9" font-family="Arial" font-size="14.00" fill="#000000">creator_id </text>
<text text-anchor="start" x="381.622" y="-293.9" font-family="Arial" font-size="14.00" fill="#666666">[char(36)]</text>
<polygon fill="none" stroke="#000000" points="308.5,-252.5 308.5,-282.5 499.5,-282.5 499.5,-252.5 308.5,-252.5"/>
<text text-anchor="start" x="315.5" y="-263.9" font-family="Arial" font-size="14.00" fill="#000000">last_editor_id </text>
<text text-anchor="start" x="402.6304" y="-263.9" font-family="Arial" font-size="14.00" fill="#666666">[char(36)]</text>
<polygon fill="none" stroke="#000000" points="308.5,-222.5 308.5,-252.5 499.5,-252.5 499.5,-222.5 308.5,-222.5"/>
<text text-anchor="start" x="315.5" y="-233.9" font-family="Arial" font-size="14.00" fill="#000000">parent_id </text>
<text text-anchor="start" x="377.744" y="-233.9" font-family="Arial" font-size="14.00" fill="#666666">[char(36)]</text>
<polygon fill="none" stroke="#000000" points="308.5,-192.5 308.5,-222.5 499.5,-222.5 499.5,-192.5 308.5,-192.5"/>
<text text-anchor="start" x="315.5" y="-203.9" font-family="Arial" font-size="14.00" fill="#000000">title </text>
<text text-anchor="start" x="341.1676" y="-203.9" font-family="Arial" font-size="14.00" fill="#666666">[char(50)]</text>
<polygon fill="none" stroke="#000000" points="308.5,-162.5 308.5,-192.5 499.5,-192.5 499.5,-162.5 308.5,-162.5"/>
<text text-anchor="start" x="315.5" y="-173.9" font-family="Arial" font-size="14.00" fill="#000000">description </text>
<text text-anchor="start" x="387.068" y="-173.9" font-family="Arial" font-size="14.00" fill="#666666">[text]</text>
<polygon fill="none" stroke="#000000" points="308.5,-132.5 308.5,-162.5 499.5,-162.5 499.5,-132.5 308.5,-132.5"/>
<text text-anchor="start" x="315.5" y="-143.9" font-family="Arial" font-size="14.00" fill="#000000">drawing </text>
<text text-anchor="start" x="368.3948" y="-143.9" font-family="Arial" font-size="14.00" fill="#666666">[text]</text>
<polygon fill="none" stroke="#000000" points="308.5,-102.5 308.5,-132.5 499.5,-132.5 499.5,-102.5 308.5,-102.5"/>
<text text-anchor="start" x="315.5" y="-113.9" font-family="Arial" font-size="14.00" fill="#000000">color_code </text>
<text text-anchor="start" x="387.8534" y="-113.9" font-family="Arial" font-size="14.00" fill="#666666">[char(7)]</text>
<polygon fill="none" stroke="#000000" points="308.5,-72.5 308.5,-102.5 499.5,-102.5 499.5,-72.5 308.5,-72.5"/>
<text text-anchor="start" x="315.5" y="-83.9" font-family="Arial" font-size="14.00" fill="#000000">created_at </text>
<text text-anchor="start" x="385.528" y="-83.9" font-family="Arial" font-size="14.00" fill="#666666">[datetime]</text>
<polygon fill="none" stroke="#000000" points="308.5,-42.5 308.5,-72.5 499.5,-72.5 499.5,-42.5 308.5,-42.5"/>
<text text-anchor="start" x="315.5" y="-53.9" font-family="Arial" font-size="14.00" fill="#000000">updated_at </text>
<text text-anchor="start" x="389.4326" y="-53.9" font-family="Arial" font-size="14.00" fill="#666666">[datetime]</text>
</g>
<!-- tsunas&#45;&gt;hiqidashis -->
<g id="edge2" class="edge">
<title>tsunas:hiqidashi_one_id&#45;&gt;hiqidashis:id</title>
<path fill="none" stroke="#000000" d="M303.5975,-576.0043C276.1165,-566.5987 290.3028,-515.1175 313.5,-487 367.0843,-422.0501 445.9157,-515.9499 499.5,-451 525.9454,-418.9453 541.0556,-357.5 499.5,-357.5"/>
<polygon fill="#000000" stroke="#000000" points="303.6122,-576.0064 312.8279,-581.9495 308.5561,-576.7532 313.5,-577.5 313.5,-577.5 313.5,-577.5 308.5561,-576.7532 314.1721,-573.0505 303.6122,-576.0064 303.6122,-576.0064"/>
<text text-anchor="start" x="18.322" y="-587.5" font-family="Arial" font-size="10.00" fill="#000000">FOREIGN KEY (hiqidashi_one_id) REFERENCES hiqidashis (id)</text>
</g>
<!-- tsunas&#45;&gt;hiqidashis -->
<g id="edge3" class="edge">
<title>tsunas:hiqidashi_two_id&#45;&gt;hiqidashis:id</title>
<path fill="none" stroke="#000000" d="M405.4142,-522.4342C413.8173,-479.8151 477.8082,-498.1896 499.5,-451 516.8561,-413.2425 541.0556,-357.5 499.5,-357.5"/>
<polygon fill="#000000" stroke="#000000" points="405.4046,-522.541 400.0184,-532.0929 404.9523,-527.5205 404.5,-532.5 404.5,-532.5 404.5,-532.5 404.9523,-527.5205 408.9816,-532.9071 405.4046,-522.541 405.4046,-522.541"/>
<text text-anchor="start" x="110.882" y="-542.5" font-family="Arial" font-size="10.00" fill="#000000">FOREIGN KEY (hiqidashi_two_id) REFERENCES hiqidashis (id)</text>
</g>
</g>
</svg>
