<?xml version="1.0" encoding="UTF-8" standalone="no"?>
<!DOCTYPE svg PUBLIC "-//W3C//DTD SVG 1.1//EN"
 "http://www.w3.org/Graphics/SVG/1.1/DTD/svg11.dtd">
<!-- Generated by graphviz version 2.40.1 (20161225.0304)
 -->
<!-- Title: users Pages: 1 -->
<svg width="1152pt" height="712pt"
 viewBox="0.00 0.00 1152.00 712.00" xmlns="http://www.w3.org/2000/svg" xmlns:xlink="http://www.w3.org/1999/xlink">
<g id="graph0" class="graph" transform="scale(1 1) rotate(0) translate(4 708)">
<title>users</title>
<polygon fill="#ffffff" stroke="transparent" points="-4,4 -4,-708 1148,-708 1148,4 -4,4"/>
<!-- users -->
<g id="node1" class="node">
<title>users</title>
<polygon fill="#efefef" stroke="transparent" points="487,-135.5 487,-170.5 642,-170.5 642,-135.5 487,-135.5"/>
<polygon fill="none" stroke="#000000" points="487,-135.5 487,-170.5 642,-170.5 642,-135.5 487,-135.5"/>
<text text-anchor="start" x="493.8708" y="-148.3" font-family="Arial Bold" font-size="18.00" fill="#000000">users</text>
<text text-anchor="start" x="537.8754" y="-148.3" font-family="Arial" font-size="14.00" fill="#000000"> </text>
<text text-anchor="start" x="541.766" y="-148.3" font-family="Arial" font-size="14.00" fill="#666666">[BASE TABLE]</text>
<polygon fill="none" stroke="#000000" points="487,-105.5 487,-135.5 642,-135.5 642,-105.5 487,-105.5"/>
<text text-anchor="start" x="494" y="-116.9" font-family="Arial" font-size="14.00" fill="#000000">id </text>
<text text-anchor="start" x="508.7798" y="-116.9" font-family="Arial" font-size="14.00" fill="#666666">[char(36)]</text>
<polygon fill="none" stroke="#000000" points="487,-75.5 487,-105.5 642,-105.5 642,-75.5 487,-75.5"/>
<text text-anchor="start" x="494" y="-86.9" font-family="Arial" font-size="14.00" fill="#000000">name </text>
<text text-anchor="start" x="532.899" y="-86.9" font-family="Arial" font-size="14.00" fill="#666666">[varchar(32)]</text>
<polygon fill="none" stroke="#000000" points="487,-45.5 487,-75.5 642,-75.5 642,-45.5 487,-45.5"/>
<text text-anchor="start" x="494" y="-56.9" font-family="Arial" font-size="14.00" fill="#000000">icon_file_id </text>
<text text-anchor="start" x="567.9032" y="-56.9" font-family="Arial" font-size="14.00" fill="#666666">[char(36)]</text>
<polygon fill="none" stroke="#000000" stroke-width="3" points="485,-44.5 485,-172.5 643,-172.5 643,-44.5 485,-44.5"/>
</g>
<!-- favorites -->
<g id="node2" class="node">
<title>favorites</title>
<polygon fill="#efefef" stroke="transparent" points="61,-490.5 61,-525.5 240,-525.5 240,-490.5 61,-490.5"/>
<polygon fill="none" stroke="#000000" points="61,-490.5 61,-525.5 240,-525.5 240,-490.5 61,-490.5"/>
<text text-anchor="start" x="67.8684" y="-503.3" font-family="Arial Bold" font-size="18.00" fill="#000000">favorites</text>
<text text-anchor="start" x="135.8778" y="-503.3" font-family="Arial" font-size="14.00" fill="#000000"> </text>
<text text-anchor="start" x="139.7684" y="-503.3" font-family="Arial" font-size="14.00" fill="#666666">[BASE TABLE]</text>
<polygon fill="none" stroke="#000000" points="61,-460.5 61,-490.5 240,-490.5 240,-460.5 61,-460.5"/>
<text text-anchor="start" x="68" y="-471.9" font-family="Arial" font-size="14.00" fill="#000000">user_id </text>
<text text-anchor="start" x="117.7882" y="-471.9" font-family="Arial" font-size="14.00" fill="#666666">[char(36)]</text>
<polygon fill="none" stroke="#000000" points="61,-430.5 61,-460.5 240,-460.5 240,-430.5 61,-430.5"/>
<text text-anchor="start" x="68" y="-441.9" font-family="Arial" font-size="14.00" fill="#000000">heya_id </text>
<text text-anchor="start" x="120.9102" y="-441.9" font-family="Arial" font-size="14.00" fill="#666666">[char(36)]</text>
</g>
<!-- favorites&#45;&gt;users -->
<g id="edge1" class="edge">
<title>favorites:user_id&#45;&gt;users:id</title>
<path fill="none" stroke="#000000" d="M250.1954,-474.9654C333.8782,-465.5404 235.7177,-333.6615 291,-253 350.4437,-166.2666 381.8513,-120.5 487,-120.5"/>
<polygon fill="#000000" stroke="#000000" points="249.9863,-474.9763 239.7643,-471.0062 244.9931,-475.2382 240,-475.5 240,-475.5 240,-475.5 244.9931,-475.2382 240.2357,-479.9938 249.9863,-474.9763 249.9863,-474.9763"/>
<text text-anchor="start" x="6.945" y="-485.5" font-family="Arial" font-size="10.00" fill="#000000">FOREIGN KEY (user_id) REFERENCES users (id)</text>
</g>
<!-- heyas -->
<g id="node3" class="node">
<title>heyas</title>
<polygon fill="#efefef" stroke="transparent" points="344,-565.5 344,-600.5 505,-600.5 505,-565.5 344,-565.5"/>
<polygon fill="none" stroke="#000000" points="344,-565.5 344,-600.5 505,-600.5 505,-565.5 344,-565.5"/>
<text text-anchor="start" x="351.8638" y="-578.3" font-family="Arial Bold" font-size="18.00" fill="#000000">heyas</text>
<text text-anchor="start" x="399.8824" y="-578.3" font-family="Arial" font-size="14.00" fill="#000000"> </text>
<text text-anchor="start" x="403.773" y="-578.3" font-family="Arial" font-size="14.00" fill="#666666">[BASE TABLE]</text>
<polygon fill="none" stroke="#000000" points="344,-535.5 344,-565.5 505,-565.5 505,-535.5 344,-535.5"/>
<text text-anchor="start" x="351" y="-546.9" font-family="Arial" font-size="14.00" fill="#000000">id </text>
<text text-anchor="start" x="365.7798" y="-546.9" font-family="Arial" font-size="14.00" fill="#666666">[char(36)]</text>
<polygon fill="none" stroke="#000000" points="344,-505.5 344,-535.5 505,-535.5 505,-505.5 344,-505.5"/>
<text text-anchor="start" x="351" y="-516.9" font-family="Arial" font-size="14.00" fill="#000000">title </text>
<text text-anchor="start" x="376.6676" y="-516.9" font-family="Arial" font-size="14.00" fill="#666666">[char(50)]</text>
<polygon fill="none" stroke="#000000" points="344,-475.5 344,-505.5 505,-505.5 505,-475.5 344,-475.5"/>
<text text-anchor="start" x="351" y="-486.9" font-family="Arial" font-size="14.00" fill="#000000">description </text>
<text text-anchor="start" x="422.568" y="-486.9" font-family="Arial" font-size="14.00" fill="#666666">[text]</text>
<polygon fill="none" stroke="#000000" points="344,-445.5 344,-475.5 505,-475.5 505,-445.5 344,-445.5"/>
<text text-anchor="start" x="351" y="-456.9" font-family="Arial" font-size="14.00" fill="#000000">creator_id </text>
<text text-anchor="start" x="417.122" y="-456.9" font-family="Arial" font-size="14.00" fill="#666666">[char(36)]</text>
<polygon fill="none" stroke="#000000" points="344,-415.5 344,-445.5 505,-445.5 505,-415.5 344,-415.5"/>
<text text-anchor="start" x="350.9881" y="-426.9" font-family="Arial" font-size="14.00" fill="#000000">last_editor_id </text>
<text text-anchor="start" x="438.1185" y="-426.9" font-family="Arial" font-size="14.00" fill="#666666">[char(36)]</text>
<polygon fill="none" stroke="#000000" points="344,-385.5 344,-415.5 505,-415.5 505,-385.5 344,-385.5"/>
<text text-anchor="start" x="351" y="-396.9" font-family="Arial" font-size="14.00" fill="#000000">created_at </text>
<text text-anchor="start" x="421.028" y="-396.9" font-family="Arial" font-size="14.00" fill="#666666">[datetime]</text>
<polygon fill="none" stroke="#000000" points="344,-355.5 344,-385.5 505,-385.5 505,-355.5 344,-355.5"/>
<text text-anchor="start" x="351" y="-366.9" font-family="Arial" font-size="14.00" fill="#000000">updated_at </text>
<text text-anchor="start" x="424.9326" y="-366.9" font-family="Arial" font-size="14.00" fill="#666666">[datetime]</text>
</g>
<!-- heyas&#45;&gt;users -->
<g id="edge2" class="edge">
<title>heyas:creator_id&#45;&gt;users:id</title>
<path fill="none" stroke="#000000" d="M515.253,-459.9019C640.9475,-444.1011 339.3717,-120.5 487,-120.5"/>
<polygon fill="#000000" stroke="#000000" points="514.983,-459.9176 504.7379,-456.0076 509.9915,-460.2088 505,-460.5 505,-460.5 505,-460.5 509.9915,-460.2088 505.2621,-464.9924 514.983,-459.9176 514.983,-459.9176"/>
<text text-anchor="start" x="261.1115" y="-470.5" font-family="Arial" font-size="10.00" fill="#000000">FOREIGN KEY (creator_id) REFERENCES users (id)</text>
</g>
<!-- heyas&#45;&gt;users -->
<g id="edge3" class="edge">
<title>heyas:last_editor_id&#45;&gt;users:id</title>
<path fill="none" stroke="#000000" d="M515.0316,-429.8648C627.8053,-414.3679 352.6291,-120.5 487,-120.5"/>
<polygon fill="#000000" stroke="#000000" points="514.98,-429.868 504.7156,-426.009 509.99,-430.184 505,-430.5 505,-430.5 505,-430.5 509.99,-430.184 505.2844,-434.991 514.98,-429.868 514.98,-429.868"/>
<text text-anchor="start" x="245.6085" y="-440.5" font-family="Arial" font-size="10.00" fill="#000000">FOREIGN KEY (last_editor_id) REFERENCES users (id)</text>
</g>
<!-- hiqidashis -->
<g id="node4" class="node">
<title>hiqidashis</title>
<polygon fill="#efefef" stroke="transparent" points="609,-625.5 609,-660.5 800,-660.5 800,-625.5 609,-625.5"/>
<polygon fill="none" stroke="#000000" points="609,-625.5 609,-660.5 800,-660.5 800,-625.5 609,-625.5"/>
<text text-anchor="start" x="615.8663" y="-638.3" font-family="Arial Bold" font-size="18.00" fill="#000000">hiqidashis</text>
<text text-anchor="start" x="695.8799" y="-638.3" font-family="Arial" font-size="14.00" fill="#000000"> </text>
<text text-anchor="start" x="699.7705" y="-638.3" font-family="Arial" font-size="14.00" fill="#666666">[BASE TABLE]</text>
<polygon fill="none" stroke="#000000" points="609,-595.5 609,-625.5 800,-625.5 800,-595.5 609,-595.5"/>
<text text-anchor="start" x="616" y="-606.9" font-family="Arial" font-size="14.00" fill="#000000">id </text>
<text text-anchor="start" x="630.7798" y="-606.9" font-family="Arial" font-size="14.00" fill="#666666">[char(36)]</text>
<polygon fill="none" stroke="#000000" points="609,-565.5 609,-595.5 800,-595.5 800,-565.5 609,-565.5"/>
<text text-anchor="start" x="616" y="-576.9" font-family="Arial" font-size="14.00" fill="#000000">heya_id </text>
<text text-anchor="start" x="668.9102" y="-576.9" font-family="Arial" font-size="14.00" fill="#666666">[char(36)]</text>
<polygon fill="none" stroke="#000000" points="609,-535.5 609,-565.5 800,-565.5 800,-535.5 609,-535.5"/>
<text text-anchor="start" x="616" y="-546.9" font-family="Arial" font-size="14.00" fill="#000000">creator_id </text>
<text text-anchor="start" x="682.122" y="-546.9" font-family="Arial" font-size="14.00" fill="#666666">[char(36)]</text>
<polygon fill="none" stroke="#000000" points="609,-505.5 609,-535.5 800,-535.5 800,-505.5 609,-505.5"/>
<text text-anchor="start" x="616" y="-516.9" font-family="Arial" font-size="14.00" fill="#000000">last_editor_id </text>
<text text-anchor="start" x="703.1304" y="-516.9" font-family="Arial" font-size="14.00" fill="#666666">[char(36)]</text>
<polygon fill="none" stroke="#000000" points="609,-475.5 609,-505.5 800,-505.5 800,-475.5 609,-475.5"/>
<text text-anchor="start" x="616" y="-486.9" font-family="Arial" font-size="14.00" fill="#000000">parent_id </text>
<text text-anchor="start" x="678.244" y="-486.9" font-family="Arial" font-size="14.00" fill="#666666">[char(36)]</text>
<polygon fill="none" stroke="#000000" points="609,-445.5 609,-475.5 800,-475.5 800,-445.5 609,-445.5"/>
<text text-anchor="start" x="616" y="-456.9" font-family="Arial" font-size="14.00" fill="#000000">title </text>
<text text-anchor="start" x="641.6676" y="-456.9" font-family="Arial" font-size="14.00" fill="#666666">[char(50)]</text>
<polygon fill="none" stroke="#000000" points="609,-415.5 609,-445.5 800,-445.5 800,-415.5 609,-415.5"/>
<text text-anchor="start" x="616" y="-426.9" font-family="Arial" font-size="14.00" fill="#000000">description </text>
<text text-anchor="start" x="687.568" y="-426.9" font-family="Arial" font-size="14.00" fill="#666666">[text]</text>
<polygon fill="none" stroke="#000000" points="609,-385.5 609,-415.5 800,-415.5 800,-385.5 609,-385.5"/>
<text text-anchor="start" x="616" y="-396.9" font-family="Arial" font-size="14.00" fill="#000000">drawing </text>
<text text-anchor="start" x="668.8948" y="-396.9" font-family="Arial" font-size="14.00" fill="#666666">[text]</text>
<polygon fill="none" stroke="#000000" points="609,-355.5 609,-385.5 800,-385.5 800,-355.5 609,-355.5"/>
<text text-anchor="start" x="616" y="-366.9" font-family="Arial" font-size="14.00" fill="#000000">color_code </text>
<text text-anchor="start" x="688.3534" y="-366.9" font-family="Arial" font-size="14.00" fill="#666666">[char(7)]</text>
<polygon fill="none" stroke="#000000" points="609,-325.5 609,-355.5 800,-355.5 800,-325.5 609,-325.5"/>
<text text-anchor="start" x="616" y="-336.9" font-family="Arial" font-size="14.00" fill="#000000">created_at </text>
<text text-anchor="start" x="686.028" y="-336.9" font-family="Arial" font-size="14.00" fill="#666666">[datetime]</text>
<polygon fill="none" stroke="#000000" points="609,-295.5 609,-325.5 800,-325.5 800,-295.5 609,-295.5"/>
<text text-anchor="start" x="616" y="-306.9" font-family="Arial" font-size="14.00" fill="#000000">updated_at </text>
<text text-anchor="start" x="689.9326" y="-306.9" font-family="Arial" font-size="14.00" fill="#666666">[datetime]</text>
</g>
<!-- hiqidashis&#45;&gt;users -->
<g id="edge4" class="edge">
<title>hiqidashis:creator_id&#45;&gt;users:id</title>
<path fill="none" stroke="#000000" d="M599.1043,-548.4507C547.4441,-525.2212 586.3439,-311.2444 609,-253 616.8686,-232.7714 634.1314,-237.2286 642,-217 657.5482,-177.0286 684.8889,-120.5 642,-120.5"/>
<polygon fill="#000000" stroke="#000000" points="599.2078,-548.472 608.0874,-554.9065 604.1039,-549.486 609,-550.5 609,-550.5 609,-550.5 604.1039,-549.486 609.9126,-546.0935 599.2078,-548.472 599.2078,-548.472"/>
<text text-anchor="start" x="616.1115" y="-560.5" font-family="Arial" font-size="10.00" fill="#000000">FOREIGN KEY (creator_id) REFERENCES users (id)</text>
</g>
<!-- hiqidashis&#45;&gt;users -->
<g id="edge5" class="edge">
<title>hiqidashis:last_editor_id&#45;&gt;users:id</title>
<path fill="none" stroke="#000000" d="M599.2478,-518.2492C554.0844,-495.3905 588.7548,-305.0464 609,-253 616.8686,-232.7714 634.1314,-237.2286 642,-217 657.5482,-177.0286 684.8889,-120.5 642,-120.5"/>
<polygon fill="#000000" stroke="#000000" points="599.2561,-518.2511 607.988,-524.8847 604.1281,-519.3755 609,-520.5 609,-520.5 609,-520.5 604.1281,-519.3755 610.012,-516.1153 599.2561,-518.2511 599.2561,-518.2511"/>
<text text-anchor="start" x="416.1085" y="-504.5" font-family="Arial" font-size="10.00" fill="#000000">FOREIGN KEY (last_editor_id) REFERENCES users (id)</text>
</g>
<!-- histories -->
<g id="node5" class="node">
<title>histories</title>
<polygon fill="#efefef" stroke="transparent" points="904,-490.5 904,-525.5 1082,-525.5 1082,-490.5 904,-490.5"/>
<polygon fill="none" stroke="#000000" points="904,-490.5 904,-525.5 1082,-525.5 1082,-490.5 904,-490.5"/>
<text text-anchor="start" x="910.8724" y="-503.3" font-family="Arial Bold" font-size="18.00" fill="#000000">histories</text>
<text text-anchor="start" x="977.8738" y="-503.3" font-family="Arial" font-size="14.00" fill="#000000"> </text>
<text text-anchor="start" x="981.7644" y="-503.3" font-family="Arial" font-size="14.00" fill="#666666">[BASE TABLE]</text>
<polygon fill="none" stroke="#000000" points="904,-460.5 904,-490.5 1082,-490.5 1082,-460.5 904,-460.5"/>
<text text-anchor="start" x="911" y="-471.9" font-family="Arial" font-size="14.00" fill="#000000">user_id </text>
<text text-anchor="start" x="960.7882" y="-471.9" font-family="Arial" font-size="14.00" fill="#666666">[char(36)]</text>
<polygon fill="none" stroke="#000000" points="904,-430.5 904,-460.5 1082,-460.5 1082,-430.5 904,-430.5"/>
<text text-anchor="start" x="911" y="-441.9" font-family="Arial" font-size="14.00" fill="#000000">heya_id </text>
<text text-anchor="start" x="963.9102" y="-441.9" font-family="Arial" font-size="14.00" fill="#666666">[char(36)]</text>
</g>
<!-- histories&#45;&gt;users -->
<g id="edge6" class="edge">
<title>histories:user_id&#45;&gt;users:id</title>
<path fill="none" stroke="#000000" d="M893.7965,-474.9618C810.0656,-465.4736 908.7751,-332.7364 852,-253 787.9894,-163.1019 752.3586,-120.5 642,-120.5"/>
<polygon fill="#000000" stroke="#000000" points="894.0139,-474.9732 903.7629,-479.9938 899.0069,-475.2366 904,-475.5 904,-475.5 904,-475.5 899.0069,-475.2366 904.2371,-471.0062 894.0139,-474.9732 894.0139,-474.9732"/>
<text text-anchor="start" x="910.945" y="-485.5" font-family="Arial" font-size="10.00" fill="#000000">FOREIGN KEY (user_id) REFERENCES users (id)</text>
</g>
</g>
</svg>
