<?xml version="1.0" encoding="UTF-8" standalone="no"?>
<!DOCTYPE svg PUBLIC "-//W3C//DTD SVG 1.1//EN"
 "http://www.w3.org/Graphics/SVG/1.1/DTD/svg11.dtd">
<!-- Generated by graphviz version 2.40.1 (20161225.0304)
 -->
<!-- Title: users Pages: 1 -->
<svg width="463pt" height="592pt"
 viewBox="0.00 0.00 462.50 592.00" xmlns="http://www.w3.org/2000/svg" xmlns:xlink="http://www.w3.org/1999/xlink">
<g id="graph0" class="graph" transform="scale(1 1) rotate(0) translate(4 588)">
<title>users</title>
<polygon fill="#ffffff" stroke="transparent" points="-4,4 -4,-588 458.5,-588 458.5,4 -4,4"/>
<!-- users -->
<g id="node1" class="node">
<title>users</title>
<polygon fill="#efefef" stroke="transparent" points="254,-135.5 254,-170.5 409,-170.5 409,-135.5 254,-135.5"/>
<polygon fill="none" stroke="#000000" points="254,-135.5 254,-170.5 409,-170.5 409,-135.5 254,-135.5"/>
<text text-anchor="start" x="260.8708" y="-148.3" font-family="Arial Bold" font-size="18.00" fill="#000000">users</text>
<text text-anchor="start" x="304.8754" y="-148.3" font-family="Arial" font-size="14.00" fill="#000000"> </text>
<text text-anchor="start" x="308.766" y="-148.3" font-family="Arial" font-size="14.00" fill="#666666">[BASE TABLE]</text>
<polygon fill="none" stroke="#000000" points="254,-105.5 254,-135.5 409,-135.5 409,-105.5 254,-105.5"/>
<text text-anchor="start" x="261" y="-116.9" font-family="Arial" font-size="14.00" fill="#000000">id </text>
<text text-anchor="start" x="275.7798" y="-116.9" font-family="Arial" font-size="14.00" fill="#666666">[char(36)]</text>
<polygon fill="none" stroke="#000000" points="254,-75.5 254,-105.5 409,-105.5 409,-75.5 254,-75.5"/>
<text text-anchor="start" x="261" y="-86.9" font-family="Arial" font-size="14.00" fill="#000000">name </text>
<text text-anchor="start" x="299.899" y="-86.9" font-family="Arial" font-size="14.00" fill="#666666">[varchar(32)]</text>
<polygon fill="none" stroke="#000000" points="254,-45.5 254,-75.5 409,-75.5 409,-45.5 254,-45.5"/>
<text text-anchor="start" x="261" y="-56.9" font-family="Arial" font-size="14.00" fill="#000000">icon_file_id </text>
<text text-anchor="start" x="334.9032" y="-56.9" font-family="Arial" font-size="14.00" fill="#666666">[char(36)]</text>
<polygon fill="none" stroke="#000000" stroke-width="3" points="252,-44.5 252,-172.5 410,-172.5 410,-44.5 252,-44.5"/>
</g>
<!-- heyas -->
<g id="node2" class="node">
<title>heyas</title>
<polygon fill="#efefef" stroke="transparent" points="251,-505.5 251,-540.5 412,-540.5 412,-505.5 251,-505.5"/>
<polygon fill="none" stroke="#000000" points="251,-505.5 251,-540.5 412,-540.5 412,-505.5 251,-505.5"/>
<text text-anchor="start" x="258.8638" y="-518.3" font-family="Arial Bold" font-size="18.00" fill="#000000">heyas</text>
<text text-anchor="start" x="306.8824" y="-518.3" font-family="Arial" font-size="14.00" fill="#000000"> </text>
<text text-anchor="start" x="310.773" y="-518.3" font-family="Arial" font-size="14.00" fill="#666666">[BASE TABLE]</text>
<polygon fill="none" stroke="#000000" points="251,-475.5 251,-505.5 412,-505.5 412,-475.5 251,-475.5"/>
<text text-anchor="start" x="258" y="-486.9" font-family="Arial" font-size="14.00" fill="#000000">id </text>
<text text-anchor="start" x="272.7798" y="-486.9" font-family="Arial" font-size="14.00" fill="#666666">[char(36)]</text>
<polygon fill="none" stroke="#000000" points="251,-445.5 251,-475.5 412,-475.5 412,-445.5 251,-445.5"/>
<text text-anchor="start" x="258" y="-456.9" font-family="Arial" font-size="14.00" fill="#000000">title </text>
<text text-anchor="start" x="283.6676" y="-456.9" font-family="Arial" font-size="14.00" fill="#666666">[char(50)]</text>
<polygon fill="none" stroke="#000000" points="251,-415.5 251,-445.5 412,-445.5 412,-415.5 251,-415.5"/>
<text text-anchor="start" x="258" y="-426.9" font-family="Arial" font-size="14.00" fill="#000000">description </text>
<text text-anchor="start" x="329.568" y="-426.9" font-family="Arial" font-size="14.00" fill="#666666">[text]</text>
<polygon fill="none" stroke="#000000" points="251,-385.5 251,-415.5 412,-415.5 412,-385.5 251,-385.5"/>
<text text-anchor="start" x="258" y="-396.9" font-family="Arial" font-size="14.00" fill="#000000">creator_id </text>
<text text-anchor="start" x="324.122" y="-396.9" font-family="Arial" font-size="14.00" fill="#666666">[char(36)]</text>
<polygon fill="none" stroke="#000000" points="251,-355.5 251,-385.5 412,-385.5 412,-355.5 251,-355.5"/>
<text text-anchor="start" x="257.9881" y="-366.9" font-family="Arial" font-size="14.00" fill="#000000">last_editor_id </text>
<text text-anchor="start" x="345.1185" y="-366.9" font-family="Arial" font-size="14.00" fill="#666666">[char(36)]</text>
<polygon fill="none" stroke="#000000" points="251,-325.5 251,-355.5 412,-355.5 412,-325.5 251,-325.5"/>
<text text-anchor="start" x="258" y="-336.9" font-family="Arial" font-size="14.00" fill="#000000">created_at </text>
<text text-anchor="start" x="328.028" y="-336.9" font-family="Arial" font-size="14.00" fill="#666666">[datetime]</text>
<polygon fill="none" stroke="#000000" points="251,-295.5 251,-325.5 412,-325.5 412,-295.5 251,-295.5"/>
<text text-anchor="start" x="258" y="-306.9" font-family="Arial" font-size="14.00" fill="#000000">updated_at </text>
<text text-anchor="start" x="331.9326" y="-306.9" font-family="Arial" font-size="14.00" fill="#666666">[datetime]</text>
</g>
<!-- heyas&#45;&gt;users -->
<g id="edge1" class="edge">
<title>heyas:creator_id&#45;&gt;users:id</title>
<path fill="none" stroke="#000000" d="M241.0532,-397.9069C189.3041,-369.6795 195.2987,-120.5 254,-120.5"/>
<polygon fill="#000000" stroke="#000000" points="241.3234,-397.9773 249.8648,-404.8545 246.1617,-399.2386 251,-400.5 251,-400.5 251,-400.5 246.1617,-399.2386 252.1352,-396.1455 241.3234,-397.9773 241.3234,-397.9773"/>
<text text-anchor="start" x="7.1115" y="-410.5" font-family="Arial" font-size="10.00" fill="#000000">FOREIGN KEY (creator_id) REFERENCES users (id)</text>
</g>
</g>
</svg>
