<?xml version="1.0" encoding="UTF-8" standalone="no"?>
<!DOCTYPE svg PUBLIC "-//W3C//DTD SVG 1.1//EN"
 "http://www.w3.org/Graphics/SVG/1.1/DTD/svg11.dtd">
<!-- Generated by graphviz version 2.40.1 (20161225.0304)
 -->
<!-- Title: users Pages: 1 -->
<svg width="1418pt" height="712pt"
 viewBox="0.00 0.00 1418.00 712.00" xmlns="http://www.w3.org/2000/svg" xmlns:xlink="http://www.w3.org/1999/xlink">
<g id="graph0" class="graph" transform="scale(1 1) rotate(0) translate(4 708)">
<title>users</title>
<polygon fill="#ffffff" stroke="transparent" points="-4,4 -4,-708 1414,-708 1414,4 -4,4"/>
<!-- users -->
<g id="node1" class="node">
<title>users</title>
<polygon fill="#efefef" stroke="transparent" points="632,-135.5 632,-170.5 787,-170.5 787,-135.5 632,-135.5"/>
<polygon fill="none" stroke="#000000" points="632,-135.5 632,-170.5 787,-170.5 787,-135.5 632,-135.5"/>
<text text-anchor="start" x="638.8708" y="-148.3" font-family="Arial Bold" font-size="18.00" fill="#000000">users</text>
<text text-anchor="start" x="682.8754" y="-148.3" font-family="Arial" font-size="14.00" fill="#000000"> </text>
<text text-anchor="start" x="686.766" y="-148.3" font-family="Arial" font-size="14.00" fill="#666666">[BASE TABLE]</text>
<polygon fill="none" stroke="#000000" points="632,-105.5 632,-135.5 787,-135.5 787,-105.5 632,-105.5"/>
<text text-anchor="start" x="639" y="-116.9" font-family="Arial" font-size="14.00" fill="#000000">id </text>
<text text-anchor="start" x="653.7798" y="-116.9" font-family="Arial" font-size="14.00" fill="#666666">[char(36)]</text>
<polygon fill="none" stroke="#000000" points="632,-75.5 632,-105.5 787,-105.5 787,-75.5 632,-75.5"/>
<text text-anchor="start" x="639" y="-86.9" font-family="Arial" font-size="14.00" fill="#000000">name </text>
<text text-anchor="start" x="677.899" y="-86.9" font-family="Arial" font-size="14.00" fill="#666666">[varchar(32)]</text>
<polygon fill="none" stroke="#000000" points="632,-45.5 632,-75.5 787,-75.5 787,-45.5 632,-45.5"/>
<text text-anchor="start" x="639" y="-56.9" font-family="Arial" font-size="14.00" fill="#000000">icon_file_id </text>
<text text-anchor="start" x="712.9032" y="-56.9" font-family="Arial" font-size="14.00" fill="#666666">[char(36)]</text>
<polygon fill="none" stroke="#000000" stroke-width="3" points="630,-44.5 630,-172.5 788,-172.5 788,-44.5 630,-44.5"/>
</g>
<!-- credentials -->
<g id="node2" class="node">
<title>credentials</title>
<polygon fill="#efefef" stroke="transparent" points="43,-505.5 43,-540.5 241,-540.5 241,-505.5 43,-505.5"/>
<polygon fill="none" stroke="#000000" points="43,-505.5 43,-540.5 241,-540.5 241,-505.5 43,-505.5"/>
<text text-anchor="start" x="49.8662" y="-518.3" font-family="Arial Bold" font-size="18.00" fill="#000000">credentials</text>
<text text-anchor="start" x="136.88" y="-518.3" font-family="Arial" font-size="14.00" fill="#000000"> </text>
<text text-anchor="start" x="140.7706" y="-518.3" font-family="Arial" font-size="14.00" fill="#666666">[BASE TABLE]</text>
<polygon fill="none" stroke="#000000" points="43,-475.5 43,-505.5 241,-505.5 241,-475.5 43,-475.5"/>
<text text-anchor="start" x="50" y="-486.9" font-family="Arial" font-size="14.00" fill="#000000">user_id </text>
<text text-anchor="start" x="99.7882" y="-486.9" font-family="Arial" font-size="14.00" fill="#666666">[char(36)]</text>
<polygon fill="none" stroke="#000000" points="43,-445.5 43,-475.5 241,-475.5 241,-445.5 43,-445.5"/>
<text text-anchor="start" x="50" y="-456.9" font-family="Arial" font-size="14.00" fill="#000000">mail_address </text>
<text text-anchor="start" x="137.1206" y="-456.9" font-family="Arial" font-size="14.00" fill="#666666">[varchar(254)]</text>
<polygon fill="none" stroke="#000000" points="43,-415.5 43,-445.5 241,-445.5 241,-415.5 43,-415.5"/>
<text text-anchor="start" x="50" y="-426.9" font-family="Arial" font-size="14.00" fill="#000000">hashed_pass </text>
<text text-anchor="start" x="137.1514" y="-426.9" font-family="Arial" font-size="14.00" fill="#666666">[varchar(32)]</text>
</g>
<!-- credentials&#45;&gt;users -->
<g id="edge1" class="edge">
<title>credentials:user_id&#45;&gt;users:id</title>
<path fill="none" stroke="#000000" d="M251.0043,-489.9946C340.8898,-480.2655 225.1522,-332.4373 293,-253 398.0605,-129.9934 470.2337,-120.5 632,-120.5"/>
<polygon fill="#000000" stroke="#000000" points="250.9873,-489.9954 240.7729,-486.0057 245.9936,-490.2477 241,-490.5 241,-490.5 241,-490.5 245.9936,-490.2477 241.2271,-494.9943 250.9873,-489.9954 250.9873,-489.9954"/>
<text text-anchor="start" x="127.945" y="-474.5" font-family="Arial" font-size="10.00" fill="#000000">FOREIGN KEY (user_id) REFERENCES users (id)</text>
</g>
<!-- favorites -->
<g id="node3" class="node">
<title>favorites</title>
<polygon fill="#efefef" stroke="transparent" points="346,-490.5 346,-525.5 525,-525.5 525,-490.5 346,-490.5"/>
<polygon fill="none" stroke="#000000" points="346,-490.5 346,-525.5 525,-525.5 525,-490.5 346,-490.5"/>
<text text-anchor="start" x="352.8684" y="-503.3" font-family="Arial Bold" font-size="18.00" fill="#000000">favorites</text>
<text text-anchor="start" x="420.8778" y="-503.3" font-family="Arial" font-size="14.00" fill="#000000"> </text>
<text text-anchor="start" x="424.7684" y="-503.3" font-family="Arial" font-size="14.00" fill="#666666">[BASE TABLE]</text>
<polygon fill="none" stroke="#000000" points="346,-460.5 346,-490.5 525,-490.5 525,-460.5 346,-460.5"/>
<text text-anchor="start" x="353" y="-471.9" font-family="Arial" font-size="14.00" fill="#000000">user_id </text>
<text text-anchor="start" x="402.7882" y="-471.9" font-family="Arial" font-size="14.00" fill="#666666">[char(36)]</text>
<polygon fill="none" stroke="#000000" points="346,-430.5 346,-460.5 525,-460.5 525,-430.5 346,-430.5"/>
<text text-anchor="start" x="353" y="-441.9" font-family="Arial" font-size="14.00" fill="#000000">heya_id </text>
<text text-anchor="start" x="405.9102" y="-441.9" font-family="Arial" font-size="14.00" fill="#666666">[char(36)]</text>
</g>
<!-- favorites&#45;&gt;users -->
<g id="edge2" class="edge">
<title>favorites:user_id&#45;&gt;users:id</title>
<path fill="none" stroke="#000000" d="M534.7542,-473.0202C573.7243,-451.6214 561.4969,-297.8745 576,-253 595.6612,-192.1658 568.0676,-120.5 632,-120.5"/>
<polygon fill="#000000" stroke="#000000" points="534.6917,-473.036 523.8912,-471.1387 529.8459,-474.268 525,-475.5 525,-475.5 525,-475.5 529.8459,-474.268 526.1088,-479.8613 534.6917,-473.036 534.6917,-473.036"/>
<text text-anchor="start" x="531.945" y="-485.5" font-family="Arial" font-size="10.00" fill="#000000">FOREIGN KEY (user_id) REFERENCES users (id)</text>
</g>
<!-- heyas -->
<g id="node4" class="node">
<title>heyas</title>
<polygon fill="#efefef" stroke="transparent" points="629,-565.5 629,-600.5 790,-600.5 790,-565.5 629,-565.5"/>
<polygon fill="none" stroke="#000000" points="629,-565.5 629,-600.5 790,-600.5 790,-565.5 629,-565.5"/>
<text text-anchor="start" x="636.8638" y="-578.3" font-family="Arial Bold" font-size="18.00" fill="#000000">heyas</text>
<text text-anchor="start" x="684.8824" y="-578.3" font-family="Arial" font-size="14.00" fill="#000000"> </text>
<text text-anchor="start" x="688.773" y="-578.3" font-family="Arial" font-size="14.00" fill="#666666">[BASE TABLE]</text>
<polygon fill="none" stroke="#000000" points="629,-535.5 629,-565.5 790,-565.5 790,-535.5 629,-535.5"/>
<text text-anchor="start" x="636" y="-546.9" font-family="Arial" font-size="14.00" fill="#000000">id </text>
<text text-anchor="start" x="650.7798" y="-546.9" font-family="Arial" font-size="14.00" fill="#666666">[char(36)]</text>
<polygon fill="none" stroke="#000000" points="629,-505.5 629,-535.5 790,-535.5 790,-505.5 629,-505.5"/>
<text text-anchor="start" x="636" y="-516.9" font-family="Arial" font-size="14.00" fill="#000000">title </text>
<text text-anchor="start" x="661.6676" y="-516.9" font-family="Arial" font-size="14.00" fill="#666666">[char(50)]</text>
<polygon fill="none" stroke="#000000" points="629,-475.5 629,-505.5 790,-505.5 790,-475.5 629,-475.5"/>
<text text-anchor="start" x="636" y="-486.9" font-family="Arial" font-size="14.00" fill="#000000">description </text>
<text text-anchor="start" x="707.568" y="-486.9" font-family="Arial" font-size="14.00" fill="#666666">[text]</text>
<polygon fill="none" stroke="#000000" points="629,-445.5 629,-475.5 790,-475.5 790,-445.5 629,-445.5"/>
<text text-anchor="start" x="636" y="-456.9" font-family="Arial" font-size="14.00" fill="#000000">creator_id </text>
<text text-anchor="start" x="702.122" y="-456.9" font-family="Arial" font-size="14.00" fill="#666666">[char(36)]</text>
<polygon fill="none" stroke="#000000" points="629,-415.5 629,-445.5 790,-445.5 790,-415.5 629,-415.5"/>
<text text-anchor="start" x="635.9881" y="-426.9" font-family="Arial" font-size="14.00" fill="#000000">last_editor_id </text>
<text text-anchor="start" x="723.1185" y="-426.9" font-family="Arial" font-size="14.00" fill="#666666">[char(36)]</text>
<polygon fill="none" stroke="#000000" points="629,-385.5 629,-415.5 790,-415.5 790,-385.5 629,-385.5"/>
<text text-anchor="start" x="636" y="-396.9" font-family="Arial" font-size="14.00" fill="#000000">created_at </text>
<text text-anchor="start" x="706.028" y="-396.9" font-family="Arial" font-size="14.00" fill="#666666">[datetime]</text>
<polygon fill="none" stroke="#000000" points="629,-355.5 629,-385.5 790,-385.5 790,-355.5 629,-355.5"/>
<text text-anchor="start" x="636" y="-366.9" font-family="Arial" font-size="14.00" fill="#000000">updated_at </text>
<text text-anchor="start" x="709.9326" y="-366.9" font-family="Arial" font-size="14.00" fill="#666666">[datetime]</text>
</g>
<!-- heyas&#45;&gt;users -->
<g id="edge3" class="edge">
<title>heyas:creator_id&#45;&gt;users:id</title>
<path fill="none" stroke="#000000" d="M620.8893,-454.5987C591.9018,-409.4502 597.1723,-120.5 632,-120.5"/>
<polygon fill="#000000" stroke="#000000" points="620.9139,-454.6165 626.3524,-464.1388 624.9569,-457.5583 629,-460.5 629,-460.5 629,-460.5 624.9569,-457.5583 631.6476,-456.8612 620.9139,-454.6165 620.9139,-454.6165"/>
<text text-anchor="start" x="447.8615" y="-444.5" font-family="Arial" font-size="10.00" fill="#000000">FOREIGN KEY (creator_id) REFERENCES users (id)</text>
</g>
<!-- heyas&#45;&gt;users -->
<g id="edge4" class="edge">
<title>heyas:last_editor_id&#45;&gt;users:id</title>
<path fill="none" stroke="#000000" d="M619.0601,-428.183C560.5825,-399.815 566.6063,-120.5 632,-120.5"/>
<polygon fill="#000000" stroke="#000000" points="619.2611,-428.2297 627.9784,-434.8825 624.1305,-429.3649 629,-430.5 629,-430.5 629,-430.5 624.1305,-429.3649 630.0216,-426.1175 619.2611,-428.2297 619.2611,-428.2297"/>
<text text-anchor="start" x="436.1085" y="-414.5" font-family="Arial" font-size="10.00" fill="#000000">FOREIGN KEY (last_editor_id) REFERENCES users (id)</text>
</g>
<!-- hiqidashis -->
<g id="node5" class="node">
<title>hiqidashis</title>
<polygon fill="#efefef" stroke="transparent" points="894,-625.5 894,-660.5 1085,-660.5 1085,-625.5 894,-625.5"/>
<polygon fill="none" stroke="#000000" points="894,-625.5 894,-660.5 1085,-660.5 1085,-625.5 894,-625.5"/>
<text text-anchor="start" x="900.8663" y="-638.3" font-family="Arial Bold" font-size="18.00" fill="#000000">hiqidashis</text>
<text text-anchor="start" x="980.8799" y="-638.3" font-family="Arial" font-size="14.00" fill="#000000"> </text>
<text text-anchor="start" x="984.7705" y="-638.3" font-family="Arial" font-size="14.00" fill="#666666">[BASE TABLE]</text>
<polygon fill="none" stroke="#000000" points="894,-595.5 894,-625.5 1085,-625.5 1085,-595.5 894,-595.5"/>
<text text-anchor="start" x="901" y="-606.9" font-family="Arial" font-size="14.00" fill="#000000">id </text>
<text text-anchor="start" x="915.7798" y="-606.9" font-family="Arial" font-size="14.00" fill="#666666">[char(36)]</text>
<polygon fill="none" stroke="#000000" points="894,-565.5 894,-595.5 1085,-595.5 1085,-565.5 894,-565.5"/>
<text text-anchor="start" x="901" y="-576.9" font-family="Arial" font-size="14.00" fill="#000000">heya_id </text>
<text text-anchor="start" x="953.9102" y="-576.9" font-family="Arial" font-size="14.00" fill="#666666">[char(36)]</text>
<polygon fill="none" stroke="#000000" points="894,-535.5 894,-565.5 1085,-565.5 1085,-535.5 894,-535.5"/>
<text text-anchor="start" x="901" y="-546.9" font-family="Arial" font-size="14.00" fill="#000000">creator_id </text>
<text text-anchor="start" x="967.122" y="-546.9" font-family="Arial" font-size="14.00" fill="#666666">[char(36)]</text>
<polygon fill="none" stroke="#000000" points="894,-505.5 894,-535.5 1085,-535.5 1085,-505.5 894,-505.5"/>
<text text-anchor="start" x="901" y="-516.9" font-family="Arial" font-size="14.00" fill="#000000">last_editor_id </text>
<text text-anchor="start" x="988.1304" y="-516.9" font-family="Arial" font-size="14.00" fill="#666666">[char(36)]</text>
<polygon fill="none" stroke="#000000" points="894,-475.5 894,-505.5 1085,-505.5 1085,-475.5 894,-475.5"/>
<text text-anchor="start" x="901" y="-486.9" font-family="Arial" font-size="14.00" fill="#000000">parent_id </text>
<text text-anchor="start" x="963.244" y="-486.9" font-family="Arial" font-size="14.00" fill="#666666">[char(36)]</text>
<polygon fill="none" stroke="#000000" points="894,-445.5 894,-475.5 1085,-475.5 1085,-445.5 894,-445.5"/>
<text text-anchor="start" x="901" y="-456.9" font-family="Arial" font-size="14.00" fill="#000000">title </text>
<text text-anchor="start" x="926.6676" y="-456.9" font-family="Arial" font-size="14.00" fill="#666666">[char(50)]</text>
<polygon fill="none" stroke="#000000" points="894,-415.5 894,-445.5 1085,-445.5 1085,-415.5 894,-415.5"/>
<text text-anchor="start" x="901" y="-426.9" font-family="Arial" font-size="14.00" fill="#000000">description </text>
<text text-anchor="start" x="972.568" y="-426.9" font-family="Arial" font-size="14.00" fill="#666666">[text]</text>
<polygon fill="none" stroke="#000000" points="894,-385.5 894,-415.5 1085,-415.5 1085,-385.5 894,-385.5"/>
<text text-anchor="start" x="901" y="-396.9" font-family="Arial" font-size="14.00" fill="#000000">drawing </text>
<text text-anchor="start" x="953.8948" y="-396.9" font-family="Arial" font-size="14.00" fill="#666666">[text]</text>
<polygon fill="none" stroke="#000000" points="894,-355.5 894,-385.5 1085,-385.5 1085,-355.5 894,-355.5"/>
<text text-anchor="start" x="901" y="-366.9" font-family="Arial" font-size="14.00" fill="#000000">color_code </text>
<text text-anchor="start" x="973.3534" y="-366.9" font-family="Arial" font-size="14.00" fill="#666666">[char(7)]</text>
<polygon fill="none" stroke="#000000" points="894,-325.5 894,-355.5 1085,-355.5 1085,-325.5 894,-325.5"/>
<text text-anchor="start" x="901" y="-336.9" font-family="Arial" font-size="14.00" fill="#000000">created_at </text>
<text text-anchor="start" x="971.028" y="-336.9" font-family="Arial" font-size="14.00" fill="#666666">[datetime]</text>
<polygon fill="none" stroke="#000000" points="894,-295.5 894,-325.5 1085,-325.5 1085,-295.5 894,-295.5"/>
<text text-anchor="start" x="901" y="-306.9" font-family="Arial" font-size="14.00" fill="#000000">updated_at </text>
<text text-anchor="start" x="974.9326" y="-306.9" font-family="Arial" font-size="14.00" fill="#666666">[datetime]</text>
</g>
<!-- hiqidashis&#45;&gt;users -->
<g id="edge5" class="edge">
<title>hiqidashis:creator_id&#45;&gt;users:id</title>
<path fill="none" stroke="#000000" d="M883.8701,-548.4746C830.4337,-525.5133 859.7307,-313.9151 842,-253 824.1805,-191.7799 850.7607,-120.5 787,-120.5"/>
<polygon fill="#000000" stroke="#000000" points="884.1941,-548.5393 893.1177,-554.9127 889.097,-549.5197 894,-550.5 894,-550.5 894,-550.5 889.097,-549.5197 894.8823,-546.0873 884.1941,-548.5393 884.1941,-548.5393"/>
<text text-anchor="start" x="901.1115" y="-560.5" font-family="Arial" font-size="10.00" fill="#000000">FOREIGN KEY (creator_id) REFERENCES users (id)</text>
</g>
<!-- hiqidashis&#45;&gt;users -->
<g id="edge6" class="edge">
<title>hiqidashis:last_editor_id&#45;&gt;users:id</title>
<path fill="none" stroke="#000000" d="M883.9238,-518.2759C836.4356,-495.6841 858.4165,-307.4706 842,-253 823.6011,-191.9516 850.7607,-120.5 787,-120.5"/>
<polygon fill="#000000" stroke="#000000" points="884.235,-518.3445 893.03,-524.8942 889.1175,-519.4223 894,-520.5 894,-520.5 894,-520.5 889.1175,-519.4223 894.97,-516.1058 884.235,-518.3445 884.235,-518.3445"/>
<text text-anchor="start" x="900.6085" y="-530.5" font-family="Arial" font-size="10.00" fill="#000000">FOREIGN KEY (last_editor_id) REFERENCES users (id)</text>
</g>
<!-- histories -->
<g id="node6" class="node">
<title>histories</title>
<polygon fill="#efefef" stroke="transparent" points="1189,-490.5 1189,-525.5 1367,-525.5 1367,-490.5 1189,-490.5"/>
<polygon fill="none" stroke="#000000" points="1189,-490.5 1189,-525.5 1367,-525.5 1367,-490.5 1189,-490.5"/>
<text text-anchor="start" x="1195.8724" y="-503.3" font-family="Arial Bold" font-size="18.00" fill="#000000">histories</text>
<text text-anchor="start" x="1262.8738" y="-503.3" font-family="Arial" font-size="14.00" fill="#000000"> </text>
<text text-anchor="start" x="1266.7644" y="-503.3" font-family="Arial" font-size="14.00" fill="#666666">[BASE TABLE]</text>
<polygon fill="none" stroke="#000000" points="1189,-460.5 1189,-490.5 1367,-490.5 1367,-460.5 1189,-460.5"/>
<text text-anchor="start" x="1196" y="-471.9" font-family="Arial" font-size="14.00" fill="#000000">user_id </text>
<text text-anchor="start" x="1245.7882" y="-471.9" font-family="Arial" font-size="14.00" fill="#666666">[char(36)]</text>
<polygon fill="none" stroke="#000000" points="1189,-430.5 1189,-460.5 1367,-460.5 1367,-430.5 1189,-430.5"/>
<text text-anchor="start" x="1196" y="-441.9" font-family="Arial" font-size="14.00" fill="#000000">heya_id </text>
<text text-anchor="start" x="1248.9102" y="-441.9" font-family="Arial" font-size="14.00" fill="#666666">[char(36)]</text>
</g>
<!-- histories&#45;&gt;users -->
<g id="edge7" class="edge">
<title>histories:user_id&#45;&gt;users:id</title>
<path fill="none" stroke="#000000" d="M1178.8267,-474.9379C1095.623,-465.0329 1201.4876,-326.6388 1137,-253 1027.4198,-127.8697 953.3293,-120.5 787,-120.5"/>
<polygon fill="#000000" stroke="#000000" points="1179.0152,-474.9483 1188.7517,-479.9931 1184.0076,-475.2241 1189,-475.5 1189,-475.5 1189,-475.5 1184.0076,-475.2241 1189.2483,-471.0069 1179.0152,-474.9483 1179.0152,-474.9483"/>
<text text-anchor="start" x="955.945" y="-485.5" font-family="Arial" font-size="10.00" fill="#000000">FOREIGN KEY (user_id) REFERENCES users (id)</text>
</g>
</g>
</svg>
